<?xml version="1.0" encoding="UTF-8"?>
<svg version="1.1" xmlns="http://www.w3.org/2000/svg" width="1472" height="905">
<path d="M0 0 C0.92874939 -0.0065712 1.85749878 -0.0131424 2.81439209 -0.01991272 C5.89074787 -0.03963925 8.9670549 -0.05130561 12.04345703 -0.0612793 C13.09359104 -0.06535482 14.14372505 -0.06943035 15.2256813 -0.07362938 C20.7816371 -0.09448526 26.33756822 -0.10879027 31.89355469 -0.11816406 C37.63604812 -0.12924015 43.37815531 -0.16365544 49.12051201 -0.20333576 C53.53342417 -0.22945656 57.94624355 -0.23785177 62.35922623 -0.24144554 C64.47634623 -0.24632158 66.59346182 -0.25796437 68.71050644 -0.27648354 C71.67190123 -0.30078286 74.63228643 -0.29992693 77.59375 -0.29296875 C78.90622208 -0.31218384 78.90622208 -0.31218384 80.24520874 -0.33178711 C81.05550537 -0.32484329 81.865802 -0.31789948 82.70065308 -0.31074524 C83.40008467 -0.31313359 84.09951626 -0.31552195 84.82014275 -0.31798267 C87.97456831 0.42337448 89.6158245 1.93591618 91.92626953 4.17700195 C92.55071402 6.876082 92.55071402 6.876082 92.54988861 10.03318882 C92.56169395 11.237591 92.57349929 12.44199317 92.58566236 13.68289238 C92.57346997 15.02106677 92.5608088 16.35923694 92.54772949 17.69740295 C92.55205716 19.11765649 92.55857194 20.53790477 92.56708956 21.95813936 C92.58412173 25.86567542 92.56987214 29.7725731 92.55057478 33.68007576 C92.53517834 37.89212503 92.54854166 42.1040945 92.55831909 46.31614685 C92.57286368 54.56912753 92.5605938 62.82186266 92.53920585 71.07482011 C92.51522615 80.67940336 92.51690832 90.28392997 92.51951176 99.88853651 C92.52320399 117.02128247 92.5023581 134.15391252 92.46826172 151.28662109 C92.43516386 167.92369516 92.42100405 184.56064758 92.42724609 201.19775391 C92.43400511 219.30188253 92.43156419 237.40596015 92.41188669 255.51008123 C92.41084721 256.46677113 92.40980772 257.42346102 92.40873674 258.40914152 C92.40664579 260.3307726 92.40453482 262.25240367 92.40240356 264.1740347 C92.39549882 270.87425255 92.39484016 277.57445471 92.39628601 284.27467537 C92.39772345 292.43548065 92.38807627 300.59618652 92.36433965 308.75695879 C92.35245305 312.92337234 92.3453721 317.08964707 92.35117722 321.25607681 C92.35632918 325.06620969 92.3477318 328.87604868 92.32790262 332.68613117 C92.32314231 334.06828191 92.32348883 335.45046108 92.32931298 336.83260775 C92.33643968 338.70395547 92.32348163 340.57534808 92.30937958 342.44665623 C92.30780838 343.48833912 92.30623717 344.53002202 92.30461836 345.60327107 C91.92626953 348.17700195 91.92626953 348.17700195 90.58982515 349.97264856 C86.49012745 352.94067967 81.76818892 352.33193433 76.94433594 352.33813477 C76.02534012 352.34309967 75.1063443 352.34806458 74.15950012 352.35317993 C71.11560318 352.3677998 68.07175834 352.37460298 65.02783203 352.38012695 C62.91417438 352.38587818 60.80051675 352.39163592 58.68685913 352.3973999 C54.25331377 352.40790913 49.81978654 352.41375244 45.38623047 352.41723633 C39.7043407 352.42272343 34.02269028 352.4467565 28.34087563 352.47520828 C23.97428689 352.49382779 19.60775591 352.49903988 15.24113083 352.5005722 C13.1463528 352.50360038 11.05157582 352.51163446 8.9568367 352.52475739 C6.02670292 352.54180468 3.09715539 352.53994086 0.16699219 352.53344727 C-0.69863846 352.54266205 -1.5642691 352.55187683 -2.45613098 352.56137085 C-7.14472463 352.5288081 -10.27491835 352.24429613 -14.07373047 349.17700195 C-15.39502147 346.53441995 -15.20159564 344.56187942 -15.20515823 341.6009388 C-15.20899938 340.40810221 -15.21284052 339.21526562 -15.21679807 337.98628247 C-15.21601774 336.6507772 -15.21513893 335.31527199 -15.21417236 333.97976685 C-15.21675457 332.57020895 -15.21976733 331.16065179 -15.22317576 329.75109565 C-15.23126591 325.8639949 -15.23303645 321.97691259 -15.23377323 318.08980441 C-15.23562028 313.90294315 -15.24316581 309.71609154 -15.24990845 305.52923584 C-15.26350626 296.36822215 -15.26951865 287.20721284 -15.27391911 278.04619074 C-15.2766789 272.32971128 -15.28091575 266.61323353 -15.28542328 260.89675522 C-15.29761749 245.07990436 -15.30791673 229.26305487 -15.31129837 213.44619942 C-15.31151794 212.43335286 -15.3117375 211.4205063 -15.31196372 210.37696742 C-15.312182 209.36165325 -15.31240028 208.34633907 -15.31262517 207.3002578 C-15.31306864 205.24273372 -15.3135152 203.18520963 -15.31396484 201.12768555 C-15.31418627 200.10707554 -15.3144077 199.08646553 -15.31463584 198.03492795 C-15.31858556 181.48989583 -15.33604418 164.9449077 -15.35932437 148.39989258 C-15.38301449 131.42702193 -15.39549914 114.45417339 -15.39666629 97.48128593 C-15.39758433 87.94609868 -15.40336912 78.41096877 -15.4214859 68.87579727 C-15.43685533 60.75781458 -15.44202607 52.63990694 -15.4337478 44.52191247 C-15.42983013 40.37765116 -15.43082499 36.23354112 -15.44480515 32.08929825 C-15.4574775 28.29818013 -15.45640579 24.50732798 -15.44421443 20.71621059 C-15.44131053 18.68919931 -15.45324348 16.66218372 -15.46563649 14.63520825 C-15.45904665 13.43715617 -15.4524568 12.23910408 -15.44566727 11.00474739 C-15.44626436 9.96843559 -15.44686144 8.9321238 -15.44747663 7.86440861 C-15.01529979 4.75685852 -14.25595998 3.40382916 -12.07373047 1.17700195 C-8.05966576 -0.16101962 -4.18657744 0.01280651 0 0 Z " fill="#1C1C1C" transform="translate(112.07373046875,281.822998046875)"/>
<path d="M0 0 C11.76448544 11.19553216 17.46148056 23.718676 18.46484375 39.75390625 C18.61714458 53.90265291 16.01232259 67.75567374 5.97265625 78.3359375 C1.30271544 82.20785045 -4.03122067 84.79199615 -9.49609375 87.3828125 C-8.44550781 87.87910156 -7.39492188 88.37539063 -6.3125 88.88671875 C11.06512832 97.23386124 23.00047288 107.23127078 30.50390625 125.3828125 C32.7483021 132.22287603 34.10533857 139.19651652 34.50390625 146.3828125 C34.58318359 147.73439453 34.58318359 147.73439453 34.6640625 149.11328125 C35.20389172 166.880704 29.00622319 182.29585115 17.28515625 195.5703125 C8.02851969 204.93095621 -2.52967204 211.064745 -14.49609375 216.3828125 C-16.11644531 217.10791016 -16.11644531 217.10791016 -17.76953125 217.84765625 C-23.82125907 220.35523616 -29.93711877 222.11374112 -36.30859375 223.5703125 C-36.9826123 223.72532227 -37.65663086 223.88033203 -38.35107422 224.04003906 C-50.93554788 226.72355749 -63.58417278 227.74803627 -76.43359375 227.6953125 C-77.12200348 227.69448669 -77.81041321 227.69366089 -78.51968384 227.69281006 C-92.92995405 227.65425334 -107.30245134 226.86775847 -121.68359375 226.0078125 C-122.76687958 225.94477936 -123.85016541 225.88174622 -124.96627808 225.81680298 C-128.07458717 225.63255203 -131.18183447 225.43596566 -134.2890625 225.234375 C-135.21688538 225.17905106 -136.14470825 225.12372711 -137.10064697 225.06672668 C-149.67585163 224.20305462 -149.67585163 224.20305462 -153.49609375 220.3828125 C-153.69647887 217.28104749 -153.76961758 214.26822421 -153.75679016 211.16505432 C-153.76061571 210.19766026 -153.76444126 209.2302662 -153.76838273 208.23355716 C-153.77875359 204.97148709 -153.77471285 201.70959169 -153.77075195 198.44750977 C-153.77509617 196.11713497 -153.78027833 193.7867616 -153.78623962 191.45639038 C-153.79967209 185.11145241 -153.80020359 178.76657385 -153.79767632 172.42162442 C-153.79647473 166.46494645 -153.80267677 160.50827861 -153.80810978 154.55160367 C-153.8189949 142.033531 -153.81681826 129.51548525 -153.81072494 116.99741106 C-153.80555512 105.53761283 -153.81681118 94.07789959 -153.83582316 82.61811817 C-153.8551806 70.86025328 -153.86346123 59.10242863 -153.8596999 47.34454769 C-153.85788239 40.73977026 -153.86056969 34.13507067 -153.87441444 27.53030586 C-153.88694219 21.32104304 -153.88509674 15.11195093 -153.87200356 8.90269089 C-153.86962717 6.61895504 -153.87241013 4.33520736 -153.88062668 2.05148506 C-153.89100627 -1.05669314 -153.88306443 -4.16428915 -153.87031555 -7.27244568 C-153.87768984 -8.18449766 -153.88506412 -9.09654964 -153.89266187 -10.03623956 C-153.88545533 -10.86654406 -153.87824878 -11.69684856 -153.87082386 -12.5523138 C-153.87087888 -13.27004024 -153.87093389 -13.98776668 -153.87099057 -14.72724241 C-153.38266194 -17.18902455 -152.43872133 -18.07579126 -150.49609375 -19.6171875 C-148.26074219 -20.20141602 -148.26074219 -20.20141602 -145.60546875 -20.49609375 C-144.10040771 -20.66951294 -144.10040771 -20.66951294 -142.56494141 -20.84643555 C-141.46972168 -20.95640869 -140.37450195 -21.06638184 -139.24609375 -21.1796875 C-138.09802246 -21.30190674 -136.94995117 -21.42412598 -135.76708984 -21.55004883 C-36.86296863 -31.65815355 -36.86296863 -31.65815355 0 0 Z M-86.49609375 13.3828125 C-86.49609375 33.8428125 -86.49609375 54.3028125 -86.49609375 75.3828125 C-80.74213674 78.25979101 -72.61598421 76.74136756 -66.74609375 74.8203125 C-58.31296886 71.35714162 -52.51728742 65.50660052 -48.49609375 57.3828125 C-44.76102185 48.3119236 -45.4535081 37.84079936 -49.171875 28.890625 C-52.88798024 21.85304517 -57.92672262 16.96019694 -65.49609375 14.3828125 C-72.9518138 12.39918056 -78.83899307 12.10662905 -86.49609375 13.3828125 Z M-86.49609375 115.3828125 C-86.51921941 124.36202027 -86.53700998 133.34121787 -86.54790592 142.32044888 C-86.55313426 146.48944078 -86.56023101 150.65841237 -86.5715332 154.82739258 C-86.58236383 158.84738936 -86.58837096 162.86736655 -86.59097099 166.88737679 C-86.59282493 168.42444225 -86.59644494 169.96150659 -86.60182381 171.49856377 C-86.60903659 173.64416737 -86.61008459 175.78968905 -86.60961914 177.93530273 C-86.61183975 179.15885971 -86.61406036 180.38241669 -86.61634827 181.64305115 C-86.80895303 184.2950932 -86.80895303 184.2950932 -85.49609375 185.3828125 C-71.61158886 186.55108799 -56.39140347 184.45264997 -45.25 175.59765625 C-38.77468205 169.62135363 -34.98650055 162.31593086 -34.2578125 153.5 C-34.01082514 142.71055222 -36.12646471 135.02815667 -43.66015625 127.12890625 C-53.7457098 117.53690106 -66.2159559 115.33581334 -79.75390625 115.3671875 C-81.64713623 115.37057129 -81.64713623 115.37057129 -83.57861328 115.37402344 C-84.54138184 115.37692383 -85.50415039 115.37982422 -86.49609375 115.3828125 Z " fill="#1C1C1C" transform="translate(596.49609375,303.6171875)"/>
<path d="M0 0 C2.66939091 2.66939091 3.06688227 5.05150953 4.12524414 8.6809082 C4.32976763 9.37558826 4.53429111 10.07026833 4.74501228 10.7859993 C5.43122515 13.12250241 6.10811404 15.46160575 6.78515625 17.80078125 C7.27345198 19.46997281 7.76234243 21.1389905 8.25178528 22.80784607 C9.30677611 26.40958714 10.35768343 30.01248568 11.40545654 33.61633301 C13.07736493 39.36682407 14.75792374 45.11476371 16.43994141 50.86230469 C18.19323874 56.85505407 19.94582811 62.84800683 21.69525146 68.84188843 C26.94416457 86.825698 32.23073985 104.79829052 37.52528763 122.76870823 C39.34793052 128.95643928 41.16606893 135.14548178 42.98193359 141.33520508 C44.00215306 144.81204858 45.0225043 148.28885339 46.04296875 151.765625 C46.41645447 153.03823464 46.41645447 153.03823464 46.79748535 154.33655357 C49.97979831 165.17594319 53.1901368 176.00649748 56.43212891 186.82818604 C58.04753177 192.22104659 59.65284608 197.61689182 61.2552681 203.01362228 C62.51963676 207.26856304 63.79746484 211.51913439 65.08603764 215.76680374 C66.04261636 218.9345685 66.97869767 222.10831164 67.91796875 225.28125 C68.26442947 226.40706482 68.6108902 227.53287964 68.96784973 228.69281006 C69.26874008 229.72295227 69.56963043 230.75309448 69.87963867 231.81445312 C70.14620773 232.70169067 70.41277679 233.58892822 70.68742371 234.50305176 C71.07235411 237.57798521 70.38445341 239.26366152 69 242 C68 243 68 243 65.41209412 243.12025452 C64.25959671 243.11803391 63.1070993 243.11581329 61.91967773 243.11352539 C59.96776772 243.11341209 59.96776772 243.11341209 57.97642517 243.11329651 C56.54548098 243.10818909 55.11453718 243.10297308 53.68359375 243.09765625 C52.2277074 243.09579203 50.77182043 243.09436815 49.31593323 243.09336853 C45.47720621 243.08954365 41.63851681 243.07971364 37.79980469 243.06866455 C33.88542184 243.05844978 29.97103294 243.05387077 26.05664062 243.04882812 C18.37107657 243.03809134 10.68554355 243.02101529 3 243 C-1.3048714 234.20434318 -3.93734574 224.93765533 -6.76953125 215.59375 C-7.3284699 213.76478057 -7.88791914 211.93596711 -8.44784546 210.1072998 C-9.93615371 205.24177654 -11.41760024 200.37418973 -12.89770126 195.50616455 C-14.42222869 190.49634094 -15.95318774 185.48848411 -17.48364258 180.48046875 C-19.89359533 172.59209876 -22.30025187 164.70273185 -24.70410156 156.8125 C-28.53593755 144.23594777 -32.38603062 131.66503088 -36.23910522 119.0949707 C-37.71697273 114.27213032 -39.19262451 109.44861277 -40.66796875 104.625 C-40.91034271 103.83258911 -41.15271667 103.04017822 -41.4024353 102.22375488 C-41.93499804 100.48251585 -42.46750661 98.74126024 -43 97 C-45.11264907 101.74112266 -46.87538512 106.47435648 -48.36572266 111.44921875 C-48.58301309 112.16270729 -48.80030352 112.87619583 -49.0241785 113.61130524 C-49.74120698 115.96892134 -50.452616 118.32819405 -51.1640625 120.6875 C-51.67400664 122.36783059 -52.18433531 124.04804453 -52.69502258 125.72814941 C-53.77968331 129.29883553 -54.86203918 132.87020867 -55.94259644 136.44213867 C-57.62816213 142.01304066 -59.32025481 147.58194521 -61.01391602 153.15039062 C-61.58143667 155.01647934 -62.14895681 156.8825682 -62.71647644 158.74865723 C-62.99721701 159.67173172 -63.27795757 160.59480621 -63.56720543 161.54585266 C-64.69992846 165.27102825 -65.83180836 168.99645981 -66.96370792 172.72188568 C-71.24347598 186.80706729 -75.52746777 200.89088611 -79.85198975 214.96240234 C-80.57383882 217.3148551 -81.29329351 219.66804395 -82.01031494 222.02197266 C-82.98930711 225.23522879 -83.97597169 228.44602314 -84.96484375 231.65625 C-85.24701248 232.5886853 -85.52918121 233.52112061 -85.81990051 234.48181152 C-86.08034653 235.32119263 -86.34079254 236.16057373 -86.60913086 237.02539062 C-86.83128769 237.7506897 -87.05344452 238.47598877 -87.28233337 239.2232666 C-88 241 -88 241 -90 243 C-91.89746094 243.26069641 -91.89746094 243.26069641 -94.234375 243.2746582 C-95.10868164 243.28419022 -95.98298828 243.29372223 -96.88378906 243.30354309 C-98.30256348 243.30217598 -98.30256348 243.30217598 -99.75 243.30078125 C-101.2035791 243.30720894 -101.2035791 243.30720894 -102.68652344 243.31376648 C-104.73762225 243.31951558 -106.78874146 243.32000579 -108.83984375 243.31567383 C-111.98733072 243.31251272 -115.13387927 243.33596993 -118.28125 243.36132812 C-120.27083214 243.36360085 -122.26041682 243.36430474 -124.25 243.36328125 C-125.19584961 243.372491 -126.14169922 243.38170074 -127.11621094 243.39118958 C-127.99051758 243.38496078 -128.86482422 243.37873199 -129.765625 243.37231445 C-130.92239746 243.37325859 -130.92239746 243.37325859 -132.10253906 243.3742218 C-132.72870117 243.25072861 -133.35486328 243.12723541 -134 243 C-136.61298961 239.08051559 -135.8707673 236.38767449 -135 232 C-134.33342921 229.43310606 -133.63114186 226.93475417 -132.83642578 224.41015625 C-132.61573111 223.69016103 -132.39503643 222.97016581 -132.16765404 222.22835255 C-131.43316102 219.83774673 -130.68924017 217.45018508 -129.9453125 215.0625 C-129.41472782 213.34211793 -128.88475515 211.621547 -128.35534668 209.90080261 C-127.21659768 206.20393729 -126.0737124 202.50838621 -124.92755127 198.81381226 C-123.10442756 192.93691052 -121.29049303 187.05719803 -119.47802734 181.17700195 C-117.26270409 173.99189488 -115.0452602 166.80744925 -112.82500648 159.62386417 C-107.2607276 141.62001758 -101.72870918 123.60630708 -96.20295525 105.59060478 C-94.52825943 100.1306599 -92.85221918 94.67113106 -91.17461205 89.21208 C-90.11747182 85.7716124 -89.0611534 82.33089277 -88.00494003 78.89014053 C-87.48955326 77.21185942 -86.97382368 75.53368353 -86.45773697 73.85561752 C-83.40285041 63.92163652 -80.39003842 53.97645643 -77.42871094 44.01416016 C-76.53992186 41.03488489 -75.65063429 38.05575876 -74.76127243 35.07665443 C-73.91583841 32.23428354 -73.07947474 29.38934608 -72.24331665 26.54423523 C-71.72693726 24.81231914 -71.21014412 23.08052635 -70.69287109 21.34887695 C-70.3497394 20.16531459 -70.3497394 20.16531459 -69.99967575 18.95784187 C-68.85300774 15.15318953 -67.85178954 11.8468751 -65 9 C-62.42405953 8.26253924 -60.12965164 7.77586345 -57.5 7.40234375 C-56.75595917 7.28275803 -56.01191833 7.1631723 -55.24533081 7.03996277 C-52.8324653 6.65608568 -50.41669255 6.29641946 -48 5.9375 C-46.34758974 5.68034261 -44.69540766 5.42171476 -43.04345703 5.16162109 C-39.81048002 4.65478403 -36.57633627 4.15686163 -33.34082031 3.66650391 C-29.80185854 3.12776658 -26.27073307 2.55296 -22.7421875 1.94921875 C-7.72313665 -0.61294735 -7.72313665 -0.61294735 0 0 Z " fill="#1C1C1C" transform="translate(1325,284)"/>
<path d="M0 0 C1.21121521 -0.00845947 1.21121521 -0.00845947 2.44689941 -0.01708984 C3.32390503 -0.01304138 4.20091064 -0.00899292 5.10449219 -0.00482178 C6.0349939 -0.00832642 6.96549561 -0.01183105 7.92419434 -0.01544189 C10.99999451 -0.02424437 14.07556467 -0.01841523 17.15136719 -0.01165771 C19.28841191 -0.01300479 21.42545633 -0.01494568 23.5625 -0.01745605 C28.04137083 -0.02040531 32.52016188 -0.016116 36.99902344 -0.0067749 C42.74259796 0.00461946 48.48598556 -0.00194106 54.22955322 -0.01391983 C58.64242971 -0.02114375 63.05526183 -0.01884804 67.46813965 -0.01366425 C69.58605979 -0.01232923 71.70398396 -0.01397031 73.82189941 -0.01862335 C76.78078906 -0.02369724 79.73937517 -0.01596604 82.69824219 -0.00482178 C83.5752478 -0.00887024 84.45225342 -0.0129187 85.35583496 -0.01708984 C86.56705017 -0.00863037 86.56705017 -0.00863037 87.80273438 0 C88.50178894 0.00075405 89.20084351 0.0015081 89.92108154 0.002285 C92.34541225 0.31040272 93.8592753 0.9054265 95.90136719 2.25396729 C97.73908525 5.02654522 98.16157117 7.2755486 98.22262573 10.56451416 C98.24271698 11.41932877 98.26280823 12.27414337 98.2835083 13.15486145 C98.29517029 14.08475388 98.30683228 15.0146463 98.31884766 15.97271729 C98.34819901 17.45160683 98.34819901 17.45160683 98.37814331 18.96037292 C98.43798817 22.22484982 98.48081135 25.48916266 98.51855469 28.75396729 C98.53169834 29.87167511 98.544842 30.98938293 98.55838394 32.14096069 C98.62355493 38.06155332 98.67245155 43.98207441 98.71142578 49.90289307 C98.74699698 54.79035986 98.81653598 59.67550629 98.91650391 64.56207275 C99.03729159 70.47385398 99.09842688 76.38349146 99.11777115 82.29644775 C99.1348249 84.5419816 99.17232691 86.7874624 99.23125839 89.0322876 C99.71281408 108.42574341 99.71281408 108.42574341 93.72569466 114.9601593 C91.24493139 117.28325137 88.66037287 119.26402546 85.90136719 121.25396729 C84.49392635 122.4698257 83.0947786 123.69555996 81.71386719 124.94146729 C81.09125 125.47127197 80.46863281 126.00107666 79.82714844 126.54693604 C76.78337744 129.24496428 73.97552468 132.17194462 71.12011719 135.06646729 C68.49365596 137.6559361 65.7316026 140.04233693 62.93261719 142.44146729 C60.66498146 144.46489609 58.53559769 146.59050075 56.40136719 148.75396729 C53.04022237 152.16115518 49.56435515 155.32854903 45.93261719 158.44146729 C42.86162402 161.18173811 40.01349843 164.1334363 37.12402344 167.06256104 C34.47435279 169.67497796 31.68963916 172.08699349 28.86621094 174.50787354 C26.79316395 176.35012404 24.84700917 178.2779839 22.90136719 180.25396729 C20.34146584 182.85378912 17.73357179 185.31665126 14.96386719 187.69146729 C11.97335003 190.26061999 9.17020035 192.94713985 6.40136719 195.75396729 C-4.08007186 206.34402228 -4.08007186 206.34402228 -10.09863281 209.25396729 C-10.1453163 182.85514579 -10.18060373 156.45633047 -10.20225716 130.05747604 C-10.21257764 117.80053072 -10.2266527 105.54361101 -10.24951172 93.28668213 C-10.26942198 82.60579164 -10.28234363 71.9249197 -10.2868098 61.24401116 C-10.28942119 55.58653737 -10.29557511 49.92911666 -10.31009293 44.27165985 C-10.32363948 38.94971708 -10.32786138 33.62784941 -10.32484818 28.30589104 C-10.32539965 26.34992248 -10.32939446 24.39395149 -10.33704376 22.43799782 C-10.3469592 19.77245562 -10.34461414 17.10719887 -10.33914185 14.44165039 C-10.34496753 13.66343925 -10.35079321 12.88522811 -10.35679543 12.08343482 C-10.31820485 5.15344971 -10.31820485 5.15344971 -8.09863281 2.25396729 C-5.37671752 0.45648999 -3.2275444 0.00348146 0 0 Z " fill="#1C1C1C" transform="translate(240.0986328125,416.74603271484375)"/>
<path d="M0 0 C0.86500122 -0.00990463 1.73000244 -0.01980927 2.62121582 -0.03001404 C4.04029991 -0.02326157 4.04029991 -0.02326157 5.48805237 -0.01637268 C6.98599838 -0.02666756 6.98599838 -0.02666756 8.51420593 -0.03717041 C11.82277046 -0.05550577 15.13086384 -0.05159119 18.43946838 -0.0459137 C20.73488521 -0.05047232 23.03030066 -0.05577693 25.32571411 -0.0617981 C30.14013712 -0.07074251 34.95439436 -0.06829096 39.76881409 -0.05836487 C45.94415453 -0.04687482 52.1189232 -0.06708098 58.2941885 -0.09628201 C63.03564093 -0.11461209 67.77695556 -0.11435787 72.51843452 -0.10864449 C74.79545455 -0.10849087 77.07248369 -0.11456795 79.34947014 -0.12693596 C82.53144761 -0.14178316 85.71235869 -0.13121434 88.89430237 -0.11402893 C89.8383342 -0.1236969 90.78236603 -0.13336487 91.75500488 -0.14332581 C98.12029768 -0.07119439 98.12029768 -0.07119439 101.28547668 2.21400452 C103.26430351 5.13928571 104.34472284 8.18569926 105.36915588 11.5322113 C105.69716438 12.5642292 105.69716438 12.5642292 106.03179932 13.61709595 C106.48910092 15.06838048 106.94006188 16.52167648 107.38502502 17.97679138 C108.06491578 20.1889261 108.77311707 22.39054222 109.48439026 24.59275818 C109.92688761 26.00953294 110.36769882 27.42683566 110.80665588 28.8447113 C111.12368217 29.82163689 111.12368217 29.82163689 111.44711304 30.81829834 C113.12401047 36.43167542 112.90666246 40.82902782 110.50343323 46.17234802 C109.97572327 47.06582947 109.44801331 47.95931091 108.90431213 48.87986755 C108.01002502 50.4122406 108.01002502 50.4122406 107.09767151 51.97557068 C106.44862854 53.06031677 105.79958557 54.14506287 105.13087463 55.26268005 C104.45091705 56.41773726 103.77189706 57.57334687 103.09376526 58.72947693 C100.99814269 62.29244064 98.87992065 65.84160534 96.75587463 69.38768005 C96.1168219 70.45534607 95.47776917 71.52301208 94.8193512 72.62303162 C92.34633643 76.74817021 89.86949977 80.87094819 87.3842926 84.98875427 C82.2756471 93.4677513 77.32615764 102.03228128 72.40284729 110.61985779 C67.30335113 119.49271307 62.06667304 128.27661557 56.76564026 137.03025818 C56.18233948 137.99512146 55.5990387 138.95998474 54.99806213 139.9540863 C54.23791809 141.20620911 54.23791809 141.20620911 53.4624176 142.48362732 C51.15496937 146.4102506 48.96769365 150.40640583 46.75587463 154.38768005 C63.25587463 154.38768005 79.75587463 154.38768005 96.75587463 154.38768005 C98.81488886 158.5057085 99.01252692 160.28145105 99.02149963 164.76268005 C99.02536682 166.61119568 99.02536682 166.61119568 99.02931213 168.49705505 C99.02157776 169.7809613 99.01384338 171.06486755 99.00587463 172.38768005 C99.0174762 174.31353943 99.0174762 174.31353943 99.02931213 176.27830505 C99.02673401 177.5106488 99.02415588 178.74299255 99.02149963 180.01268005 C99.01924377 181.13932068 99.01698792 182.2659613 99.0146637 183.42674255 C98.75587463 186.38768005 98.75587463 186.38768005 96.75587463 190.38768005 C61.77587463 190.38768005 26.79587463 190.38768005 -9.24412537 190.38768005 C-12.33082409 184.21428262 -15.05828103 178.22404736 -17.55662537 171.82518005 C-17.9285199 170.91832458 -18.30041443 170.01146912 -18.68357849 169.07713318 C-19.02969177 168.18832458 -19.37580505 167.29951599 -19.73240662 166.3837738 C-20.20480774 165.19545959 -20.20480774 165.19545959 -20.68675232 163.98313904 C-22.05066992 157.63193096 -19.72137308 152.73855994 -16.44725037 147.44236755 C-16.06244003 146.79932678 -15.6776297 146.15628601 -15.28115845 145.49375916 C-14.03003899 143.40972425 -12.76245556 141.33627704 -11.49412537 139.26268005 C-10.61698931 137.80961893 -9.74077579 136.35600054 -8.86546326 134.90184021 C-3.69738914 126.3353468 1.54266852 117.81217067 6.83985901 109.32493591 C11.4822425 101.87693173 15.9999473 94.35611319 20.50587463 86.82518005 C28.65955604 73.19786769 36.88276578 59.61410073 45.14039612 46.04954529 C46.68734931 43.50059098 48.22422139 40.94585143 49.75587463 38.38768005 C46.17281471 38.27140502 42.59024046 38.20040646 39.00587463 38.13768005 C37.99009338 38.10416443 36.97431213 38.0706488 35.92774963 38.03611755 C30.34499914 37.87292557 30.34499914 37.87292557 25.28321838 39.8603363 C23.11369946 43.45030752 21.56568421 47.16390732 20.06837463 51.07518005 C16.84540166 59.29815303 16.84540166 59.29815303 15.75587463 60.38768005 C9.11572037 59.89728942 2.82999929 58.62736402 -3.61912537 57.01268005 C-4.50728943 56.80385193 -5.39545349 56.5950238 -6.31053162 56.37986755 C-7.16260193 56.1684613 -8.01467224 55.95705505 -8.89256287 55.73924255 C-9.65746033 55.55184509 -10.42235779 55.36444763 -11.21043396 55.17137146 C-13.63167864 54.23833479 -14.78459533 53.54839501 -16.24412537 51.38768005 C-16.22044373 48.88816833 -16.22044373 48.88816833 -15.64646912 45.83299255 C-15.33105164 44.09130798 -15.33105164 44.09130798 -15.00926208 42.31443787 C-14.88605591 41.68251526 -14.76284973 41.05059265 -14.63591003 40.39952087 C-14.22712567 38.30038547 -13.84165759 36.19786407 -13.4594574 34.09373474 C-12.75709532 30.2627731 -12.01983721 26.43955049 -11.26731873 22.6181488 C-10.95688152 21.03092138 -10.65164751 19.44266851 -10.3513031 17.85350037 C-9.91139798 15.52662754 -9.45650772 13.20314329 -8.99803162 10.87986755 C-8.86667313 10.17055084 -8.73531464 9.46123413 -8.59997559 8.73042297 C-7.45458778 3.07880598 -6.07505385 0.01964051 0 0 Z " fill="#1C1C1C" transform="translate(1077.244125366211,336.61231994628906)"/>
<path d="M0 0 C1.55802008 3.08942915 2.41038489 6.34923764 3.328125 9.67578125 C3.78138657 11.22204445 3.78138657 11.22204445 4.24380493 12.79954529 C5.26474525 16.29868076 6.25683519 19.80538859 7.25 23.3125 C7.97466593 25.81407404 8.70145191 28.31503474 9.43017578 30.81542969 C10.83875292 35.65369405 12.23959245 40.49409814 13.63253975 45.33688545 C16.80729443 56.37172817 20.04265772 67.38839538 23.2890625 78.40234375 C23.56022385 79.32245554 23.83138519 80.24256733 24.11076355 81.19056129 C25.21269585 84.92953362 26.31470581 88.668483 27.41702271 92.40734196 C29.28362214 98.73955293 31.14568947 105.07308158 33.00488281 111.4074707 C33.38589897 112.70499661 33.38589897 112.70499661 33.77461243 114.02873516 C35.03251327 118.31269104 36.28903612 122.59704245 37.54309082 126.88212585 C40.05189662 135.44399423 42.59813241 143.99256468 45.20410156 152.52539062 C45.97496549 155.0638715 46.74502668 157.6025945 47.51483536 160.14139557 C48.23718146 162.51046173 48.97139022 164.8756271 49.70602417 167.24090576 C50.14463107 168.68548435 50.58266176 170.13023805 51.02001953 171.57519531 C51.59552048 173.44368134 51.59552048 173.44368134 52.18264771 175.34991455 C53.10231861 179.45692862 53.21703191 182.80679983 53 187 C51.36639151 188.63360849 49.50721669 188.16046243 47.25244141 188.19287109 C46.24114166 188.20893402 45.22984192 188.22499695 44.18789673 188.24154663 C39.55853794 188.28579708 34.92932523 188.32705592 30.29980469 188.35009766 C27.85341898 188.36667561 25.40708207 188.39398939 22.9609375 188.43212891 C19.44505531 188.48670861 15.93031044 188.50874281 12.4140625 188.5234375 C11.31712067 188.54610687 10.22017883 188.56877625 9.08999634 188.59213257 C7.56359024 188.58785751 7.56359024 188.58785751 6.00634766 188.58349609 C5.11001617 188.59158295 4.21368469 188.5996698 3.29019165 188.60800171 C1 188 1 188 -0.68302917 185.85620117 C-2.07308009 182.8415064 -3.12086413 179.89677501 -4.07788086 176.71728516 C-4.65066269 174.83268837 -4.65066269 174.83268837 -5.23501587 172.91001892 C-5.64507004 171.53640007 -6.05500935 170.16274693 -6.46484375 168.7890625 C-6.89858494 167.35357873 -7.33295478 165.91828478 -7.76791382 164.48316956 C-8.68873407 161.44056937 -9.60541284 158.39676579 -10.51870728 155.35189819 C-11.93654373 150.62495864 -13.36321671 145.9007188 -14.79174805 141.17700195 C-16.20987899 136.48645078 -17.62761774 131.79578531 -19.04212952 127.10414124 C-22.75654253 114.78547477 -26.51681366 102.48137985 -30.3125 90.1875 C-30.80790917 88.58090668 -31.30327242 86.9742992 -31.79858398 85.36767578 C-32.86446416 81.91139448 -33.93166946 78.45552482 -35 75 C-39.66493652 88.44698124 -43.88196901 102.01809332 -48.01171875 115.63671875 C-48.41421026 116.9632868 -48.41421026 116.9632868 -48.82483292 118.31665421 C-51.35659549 126.66423508 -53.88048668 135.01419113 -56.40161133 143.36499023 C-57.7935218 147.97446394 -59.18976287 152.58260871 -60.58851051 157.19001198 C-61.11443936 158.92565596 -61.63869032 160.66180939 -62.16113853 162.39850426 C-67.3621041 179.68709127 -67.3621041 179.68709127 -71 188 C-75.96622349 188.02465098 -80.93241166 188.04283649 -85.89868164 188.05493164 C-87.58944316 188.0599719 -89.28020029 188.06680405 -90.97094727 188.07543945 C-93.39600707 188.08751857 -95.82100944 188.09323123 -98.24609375 188.09765625 C-99.38672523 188.10539818 -99.38672523 188.10539818 -100.55039978 188.11329651 C-102.3673257 188.11349238 -104.18413127 188.06197277 -106 188 C-107 187 -107 187 -107.24438477 184.06738281 C-107.16127109 179.09505807 -105.60149211 174.62026632 -104.08984375 169.921875 C-103.77521683 168.9154747 -103.4605899 167.9090744 -103.13642883 166.87217712 C-102.44518276 164.66491753 -101.74939828 162.4590754 -101.04968262 160.25448608 C-99.30892875 154.76937276 -97.595281 149.27580027 -95.87746811 143.78346825 C-95.2524645 141.78684278 -94.62614537 139.7906339 -93.99954224 137.79450989 C-89.17182588 122.40649857 -84.4588209 106.98344294 -79.74130249 91.56137085 C-77.29210413 83.55542616 -74.8373609 75.55118068 -72.3828125 67.546875 C-72.14838377 66.78232687 -71.91395504 66.01777874 -71.67242241 65.23006248 C-67.77669202 52.52523643 -63.87706105 39.82162251 -59.95495605 27.12490845 C-59.40756491 25.35244883 -58.86075817 23.57980861 -58.3145752 21.80697632 C-57.58907089 19.45280347 -56.86135081 17.09932913 -56.1328125 14.74609375 C-55.92671356 14.07608337 -55.72061462 13.406073 -55.50827026 12.71575928 C-54.78701746 10.39371309 -54.08944532 8.17889063 -53 6 C-50.55514593 5.41537762 -48.18037236 4.95715118 -45.703125 4.5625 C-44.95851013 4.43689697 -44.21389526 4.31129395 -43.44671631 4.18188477 C-41.04911253 3.77960687 -38.64966721 3.38975946 -36.25 3 C-34.67825288 2.73777236 -33.10663642 2.47476025 -31.53515625 2.2109375 C-28.46460963 1.6970627 -25.3924476 1.19535011 -22.31835938 0.703125 C-19.58286162 0.26423295 -16.86126537 -0.20714728 -14.13476562 -0.703125 C-12.99201172 -0.90421875 -11.84925781 -1.1053125 -10.671875 -1.3125 C-9.19605957 -1.58513672 -9.19605957 -1.58513672 -7.69042969 -1.86328125 C-4.28153298 -2.03651012 -2.8312228 -1.98214965 0 0 Z " fill="#1C1C1C" transform="translate(737,339)"/>
<path d="M0 0 C0.95108643 -0.00622879 1.90217285 -0.01245758 2.88208008 -0.01887512 C3.90712646 -0.00966537 4.93217285 -0.00045563 5.98828125 0.0090332 C7.04233154 0.0085347 8.09638184 0.00803619 9.18237305 0.00752258 C11.41164026 0.00986382 13.64091008 0.01959519 15.87011719 0.03613281 C19.28734918 0.05972173 22.70380106 0.05669438 26.12109375 0.05004883 C28.28516091 0.0556256 30.44922478 0.06273547 32.61328125 0.0715332 C33.63832764 0.0706218 34.66337402 0.06971039 35.71948242 0.06877136 C37.14611206 0.08306938 37.14611206 0.08306938 38.6015625 0.09765625 C39.43856689 0.10226364 40.27557129 0.10687103 41.13793945 0.11161804 C43.30078125 0.37231445 43.30078125 0.37231445 46.30078125 2.37231445 C46.66992474 4.99225044 46.66992474 4.99225044 46.6615448 8.3833313 C46.66566879 9.66503204 46.66979279 10.94673279 46.67404175 12.26727295 C46.66342357 13.69568079 46.65251913 15.12408653 46.64135742 16.55249023 C46.64051159 18.05030297 46.64098543 19.54811695 46.64268494 21.04592896 C46.64354804 25.12016898 46.62587162 29.19414571 46.60496306 33.26832438 C46.58624852 37.52309756 46.58444996 41.77787633 46.58088684 46.03268433 C46.57155098 54.09335029 46.54691642 62.15389465 46.51683837 70.21450698 C46.48334223 79.38969418 46.46682042 88.56488709 46.45175207 97.74012017 C46.42036815 116.6175873 46.3675778 135.49494111 46.30078125 154.37231445 C51.33696872 154.35287266 56.37141398 154.30109295 61.40698242 154.21972656 C63.11879984 154.1965742 64.83075915 154.1821573 66.54272461 154.17675781 C69.00854623 154.16744742 71.47214499 154.12641666 73.9375 154.0793457 C75.07997444 154.08524467 75.07997444 154.08524467 76.24552917 154.09126282 C80.27589781 153.98136237 82.08824632 153.54620247 85.24784851 150.96113586 C87.05819391 148.67822574 88.27198448 146.85804733 89.3203125 144.1652832 C89.62001953 143.4144043 89.91972656 142.66352539 90.22851562 141.88989258 C90.52048828 141.1209668 90.81246094 140.35204102 91.11328125 139.55981445 C91.58024414 138.37742187 91.58024414 138.37742187 92.05664062 137.17114258 C92.81631445 135.24273979 93.56018006 133.30812217 94.30078125 131.37231445 C101.37632226 130.97309425 107.43787007 132.44194539 114.23828125 134.30981445 C115.29080078 134.58760742 116.34332031 134.86540039 117.42773438 135.15161133 C125.14861662 137.22014983 125.14861662 137.22014983 126.30078125 138.37231445 C126.59650555 144.48121971 125.81324893 150.03810171 124.62109375 156.0168457 C124.36185623 157.35425056 124.36185623 157.35425056 124.09738159 158.71867371 C123.73281741 160.58921003 123.36452541 162.45902333 122.99267578 164.328125 C122.42440207 167.19176441 121.87160229 170.05809691 121.3203125 172.92504883 C120.96315697 174.74749448 120.60511522 176.56976672 120.24609375 178.3918457 C119.99909225 179.67621269 119.99909225 179.67621269 119.74710083 180.98652649 C119.58708588 181.78132919 119.42707092 182.5761319 119.26220703 183.39501953 C119.12452911 184.09258865 118.9868512 184.79015778 118.84500122 185.50886536 C118.30078125 187.37231445 118.30078125 187.37231445 116.30078125 190.37231445 C114.154953 190.74704456 114.154953 190.74704456 111.44213867 190.74653625 C110.41575287 190.75355057 109.38936707 190.76056488 108.33187866 190.76779175 C107.2014212 190.76014801 106.07096375 190.75250427 104.90625 190.74462891 C103.71923492 190.74827957 102.53221985 190.75193024 101.30923462 190.75569153 C98.04885868 190.76242192 94.78885304 190.75566376 91.52850723 190.7423594 C88.12081087 190.73106231 84.71312962 190.73515105 81.30541992 190.73710632 C75.5821441 190.73798986 69.85898659 190.72689666 64.13574219 190.70849609 C57.5135134 190.6873275 50.891458 190.68381821 44.26920223 190.69005805 C37.90573265 190.69574768 31.54232428 190.69011082 25.17886353 190.67888451 C22.46756867 190.67423317 19.75631119 190.67336697 17.04501343 190.67547035 C13.26167729 190.67583951 9.47860863 190.6632624 5.6953125 190.64697266 C4.56485504 190.64945007 3.43439758 190.65192749 2.26968384 190.65447998 C1.24329803 190.64739517 0.21691223 190.64031036 -0.84057617 190.63301086 C-1.7358049 190.63095799 -2.63103363 190.62890512 -3.5533905 190.62679005 C-5.69921875 190.37231445 -5.69921875 190.37231445 -7.69921875 188.37231445 C-7.89873689 185.92068796 -7.97293647 183.58164643 -7.95991516 181.12867737 C-7.96374071 180.37362803 -7.96756626 179.61857869 -7.97150773 178.84064907 C-7.98187024 176.29717938 -7.97783948 173.75393406 -7.97387695 171.21044922 C-7.97822164 169.39238271 -7.98340397 167.57431803 -7.98936462 165.7562561 C-8.00279217 160.80796329 -8.00332913 155.85974667 -8.00080132 150.91143918 C-7.99973414 146.78597041 -8.00460849 142.66051721 -8.00940675 138.53505176 C-8.02051495 128.80525711 -8.02093198 119.07550106 -8.01489258 109.34570312 C-8.00885065 99.29595178 -8.02116637 89.24634036 -8.04246265 79.19661289 C-8.06005477 70.57917814 -8.06608378 61.96178803 -8.0628249 53.34433597 C-8.06100806 48.19272526 -8.063688 43.04121435 -8.07753944 37.88961983 C-8.09007437 33.04611171 -8.08821499 28.20282236 -8.07512856 23.35931778 C-8.07275372 21.57869965 -8.07552971 19.79806632 -8.08375168 18.01746559 C-8.09414464 15.59236487 -8.08617926 13.16800838 -8.07344055 10.74293518 C-8.08081484 10.03321251 -8.08818912 9.32348984 -8.09578687 8.59226042 C-8.06375428 5.70675393 -8.0201965 3.82024494 -6.3110075 1.43503952 C-4.12164376 -0.0085068 -2.61399226 -0.00196572 0 0 Z " fill="#1C1C1C" transform="translate(823.69921875,336.627685546875)"/>
<path d="M0 0 C1.42662964 -0.00945648 1.42662964 -0.00945648 2.88208008 -0.019104 C3.90712646 -0.01505554 4.93217285 -0.01100708 5.98828125 -0.00683594 C7.04233154 -0.00874939 8.09638184 -0.01066284 9.18237305 -0.01263428 C11.41162352 -0.01399569 13.64088193 -0.01030232 15.87011719 -0.00195312 C19.28729009 0.00874682 22.70393725 -0.0018501 26.12109375 -0.01464844 C28.28515741 -0.01332684 30.44922075 -0.01076443 32.61328125 -0.00683594 C34.15085083 -0.01290863 34.15085083 -0.01290863 35.71948242 -0.019104 C36.67056885 -0.01279968 37.62165527 -0.00649536 38.6015625 0 C39.43856689 0.00159119 40.27557129 0.00318237 41.13793945 0.00482178 C43.30078125 0.25878906 43.30078125 0.25878906 46.30078125 2.25878906 C46.59761693 4.78371827 46.69651135 7.06438282 46.66827393 9.59181213 C46.67154277 10.35643971 46.67481161 11.12106728 46.6781795 11.90886539 C46.68549368 14.4847709 46.67127157 17.06011509 46.65722656 19.63598633 C46.65801696 21.47700091 46.66011274 23.31801532 46.66342163 25.1590271 C46.66856882 30.1692257 46.65499448 35.17921995 46.63789463 40.18938565 C46.62289609 45.42198275 46.62403356 50.65457678 46.62322998 55.88719177 C46.61953391 64.67474879 46.60454878 73.46222786 46.58203125 82.24975586 C46.55314807 93.54483551 46.54280792 104.83985237 46.53834915 116.13496494 C46.5343749 125.82606554 46.5218722 135.51715236 46.50800228 145.20824313 C46.50389598 148.33301242 46.50097408 151.45778122 46.49820709 154.58255196 C46.4933271 159.48345316 46.4831458 164.38431595 46.46876907 169.28519821 C46.46423217 171.08922796 46.46140414 172.89326289 46.46036148 174.69729805 C46.45862583 177.14915432 46.45076975 179.6009132 46.44122314 182.05274963 C46.44208963 182.77607988 46.44295611 183.49941013 46.44384885 184.24465948 C46.41498856 189.14458175 46.41498856 189.14458175 45.30078125 190.25878906 C43.71562547 190.36253864 42.12588659 190.39730796 40.53735352 190.40405273 C39.52282608 190.41043259 38.50829865 190.41681244 37.46302795 190.42338562 C36.3589006 190.42449844 35.25477325 190.42561127 34.1171875 190.42675781 C32.9913475 190.43008621 31.86550751 190.43341461 30.70555115 190.43684387 C28.31892304 190.441918 25.9322878 190.44425205 23.5456543 190.4440918 C19.88253151 190.44627758 16.21971003 190.46442646 12.55664062 190.48339844 C10.24349062 190.48633232 7.93033917 190.48831715 5.6171875 190.48925781 C3.96403282 190.50003609 3.96403282 190.50003609 2.27748108 190.5110321 C1.25980148 190.50795547 0.24212189 190.50487885 -0.80639648 190.50170898 C-2.15422462 190.50384651 -2.15422462 190.50384651 -3.52928162 190.50602722 C-5.69921875 190.25878906 -5.69921875 190.25878906 -7.69921875 188.25878906 C-7.89875617 185.79248958 -7.97293078 183.4381048 -7.95991516 180.97045898 C-7.96374071 180.21062053 -7.96756626 179.45078207 -7.97150773 178.66791821 C-7.98187037 176.10829544 -7.97783947 173.54889563 -7.97387695 170.98925781 C-7.9782216 169.15971671 -7.98340391 167.33017742 -7.98936462 165.50064087 C-8.0027917 160.52142458 -8.00332925 155.54228401 -8.00080132 150.56305313 C-7.99973425 146.41263685 -8.00460814 142.26223606 -8.00940675 138.11182308 C-8.02051449 128.32453702 -8.02093204 118.53728933 -8.01489258 108.75 C-8.00884877 98.63774502 -8.02117125 88.52562904 -8.04246265 78.41339779 C-8.06004767 69.74417448 -8.06608497 61.07499554 -8.0628249 52.40575504 C-8.06100714 47.22231838 -8.06369718 42.03898089 -8.07753944 36.8555603 C-8.09006311 31.98332853 -8.08822582 27.11131436 -8.07512856 22.23908615 C-8.07275135 20.44676009 -8.07553804 18.65441896 -8.08375168 16.86211014 C-8.09412474 14.42352288 -8.08619567 11.98567866 -8.07344055 9.54711914 C-8.08081484 8.83059268 -8.08818912 8.11406622 -8.09578687 7.37582684 C-8.07394886 5.40412903 -8.07394886 5.40412903 -7.69921875 2.25878906 C-4.49872565 0.125127 -3.67559137 0.00698748 0 0 Z " fill="#1C1C1C" transform="translate(983.69921875,336.7412109375)"/>
<path d="M0 0 C4.62 0 9.24 0 14 0 C17.15675923 3.36084585 18.56432312 5.31239778 20.4375 9.3125 C21.3509133 11.05961529 22.26629289 12.80570394 23.18359375 14.55078125 C24.11300781 16.34902344 25.04242187 18.14726563 26 20 C28.31 23.63 30.62 27.26 33 31 C33.33 20.77 33.66 10.54 34 0 C38.29 0 42.58 0 47 0 C47 18.15 47 36.3 47 55 C42.71 55 38.42 55 34 55 C31.29908013 52.15692645 29.79090818 50.25990063 28.04150391 46.92431641 C26.24699723 43.60872765 24.25041176 40.41369611 22.29321289 37.19238281 C20.20322037 33.74097411 18.15172775 30.26738552 16.10400391 26.79077148 C15.12423448 25.04728899 15.12423448 25.04728899 14 24 C13.67 34.23 13.34 44.46 13 55 C8.71 55 4.42 55 0 55 C0 36.85 0 18.7 0 0 Z " fill="#1C1C1C" transform="translate(633,580)"/>
<path d="M0 0 C5.445 -0.0825 10.89 -0.165 16.5 -0.25 C18.20220703 -0.28641602 19.90441406 -0.32283203 21.65820312 -0.36035156 C29.2692657 -0.45573201 35.54277935 -0.5217017 42 4 C45.58407762 7.67367956 46.27015703 10.58237316 46.4375 15.5625 C46.23225974 20.96471686 44.98745668 23.8653243 41.3125 27.8125 C40.879375 28.204375 40.44625 28.59625 40 29 C40.61875 29.639375 41.2375 30.27875 41.875 30.9375 C44.61425458 34.88524924 45.22007608 38.32045651 46 43 C46.185625 44.0725 46.37125 45.145 46.5625 46.25 C47.05733846 49.16404874 47.53040099 52.08177761 48 55 C43.71 55 39.42 55 35 55 C34.71125 53.700625 34.4225 52.40125 34.125 51.0625 C33.94066406 50.2478125 33.75632812 49.433125 33.56640625 48.59375 C33.1945252 46.89079126 32.84729801 45.18222403 32.52734375 43.46875 C32.29724609 42.27765625 32.29724609 42.27765625 32.0625 41.0625 C31.92972656 40.33160156 31.79695312 39.60070312 31.66015625 38.84765625 C31.06989856 36.61550219 31.06989856 36.61550219 28 35 C25.40393086 34.69925319 22.91446877 34.49204838 20.3125 34.375 C17.899375 34.25125 15.48625 34.1275 13 34 C13 40.93 13 47.86 13 55 C8.71 55 4.42 55 0 55 C0 36.85 0 18.7 0 0 Z M13 10 C13 14.95 13 19.9 13 25 C15.3925 25.04125 17.785 25.0825 20.25 25.125 C20.99668945 25.14320801 21.74337891 25.16141602 22.51269531 25.18017578 C26.17143856 25.21068171 28.96432456 25.14901776 32 23 C33.52491998 19.95016004 33.23562548 17.3576631 33 14 C31.16884793 11.38406847 30.09031634 11.03010545 27 10 C22.33032246 9.86409553 17.67262015 9.95713193 13 10 Z " fill="#1C1C1C" transform="translate(894,580)"/>
<path d="M0 0 C5.445 -0.0825 10.89 -0.165 16.5 -0.25 C18.20220703 -0.28641602 19.90441406 -0.32283203 21.65820312 -0.36035156 C29.2692657 -0.45573201 35.54277935 -0.5217017 42 4 C45.56444501 7.65355613 46.26945797 10.54612105 46.4375 15.5 C46.26637342 19.9920726 45.61064441 23.22906919 43 27 C42.01 27.66 41.02 28.32 40 29 C40.61875 29.639375 41.2375 30.27875 41.875 30.9375 C44.61425458 34.88524924 45.22007608 38.32045651 46 43 C46.185625 44.0725 46.37125 45.145 46.5625 46.25 C47.05733846 49.16404874 47.53040099 52.08177761 48 55 C43.71 55 39.42 55 35 55 C34.71125 53.700625 34.4225 52.40125 34.125 51.0625 C33.94066406 50.2478125 33.75632812 49.433125 33.56640625 48.59375 C33.1945252 46.89079126 32.84729801 45.18222403 32.52734375 43.46875 C32.29724609 42.27765625 32.29724609 42.27765625 32.0625 41.0625 C31.92972656 40.33160156 31.79695313 39.60070312 31.66015625 38.84765625 C31.06989856 36.61550219 31.06989856 36.61550219 28 35 C25.40393086 34.69925319 22.91446877 34.49204838 20.3125 34.375 C17.899375 34.25125 15.48625 34.1275 13 34 C13 40.93 13 47.86 13 55 C8.71 55 4.42 55 0 55 C0 36.85 0 18.7 0 0 Z M13 10 C13 14.95 13 19.9 13 25 C15.3925 25.04125 17.785 25.0825 20.25 25.125 C20.99668945 25.14320801 21.74337891 25.16141602 22.51269531 25.18017578 C26.17143856 25.21068171 28.96432456 25.14901776 32 23 C33.50934217 19.98131566 33.17510672 17.32702771 33 14 C31.38923988 10.97694979 31.38923988 10.97694979 29.328125 10.31640625 C23.941494 9.58433056 18.41836236 9.94982998 13 10 Z " fill="#1C1C1C" transform="translate(1256,580)"/>
<path d="M0 0 C7.06832885 4.41002256 11.32330381 10.72651013 13.84375 18.5703125 C15.89179318 27.71336242 15.0453645 36.63289237 10.17578125 44.69140625 C5.56691751 51.25994434 0.4628992 54.88042728 -7.5 56.5 C-14.8431056 57.26799453 -21.5051913 56.17737179 -27.703125 52.0234375 C-33.41169372 47.39315398 -36.20677683 42.3796695 -38.5 35.5 C-39.25345349 24.6181554 -38.6379612 16.15029479 -32.75 6.6875 C-24.33059884 -1.49802891 -11.10903423 -4.9738674 0 0 Z M-22.5 14.5 C-25.85183766 19.70112741 -27.10130456 24.98344208 -26.0625 31.05859375 C-24.39362702 37.44013644 -21.98924294 40.94122185 -16.625 44.875 C-13.24496055 45.86912925 -10.89131751 45.37706487 -7.5 44.5 C-2.51531077 41.24078012 -0.18359753 38.20552497 1.5 32.5 C2.2334896 26.17365224 1.70160229 21.13040403 -1.5 15.5 C-5.08042795 11.4829345 -6.86539824 9.66346018 -12.25 9.125 C-17.01206747 9.19414073 -19.24413974 11.0169867 -22.5 14.5 Z " fill="#1C1C1C" transform="translate(1198.5,580.5)"/>
<path d="M0 0 C5.59578749 4.32782815 9.77748445 10.6168422 11.0859375 17.61328125 C12.06114788 29.15929059 11.20416838 37.783736 3.7109375 46.98828125 C-1.70686984 52.81126649 -7.47459565 54.55798119 -15.2265625 54.86328125 C-22.36811254 54.76837693 -28.36100789 52.05572494 -33.9140625 47.61328125 C-39.77370303 41.38741319 -41.99153451 33.58843529 -42.3515625 25.17578125 C-42.05092436 16.30695609 -39.0257825 8.6382973 -32.8046875 2.2734375 C-23.7599542 -5.66873533 -10.34106604 -6.09813695 0 0 Z M-24.9140625 11.61328125 C-28.78128985 17.51020246 -30.02193077 23.66392575 -28.9140625 30.61328125 C-27.23051044 35.84399647 -24.7493751 39.80205299 -19.9140625 42.61328125 C-16.0010781 43.68045881 -13.67914163 43.84280499 -9.7890625 42.67578125 C-4.74043647 39.05394084 -1.92792493 34.38686633 -0.9140625 28.23828125 C-0.58284097 22.24524165 -1.73997099 16.49868502 -5.39453125 11.6484375 C-8.3322078 8.79142942 -10.84149475 7.24177199 -14.9765625 6.98828125 C-19.52621626 7.71044851 -21.5420365 8.47116611 -24.9140625 11.61328125 Z " fill="#1C1C1C" transform="translate(577.9140625,582.38671875)"/>
<path d="M0 0 C4.49097891 2.64526878 6.43939621 5.08445837 8.3125 9.9375 C8.36581438 11.93678927 8.37435507 13.93845674 8.3125 15.9375 C4.25871134 16.2816896 0.35290512 16.48673407 -3.6875 15.9375 C-5.875 13 -5.875 13 -7.6875 9.9375 C-12.1091245 8.54381723 -16.2676319 8.64167503 -20.6875 9.9375 C-20.6875 11.9175 -20.6875 13.8975 -20.6875 15.9375 C-16.4060439 17.98092223 -12.38823542 19.28374056 -7.75 20.3125 C-1.00340429 21.91883231 4.67653031 24.66996343 9.3125 29.9375 C11.16211854 35.48635563 11.11147602 40.8790324 8.6875 46.25 C6.16083679 50.6782634 3.10792967 53.03507929 -1.79296875 54.6171875 C-10.96896338 56.92303124 -20.21594008 56.76345366 -28.55078125 51.8359375 C-32.1263208 49.08552246 -34.17168179 46.14810615 -35.6875 41.9375 C-35.875 38.0625 -35.875 38.0625 -35.6875 34.9375 C-31.7275 34.9375 -27.7675 34.9375 -23.6875 34.9375 C-22.7109375 37.57421875 -22.7109375 37.57421875 -21.734375 40.2109375 C-20.3475419 42.49817717 -19.19324806 43.04163963 -16.6875 43.9375 C-14.20013746 44.25173015 -14.20013746 44.25173015 -11.625 44.1875 C-10.76777344 44.19265625 -9.91054688 44.1978125 -9.02734375 44.203125 C-6.41697202 44.08742488 -6.41697202 44.08742488 -3.6875 41.9375 C-3.10399495 39.48040625 -3.10399495 39.48040625 -3.6875 36.9375 C-7.60280286 33.01202752 -13.12226107 32.25803035 -18.3125 30.91992188 C-23.88485298 29.39884672 -28.20886051 27.24519884 -32.5 23.25 C-35.05513074 18.27421908 -35.13076468 13.50196358 -33.625 8.1875 C-26.72234625 -3.391145 -11.76172679 -5.32078117 0 0 Z " fill="#1C1C1C" transform="translate(758.6875,581.0625)"/>
<path d="M0 0 C4.29 0 8.58 0 13 0 C13.01981934 1.09465576 13.03963867 2.18931152 13.06005859 3.31713867 C13.13629437 7.38947029 13.2249838 11.46145296 13.31738281 15.53344727 C13.35559841 17.29379371 13.39046413 19.05421626 13.421875 20.81469727 C13.46768714 23.34939725 13.52565417 25.88357664 13.5859375 28.41796875 C13.59748871 29.20149216 13.60903992 29.98501556 13.62094116 30.7922821 C13.73201796 34.93125796 14.04604775 38.31395861 16 42 C18.35886273 44.14442066 20.02540246 44.95717937 23.22265625 45.09765625 C27.81558429 44.88862068 27.81558429 44.88862068 31.59838867 42.52661133 C33.70540171 38.72840928 33.47971438 35.13822528 33.51171875 30.859375 C33.52966995 29.97719299 33.54762115 29.09501099 33.56611633 28.18609619 C33.62020971 25.37411245 33.65411176 22.56229835 33.6875 19.75 C33.72067395 17.84112223 33.75516368 15.93226685 33.79101562 14.0234375 C33.87593561 9.34908075 33.94275141 4.67477424 34 0 C38.29 0 42.58 0 47 0 C47.07451939 5.69251691 47.12877612 11.38474575 47.16479492 17.07763672 C47.17982075 19.01160635 47.20024726 20.94554226 47.22631836 22.87939453 C47.26297591 25.66968136 47.27978868 28.45951511 47.29296875 31.25 C47.30845261 32.10553467 47.32393646 32.96106934 47.33988953 33.8425293 C47.34164437 40.19492146 46.42470834 45.8202559 42.45703125 51.0234375 C35.40339409 56.82048847 27.98940044 57.8677551 19 57 C12.66362795 55.81942413 8.04775836 54.2743518 4 49 C0.02375844 42.32559453 -0.14769044 35.86585957 -0.09765625 28.3203125 C-0.0962413 27.50754852 -0.09482635 26.69478455 -0.09336853 25.85739136 C-0.08780335 23.27988899 -0.0752574 20.7024758 -0.0625 18.125 C-0.0574805 16.36979293 -0.05291838 14.61458448 -0.04882812 12.859375 C-0.03784534 8.57288268 -0.02060492 4.28645643 0 0 Z " fill="#1C1C1C" transform="translate(985,580)"/>
<path d="M0 0 C5.96551569 3.44390791 9.78054925 8.74274527 12.5 15 C12.5 15.99 12.5 16.98 12.5 18 C1.0018927 19.0747489 1.0018927 19.0747489 -2.62890625 16.4765625 C-4.0640532 14.71410133 -5.26987644 12.90692017 -6.5 11 C-9.70594435 9.39702782 -13.01469204 9.65751309 -16.5 10 C-20.53542709 11.37571378 -21.96753469 13.44149784 -23.8125 17.125 C-26.56530387 24.0293902 -26.39860696 30.44168281 -23.47265625 37.2734375 C-21.9059856 40.0544352 -20.26271279 41.43027683 -17.5 43 C-13.5870156 44.06717756 -11.26507913 44.22952374 -7.375 43.0625 C-4.37311655 40.90897491 -3.93698515 40.00385707 -2.4375 36.8125 C-1.265625 34.67578125 -1.265625 34.67578125 0.5 33 C4.90288746 32.28587313 9.07783978 32.53382791 13.5 33 C11.87047293 41.1306611 8.67292612 46.44906073 2.5 52 C-4.16450108 56.18164774 -11.88513617 57.15041383 -19.578125 55.57421875 C-26.15111522 53.46516874 -31.43590673 49.32094213 -35.078125 43.4609375 C-39.60085081 34.64941997 -40.92692316 26.60233062 -38.375 16.875 C-36.05125373 9.90376119 -31.68921293 4.02298841 -25.5 0 C-17.36762341 -3.19486223 -8.06523593 -3.62935617 0 0 Z " fill="#1C1C1C" transform="translate(482.5,581)"/>
<path d="M0 0 C4.29 0 8.58 0 13 0 C17.72620552 11.56530291 22.26602099 23.19858129 26.67810059 34.88696289 C27.22596814 36.33714789 27.77552904 37.78669429 28.32678223 39.2355957 C29.10834211 41.29191117 29.88321606 43.35062289 30.65625 45.41015625 C31.10806641 46.60777588 31.55988281 47.80539551 32.02539062 49.03930664 C33 52 33 52 33 55 C28.71 55 24.42 55 20 55 C18.02 49.555 18.02 49.555 16 44 C9.73 44 3.46 44 -3 44 C-4.32 47.63 -5.64 51.26 -7 55 C-11.29 55 -15.58 55 -20 55 C-19.11343269 50.56716346 -17.84969536 46.58678428 -16.26953125 42.3828125 C-15.99662766 41.64860077 -15.72372406 40.91438904 -15.44255066 40.15792847 C-14.86346886 38.60234146 -14.28256077 37.04743325 -13.69995117 35.49316406 C-12.82894011 33.16887046 -11.96376218 30.84247587 -11.09960938 28.515625 C-7.53790965 18.95332273 -3.83703502 9.45508289 0 0 Z M6 16 C5.16080602 18.26882087 4.32848276 20.53977027 3.5 22.8125 C3.26152344 23.45509766 3.02304688 24.09769531 2.77734375 24.75976562 C1.72931254 27.64933739 1 29.90076061 1 33 C4.96 33 8.92 33 13 33 C11.02 27.39 9.04 21.78 7 16 C6.67 16 6.34 16 6 16 Z " fill="#1C1C1C" transform="translate(1362,580)"/>
<path d="M0 0 C14.85 0 29.7 0 45 0 C45 4.29 45 8.58 45 13 C39.72 13 34.44 13 29 13 C29 26.86 29 40.72 29 55 C24.71 55 20.42 55 16 55 C16 41.14 16 27.28 16 13 C10.72 13 5.44 13 0 13 C0 8.71 0 4.42 0 0 Z " fill="#1C1C1C" transform="translate(1074,580)"/>
<path d="M0 0 C15.18 0 30.36 0 46 0 C46 4.29 46 8.58 46 13 C40.39 13 34.78 13 29 13 C29 26.86 29 40.72 29 55 C25.04 55 21.08 55 17 55 C17 41.14 17 27.28 17 13 C11.39 13 5.78 13 0 13 C0 8.71 0 4.42 0 0 Z " fill="#1C1C1C" transform="translate(807,580)"/>
</svg>
