<?xml version="1.0" encoding="UTF-8"?>
<svg version="1.1" xmlns="http://www.w3.org/2000/svg" width="4096" height="1530">
<path d="M0 0 C3.29554583 0.01175511 6.59106897 0.01824297 9.88663101 0.02360535 C43.06665813 0.08663655 76.08385797 0.66451149 109.16724014 3.38652039 C111.01991167 3.5329004 112.87261345 3.67889812 114.72534561 3.82450867 C199.23941781 10.56928064 282.96213914 26.63836051 438.16724014 84.38652039 C439.08891983 84.81722839 440.01059952 85.2479364 440.96020889 85.69169617 C467.83662919 98.29112768 493.82785987 111.93548283 519.16724014 127.38652039 C521.02788021 128.51027959 522.88855548 129.63398052 524.74927139 130.75761414 C543.12984753 141.92965604 561.49430952 153.83222658 578.40942764 167.15214539 C580.08204467 168.57808114 580.08204467 168.57808114 582.16724014 168.38652039 C582.28485419 167.74837937 582.40246824 167.11023836 582.52364635 166.45275974 C585.38189932 150.94619132 588.24447788 135.4404287 591.11191082 119.93555546 C592.49845774 112.43758817 593.88352352 104.93935287 595.26514053 97.44047546 C596.46895339 90.90667039 597.67550664 84.37337846 598.88539368 77.84069532 C599.52629133 74.37968181 600.1657865 70.91842206 600.80200386 67.45654488 C601.51119962 63.59785552 602.22651143 59.74031435 602.94238663 55.88285828 C603.15385834 54.72696198 603.36533005 53.57106567 603.58320999 52.38014221 C603.7781102 51.33541245 603.97301041 50.29068268 604.17381668 49.21429443 C604.42684886 47.84404916 604.42684886 47.84404916 604.68499279 46.44612217 C605.16724014 44.38652039 605.16724014 44.38652039 606.16724014 43.38652039 C608.49809843 43.28780851 610.79931113 43.25472411 613.1306963 43.26347256 C613.87135781 43.26231871 614.61201933 43.26116487 615.37512514 43.25997606 C617.88866146 43.25730237 620.40213534 43.26183769 622.91566849 43.26626587 C624.72319426 43.26583032 626.53071996 43.26495572 628.33824533 43.2636767 C633.32988329 43.26142853 638.32150001 43.26545741 643.31313527 43.27045476 C648.68671936 43.27475448 654.06030215 43.27331318 659.43388748 43.27255249 C668.75218937 43.27202695 678.07048428 43.27517688 687.38878441 43.28079033 C700.86165017 43.28890127 714.33451255 43.29152013 727.80738049 43.29277832 C749.66374513 43.29496948 771.52010604 43.30163129 793.37646866 43.31108093 C814.61377316 43.3202534 835.85107664 43.32733504 857.08838272 43.33158875 C859.05044473 43.33198283 859.05044473 43.33198283 861.05214436 43.33238488 C867.61389692 43.33368987 874.1756495 43.33495359 880.73740208 43.33619678 C935.21401734 43.34657138 989.69062856 43.36419143 1044.16724014 43.38652039 C1042.10407116 57.09153079 1042.10407116 57.09153079 1040.90462112 62.99790955 C1040.67432803 64.13956605 1040.44403494 65.28122255 1040.20676327 66.45747471 C1039.8368563 68.26748415 1039.8368563 68.26748415 1039.45947647 70.11405945 C1039.19031241 71.44246462 1038.92141708 72.77092427 1038.65276432 74.09943295 C1037.92452025 77.69672635 1037.19251776 81.29324552 1036.45981455 84.88963294 C1035.67521676 88.74413006 1034.89415205 92.59934321 1034.1126442 96.45446777 C1032.5981692 103.92244893 1031.08046411 111.38976999 1029.56164718 118.85686916 C1027.7897729 127.56883832 1026.02140066 136.28151728 1024.25313008 144.99421847 C1020.21075047 164.91113987 1016.16233037 184.8268312 1012.11183548 204.74210358 C1011.22586782 209.09818558 1010.34003136 213.45429425 1009.45422745 217.81040955 C1005.17333994 238.86214142 1000.89006242 259.91338606 996.6020546 280.96366882 C989.8602601 314.06009288 983.13262244 347.15937573 976.41130179 380.25996214 C967.95072533 421.92572084 959.48538883 463.59050572 951.00634003 505.25251007 C950.29723896 508.73695673 949.58828076 512.22143242 948.87936783 515.70591736 C943.93900552 539.98845008 938.98993386 564.26915543 934.01744461 588.54513168 C933.29718019 592.06207524 932.57728665 595.57909449 931.85754776 599.09614563 C931.62479519 600.2334934 931.39204262 601.37084118 931.15223694 602.54265404 C930.68906557 604.80600799 930.22591281 607.06936575 929.76277924 609.33272743 C928.42595541 615.86453888 927.08641014 622.39578467 925.74477291 628.92660904 C924.92916904 632.89967123 924.11592836 636.87321438 923.30333519 640.84689331 C922.92708565 642.68413581 922.54980024 644.52116651 922.17141914 646.35797119 C921.65766333 648.85246227 921.14747709 651.34765724 920.63818741 653.84306335 C920.48724688 654.57141577 920.33630634 655.29976818 920.18079185 656.05019188 C919.60436511 658.89043827 919.16724014 661.47901236 919.16724014 664.38652039 C919.65450577 663.78968445 920.14177139 663.19284851 920.64380264 662.57792664 C928.40905496 653.07608152 936.21582587 643.60853181 944.01977921 634.13847351 C952.3572241 624.02376072 952.3572241 624.02376072 960.66724014 613.88652039 C966.2042699 607.11107916 971.77213039 600.36104362 977.33667374 593.60820007 C980.28091602 590.03489989 983.22405113 586.46068811 986.16724014 582.88652039 C989.7252482 578.56572499 993.28355066 574.24517346 996.84302139 569.92558289 C1004.26721322 560.91597476 1004.26721322 560.91597476 1011.66724014 551.88652039 C1017.2042699 545.11107916 1022.77213039 538.36104362 1028.33667374 531.60820007 C1031.28091602 528.03489989 1034.22405113 524.46068811 1037.16724014 520.88652039 C1040.7252482 516.56572499 1044.28355066 512.24517346 1047.84302139 507.92558289 C1055.26721322 498.91597476 1055.26721322 498.91597476 1062.66724014 489.88652039 C1068.2042699 483.11107916 1073.77213039 476.36104362 1079.33667374 469.60820007 C1082.28091602 466.03489989 1085.22405113 462.46068811 1088.16724014 458.88652039 C1091.7252482 454.56572499 1095.28355066 450.24517346 1098.84302139 445.92558289 C1106.26721322 436.91597476 1106.26721322 436.91597476 1113.66724014 427.88652039 C1119.2042699 421.11107916 1124.77213039 414.36104362 1130.33667374 407.60820007 C1133.28091602 404.03489989 1136.22405113 400.46068811 1139.16724014 396.88652039 C1142.7252482 392.56572499 1146.28355066 388.24517346 1149.84302139 383.92558289 C1157.26721322 374.91597476 1157.26721322 374.91597476 1164.66724014 365.88652039 C1170.2042699 359.11107916 1175.77213039 352.36104362 1181.33667374 345.60820007 C1184.28091602 342.03489989 1187.22405113 338.46068811 1190.16724014 334.88652039 C1193.7252482 330.56572499 1197.28355066 326.24517346 1200.84302139 321.92558289 C1208.26721322 312.91597476 1208.26721322 312.91597476 1215.66724014 303.88652039 C1222.42589685 295.61622327 1229.22736052 287.38103957 1236.01977921 279.13847351 C1244.3572241 269.02376072 1244.3572241 269.02376072 1252.66724014 258.88652039 C1258.2042699 252.11107916 1263.77213039 245.36104362 1269.33667374 238.60820007 C1272.28091602 235.03489989 1275.22405113 231.46068811 1278.16724014 227.88652039 C1281.7252482 223.56572499 1285.28355066 219.24517346 1288.84302139 214.92558289 C1296.26721322 205.91597476 1296.26721322 205.91597476 1303.66724014 196.88652039 C1309.2042699 190.11107916 1314.77213039 183.36104362 1320.33667374 176.60820007 C1323.28091602 173.03489989 1326.22405113 169.46068811 1329.16724014 165.88652039 C1332.7252482 161.56572499 1336.28355066 157.24517346 1339.84302139 152.92558289 C1347.26721322 143.91597476 1347.26721322 143.91597476 1354.66724014 134.88652039 C1360.2042699 128.11107916 1365.77213039 121.36104362 1371.33667374 114.60820007 C1374.28091602 111.03489989 1377.22405113 107.46068811 1380.16724014 103.88652039 C1383.7252482 99.56572499 1387.28355066 95.24517346 1390.84302139 90.92558289 C1398.26721322 81.91597476 1398.26721322 81.91597476 1405.66724014 72.88652039 C1409.55543551 68.13022887 1413.45281702 63.38155216 1417.35474014 58.63652039 C1417.93739639 57.92689148 1418.52005264 57.21726257 1419.12036514 56.48612976 C1419.68626358 55.79841492 1420.25216202 55.11070007 1420.83520889 54.40214539 C1421.58193863 53.49383972 1421.58193863 53.49383972 1422.34375381 52.56718445 C1422.9455043 51.84756531 1423.54725479 51.12794617 1424.16724014 50.38652039 C1424.45872708 49.82069856 1424.75021402 49.25487674 1425.05053389 48.6719088 C1426.53661162 46.25885201 1427.78645829 44.95981647 1430.16724014 43.38652039 C1435.90776869 42.30118658 1441.61702981 42.47194228 1447.44101334 42.54473877 C1449.24461216 42.54168629 1451.04820797 42.53555732 1452.85178721 42.52661461 C1457.80971438 42.51094743 1462.76658489 42.53898077 1467.72437739 42.57406104 C1473.06992494 42.60426085 1478.41541182 42.59406276 1483.76102066 42.58874512 C1493.02317194 42.58507276 1502.28497832 42.60705463 1511.54704285 42.64640999 C1524.93840981 42.70327413 1538.32960982 42.72152753 1551.72108443 42.73032593 C1573.44720877 42.74565031 1595.17314924 42.7922457 1616.89917374 42.85844421 C1638.00528416 42.92268704 1659.11134467 42.97224109 1680.21753311 43.0019989 C1681.51828684 43.00383797 1682.81904057 43.00567703 1684.15921108 43.00757182 C1690.68464203 43.01670702 1697.21007333 43.02555299 1703.73550487 43.03425515 C1757.87954362 43.10683461 1812.02338308 43.23013758 1866.16724014 43.38652039 C1866.65425683 44.36300852 1867.14127352 45.33949665 1867.64304829 46.34557533 C1869.47341098 50.01487131 1871.30507122 53.68351834 1873.13709736 57.35198402 C1873.92548553 58.93109817 1874.71353521 60.51038136 1875.50122166 62.08984566 C1880.49517758 72.10302098 1885.56199498 82.06604462 1890.81909561 91.94413757 C1895.05181831 99.91434339 1899.1116311 107.9752708 1903.20544815 116.01737976 C1905.84214513 121.19659842 1908.48322656 126.37358032 1911.12427139 131.55058289 C1911.64697617 132.57532715 1912.16968094 133.60007141 1912.70822525 134.65586853 C1917.09038675 143.24353957 1921.49601623 151.81890612 1925.91724014 160.38652039 C1931.99692142 172.16941842 1938.05729206 183.96204388 1944.10474014 195.76152039 C1950.44985283 208.14119249 1956.80225449 220.51705381 1963.16724014 232.88652039 C1969.51081401 245.21461445 1975.84268125 257.54866075 1982.16724014 269.88652039 C1988.53444179 282.30720505 1994.90760235 294.7247887 2001.29224014 307.13652039 C2001.66094223 307.85329956 2002.02964432 308.57007874 2002.4095192 309.30857849 C2005.72568242 315.75516715 2009.04256086 322.20138766 2012.36011124 328.64726257 C2014.56698916 332.9351762 2016.77353388 337.22326114 2018.97974014 341.51152039 C2019.3460051 342.22342529 2019.71227005 342.9353302 2020.08963394 343.66880798 C2026.76811246 356.65139733 2033.42365698 369.6456787 2040.07605362 382.64164734 C2046.28459519 394.76961967 2052.50929959 406.8890745 2058.75436783 418.99827576 C2064.61813829 430.36858664 2070.45837157 441.75084187 2076.29224014 453.13652039 C2084.54396149 469.24062551 2092.83696593 485.32291097 2101.16724014 501.38652039 C2103.73893029 498.89612526 2106.02112465 496.4002694 2108.12817764 493.50761414 C2108.67474014 492.76124695 2109.22130264 492.01487976 2109.78442764 491.24589539 C2110.36450577 490.44667664 2110.94458389 489.64745789 2111.54224014 488.82402039 C2112.79996141 487.10390159 2114.05777651 485.3838514 2115.31567764 483.66386414 C2115.95601944 482.78585144 2116.59636124 481.90783875 2117.25610733 481.0032196 C2120.21314769 476.95447681 2123.19058908 472.92085405 2126.16724014 468.88652039 C2127.33401801 467.303269 2128.50068435 465.71993541 2129.66724014 464.13652039 C2146.00057348 441.96985372 2162.33390681 419.80318705 2178.66724014 397.63652039 C2179.24490128 396.85252869 2179.82256241 396.06853699 2180.41772842 395.26078796 C2181.58267863 393.67983056 2182.74771749 392.09893847 2183.91284561 390.51811218 C2186.85650994 386.5239621 2189.7985536 382.52863608 2192.73755264 378.53105164 C2198.66533739 370.4713443 2204.61891982 362.43327136 2210.63306046 354.43778992 C2216.270331 346.93445259 2221.82595293 339.37121498 2227.38501358 331.80986023 C2230.3095476 327.8332952 2233.23859448 323.86005767 2236.16724014 319.88652039 C2237.33392902 318.30320342 2238.50059568 316.71987008 2239.66724014 315.13652039 C2265.33390681 280.30318705 2291.00057348 245.46985372 2316.66724014 210.63652039 C2317.24490128 209.85252869 2317.82256241 209.06853699 2318.41772842 208.26078796 C2319.58267863 206.67983056 2320.74771749 205.09893847 2321.91284561 203.51811218 C2324.85650994 199.5239621 2327.7985536 195.52863608 2330.73755264 191.53105164 C2336.66533739 183.4713443 2342.61891982 175.43327136 2348.63306046 167.43778992 C2354.270331 159.93445259 2359.82595293 152.37121498 2365.38501358 144.80986023 C2368.3095476 140.8332952 2371.23859448 136.86005767 2374.16724014 132.88652039 C2375.33392902 131.30320342 2376.50059568 129.71987008 2377.66724014 128.13652039 C2389.33390681 112.30318705 2401.00057348 96.46985372 2412.66724014 80.63652039 C2413.53481949 79.45908264 2413.53481949 79.45908264 2414.41992569 78.25785828 C2415.57761829 76.68671559 2416.73533286 75.11558908 2417.89307022 73.54447937 C2420.94722754 69.39976693 2424.0009166 65.25471051 2427.05395889 61.10917664 C2427.69011124 60.24550476 2428.32626358 59.38183289 2428.98169327 58.49198914 C2430.20058396 56.83714484 2431.41934102 55.1822021 2432.63794327 53.52714539 C2433.18772842 52.7807782 2433.73751358 52.03441101 2434.30395889 51.26542664 C2434.78566544 50.61130798 2435.26737198 49.95718933 2435.76367569 49.2832489 C2436.45844009 48.34436829 2436.45844009 48.34436829 2437.16724014 47.38652039 C2437.69726237 46.35306752 2437.69726237 46.35306752 2438.23799211 45.29873681 C2440.71438316 42.8442076 2442.6079419 42.90417169 2446.00265875 42.86248648 C2446.80657651 42.87299454 2447.61049426 42.88350259 2448.43877316 42.89432907 C2449.29655177 42.88971369 2450.15433039 42.88509832 2451.0381023 42.88034308 C2453.93828063 42.86967966 2456.83758658 42.88776181 2459.73772049 42.90550232 C2461.82746076 42.90375946 2463.9172002 42.90025982 2466.00693494 42.89514565 C2471.76946417 42.88616575 2477.53169822 42.90225071 2483.29418981 42.9222579 C2489.50073919 42.93947519 2495.7072709 42.93369026 2501.91383743 42.9306488 C2512.67379701 42.92854781 2523.43363736 42.94099615 2534.19356728 42.96360016 C2545.48103862 42.98725173 2556.76847139 43.00266059 2568.05596733 43.00701141 C2569.10789521 43.00742385 2569.10789521 43.00742385 2570.18107415 43.00784462 C2573.74240997 43.00919792 2577.30374582 43.01040346 2580.86508171 43.01155213 C2606.1034414 43.01995834 2631.34175066 43.0469205 2656.58008194 43.08476257 C2681.1018891 43.12148792 2705.62368248 43.14982843 2730.14551163 43.16679382 C2730.90110934 43.16731993 2731.65670705 43.16784603 2732.43520167 43.16838808 C2740.02308307 43.17366207 2747.61096457 43.17876534 2755.19884617 43.18374352 C2770.65684286 43.19388893 2786.11483864 43.20517394 2801.57283401 43.21714783 C2802.28359954 43.21769699 2802.99436507 43.21824615 2803.72666894 43.21881195 C2851.20688077 43.25562731 2898.68706295 43.31909266 2946.16724014 43.38652039 C2944.53968172 47.77387183 2942.3114141 50.85360438 2939.22974014 54.32402039 C2935.3133072 58.83936134 2931.51681771 63.41246064 2927.85474014 68.13652039 C2923.71488976 73.46282328 2919.47126985 78.6920621 2915.16724014 83.88652039 C2910.9307385 89.00121649 2906.74637109 94.1453818 2902.66724014 99.38652039 C2898.00745274 105.37372497 2893.19791499 111.22745507 2888.35864639 117.07011414 C2884.73023087 121.46073511 2881.16553591 125.89167746 2877.66724014 130.38652039 C2873.00745274 136.37372497 2868.19791499 142.22745507 2863.35864639 148.07011414 C2859.73023087 152.46073511 2856.16553591 156.89167746 2852.66724014 161.38652039 C2848.00745274 167.37372497 2843.19791499 173.22745507 2838.35864639 179.07011414 C2834.73023087 183.46073511 2831.16553591 187.89167746 2827.66724014 192.38652039 C2823.00745274 198.37372497 2818.19791499 204.22745507 2813.35864639 210.07011414 C2809.73023087 214.46073511 2806.16553591 218.89167746 2802.66724014 223.38652039 C2798.00745274 229.37372497 2793.19791499 235.22745507 2788.35864639 241.07011414 C2784.73023087 245.46073511 2781.16553591 249.89167746 2777.66724014 254.38652039 C2773.00745274 260.37372497 2768.19791499 266.22745507 2763.35864639 272.07011414 C2759.73022948 276.46073679 2756.16558244 280.89171207 2752.66724014 285.38652039 C2747.93590693 291.46449774 2743.05843539 297.41374319 2738.14990616 303.34916687 C2734.48339371 307.78364114 2730.85621755 312.24470373 2727.27661514 316.74980164 C2724.49198331 320.23059143 2721.67149042 323.68170821 2718.85474014 327.13652039 C2714.76146817 332.16002805 2710.71342023 337.21321792 2706.72974014 342.32402039 C2702.04652416 348.32942443 2697.21642557 354.20502109 2692.35889053 360.06987 C2688.73035027 364.46053768 2685.16560644 368.89158683 2681.66724014 373.38652039 C2677.00745274 379.37372497 2672.19791499 385.22745507 2667.35864639 391.07011414 C2663.73023087 395.46073511 2660.16553591 399.89167746 2656.66724014 404.38652039 C2652.00745274 410.37372497 2647.19791499 416.22745507 2642.35864639 422.07011414 C2638.73023087 426.46073511 2635.16553591 430.89167746 2631.66724014 435.38652039 C2627.00745274 441.37372497 2622.19791499 447.22745507 2617.35864639 453.07011414 C2613.73022948 457.46073679 2610.16558244 461.89171207 2606.66724014 466.38652039 C2601.93590693 472.46449774 2597.05843539 478.41374319 2592.14990616 484.34916687 C2588.48339371 488.78364114 2584.85621755 493.24470373 2581.27661514 497.74980164 C2578.49198331 501.23059143 2575.67149042 504.68170821 2572.85474014 508.13652039 C2568.76146817 513.16002805 2564.71342023 518.21321792 2560.72974014 523.32402039 C2556.04652416 529.32942443 2551.21642557 535.20502109 2546.35889053 541.06987 C2542.73035027 545.46053768 2539.16560644 549.89158683 2535.66724014 554.38652039 C2531.00745274 560.37372497 2526.19791499 566.22745507 2521.35864639 572.07011414 C2517.73023087 576.46073511 2514.16553591 580.89167746 2510.66724014 585.38652039 C2506.00745274 591.37372497 2501.19791499 597.22745507 2496.35864639 603.07011414 C2492.73023087 607.46073511 2489.16553591 611.89167746 2485.66724014 616.38652039 C2481.00745274 622.37372497 2476.19791499 628.22745507 2471.35864639 634.07011414 C2467.73022948 638.46073679 2464.16558244 642.89171207 2460.66724014 647.38652039 C2455.93590693 653.46449774 2451.05843539 659.41374319 2446.14990616 665.34916687 C2442.48339371 669.78364114 2438.85621755 674.24470373 2435.27661514 678.74980164 C2432.49198331 682.23059143 2429.67149042 685.68170821 2426.85474014 689.13652039 C2422.76146817 694.16002805 2418.71342023 699.21321792 2414.72974014 704.32402039 C2410.04652416 710.32942443 2405.21642557 716.20502109 2400.35889053 722.06987 C2396.73035027 726.46053768 2393.16560644 730.89158683 2389.66724014 735.38652039 C2385.00745274 741.37372497 2380.19791499 747.22745507 2375.35864639 753.07011414 C2371.73023087 757.46073511 2368.16553591 761.89167746 2364.66724014 766.38652039 C2360.00745274 772.37372497 2355.19791499 778.22745507 2350.35864639 784.07011414 C2346.73023087 788.46073511 2343.16553591 792.89167746 2339.66724014 797.38652039 C2335.00745274 803.37372497 2330.19791499 809.22745507 2325.35864639 815.07011414 C2321.73022948 819.46073679 2318.16558244 823.89171207 2314.66724014 828.38652039 C2309.93590693 834.46449774 2305.05843539 840.41374319 2300.14990616 846.34916687 C2296.48339371 850.78364114 2292.85621755 855.24470373 2289.27661514 859.74980164 C2286.49198331 863.23059143 2283.67149042 866.68170821 2280.85474014 870.13652039 C2276.76146817 875.16002805 2272.71342023 880.21321792 2268.72974014 885.32402039 C2264.62780064 890.58403919 2260.42133548 895.74891316 2256.16724014 900.88652039 C2251.77376259 906.19463191 2247.42232989 911.52912953 2243.16724014 916.94902039 C2242.74700577 917.48398132 2242.32677139 918.01894226 2241.89380264 918.57011414 C2241.09540982 919.59226036 2240.30523079 920.62089351 2239.52474213 921.65677547 C2238.16724014 923.38652039 2238.16724014 923.38652039 2236.72853088 924.93298435 C2231.28014844 931.1876015 2230.24951587 938.2367659 2228.81274796 946.19291687 C2228.52328135 947.7043845 2228.23190504 949.21548742 2227.93879414 950.72625256 C2227.14241193 954.85991661 2226.3728447 958.99818301 2225.60760713 963.13770914 C2224.77875413 967.59445994 2223.92469058 972.0463816 2223.07353592 976.49891663 C2221.60299379 984.20952268 2220.14787201 991.92290783 2218.7030983 999.63838196 C2216.58940801 1010.92484601 2214.45082625 1022.20648436 2212.30540311 1033.48695457 C2209.66939711 1047.34734985 2207.03752807 1061.20851907 2204.41823196 1075.07208252 C2204.11427569 1076.680845 2204.11427569 1076.680845 2203.80417889 1078.32210773 C2203.60175527 1079.39349697 2203.39933164 1080.46488622 2203.19077396 1081.5687418 C2198.33589313 1107.26408608 2193.43256951 1132.94981286 2188.49145889 1158.62870789 C2188.22988876 1159.98827331 2188.22988876 1159.98827331 2187.96303439 1161.3753047 C2186.38663861 1169.56882236 2184.80968125 1177.76223183 2183.23184872 1185.95547295 C2180.79816998 1198.59310681 2178.36834043 1211.23147557 2175.94141006 1223.8704071 C2175.68303413 1225.2159633 2175.68303413 1225.2159633 2175.41943848 1226.58870244 C2174.54698189 1231.13234503 2173.67459198 1235.67600043 2172.80223274 1240.21966171 C2171.04768143 1249.35804175 2169.29250861 1258.49630244 2167.53735733 1267.63456726 C2167.36123189 1268.55158692 2167.18510645 1269.46860658 2167.00364387 1270.41341472 C2163.13519368 1290.55490254 2159.26523815 1310.69610108 2155.39514083 1330.83727247 C2153.9953307 1338.12232885 2152.59558342 1345.40739731 2151.19588089 1352.69247437 C2150.90286334 1354.21755038 2150.90286334 1354.21755038 2150.60392624 1355.77343601 C2149.8210028 1359.8483454 2149.03808161 1363.92325523 2148.2551676 1367.99816644 C2145.97811881 1379.84974522 2143.70087552 1391.70128659 2141.42328954 1403.55276215 C2140.01076929 1410.90295127 2138.5985094 1418.25319038 2137.18644881 1425.60346782 C2136.37333735 1429.83595394 2135.56010894 1434.0684175 2134.74655914 1438.3008194 C2133.9985013 1442.19251379 2133.2507804 1446.08427278 2132.50331128 1449.9760803 C2132.23491464 1451.37321751 2131.9664005 1452.77033216 2131.69774711 1454.16742003 C2131.32815618 1456.08951492 2130.95906506 1458.01170589 2130.58998489 1459.93389893 C2130.35772264 1461.14114183 2130.1254604 1462.34838474 2129.8861599 1463.59221077 C2129.36469139 1466.34441359 2128.85399067 1469.09730769 2128.35449409 1471.8534832 C2128.21954173 1472.5920927 2128.08458936 1473.33070221 2127.94554752 1474.09169382 C2127.68469667 1475.52269649 2127.42705449 1476.95428867 2127.17299849 1478.38651329 C2126.27893013 1483.2748304 2126.27893013 1483.2748304 2125.16724014 1484.38652039 C2123.09300812 1484.48488065 2121.01535261 1484.51099158 2118.93878978 1484.51071888 C2118.27641689 1484.51199697 2117.61404399 1484.51327505 2116.93159919 1484.51459187 C2114.67986115 1484.51768973 2112.42819135 1484.51357044 2110.1764555 1484.50956821 C2108.55172233 1484.51030693 2106.9269893 1484.51148453 2105.30225673 1484.51306471 C2100.79577942 1484.51615472 2096.28932442 1484.51294136 2091.78284876 1484.50878658 C2086.8960202 1484.50537013 2082.00919405 1484.50771977 2077.12236506 1484.50936407 C2068.54378829 1484.51144404 2059.96521843 1484.50978346 2051.38664246 1484.50572586 C2038.63046595 1484.49970897 2025.87429383 1484.49938836 2013.11811615 1484.50026785 C1991.66373996 1484.50158407 1970.20936683 1484.49823157 1948.75499153 1484.49225044 C1927.50169164 1484.48634052 1906.24839318 1484.48248593 1884.99509239 1484.48139763 C1883.675359 1484.48132889 1882.3556256 1484.48126015 1880.99590029 1484.48118933 C1875.63929777 1484.48091625 1870.28269525 1484.480664 1864.92609272 1484.48043538 C1849.95092842 1484.4797959 1834.97576414 1484.47883652 1820.00059986 1484.47766018 C1819.31858812 1484.47760686 1818.63657638 1484.47755354 1817.93389761 1484.47749861 C1784.74043775 1484.47487572 1751.54697871 1484.4685676 1718.35351944 1484.46195984 C1706.83152644 1484.45966822 1695.30953345 1484.45739288 1683.78754044 1484.45518494 C1682.71567931 1484.45497951 1682.71567931 1484.45497951 1681.62216443 1484.45476994 C1648.41686967 1484.4484284 1615.21157476 1484.44470109 1582.00627955 1484.44165014 C1579.85114083 1484.44145208 1577.6960021 1484.44125288 1575.54086338 1484.44105346 C1561.25890628 1484.43973371 1546.97694917 1484.43845905 1532.69499206 1484.4372146 C1504.27630801 1484.43473796 1475.85762399 1484.43199627 1447.43893998 1484.42907256 C1446.08550191 1484.42893332 1444.73206383 1484.42879426 1443.37862575 1484.42865539 C1353.30816317 1484.4194115 1263.23770155 1484.40352301 1173.16724014 1484.38652039 C1171.23678044 1480.85373866 1169.30738635 1477.32037603 1167.37817764 1473.78691101 C1166.8341127 1472.7912915 1166.29004776 1471.795672 1165.729496 1470.7698822 C1162.13210556 1464.17944653 1158.59977205 1457.56439063 1155.16724014 1450.88652039 C1151.27867431 1443.37645879 1147.30410158 1435.92236679 1143.22974014 1428.51152039 C1138.3561873 1419.64471614 1133.66642317 1410.69251122 1129.02295303 1401.70341492 C1125.49009295 1394.88217604 1121.8695692 1388.11713971 1118.16724014 1381.38652039 C1113.31303444 1372.5618562 1108.64494079 1363.65095276 1104.02270889 1354.70292664 C1100.48991775 1347.88185734 1096.8694814 1341.11698009 1093.16724014 1334.38652039 C1088.31303444 1325.5618562 1083.64494079 1316.65095276 1079.02270889 1307.70292664 C1075.48991775 1300.88185734 1071.8694814 1294.11698009 1068.16724014 1287.38652039 C1063.31303444 1278.5618562 1058.64494079 1269.65095276 1054.02270889 1260.70292664 C1050.48991775 1253.88185734 1046.8694814 1247.11698009 1043.16724014 1240.38652039 C1038.31303444 1231.5618562 1033.64494079 1222.65095276 1029.02270889 1213.70292664 C1025.48991775 1206.88185734 1021.8694814 1200.11698009 1018.16724014 1193.38652039 C1013.31303444 1184.5618562 1008.64494079 1175.65095276 1004.02270889 1166.70292664 C1000.48991775 1159.88185734 996.8694814 1153.11698009 993.16724014 1146.38652039 C988.31303444 1137.5618562 983.64494079 1128.65095276 979.02270889 1119.70292664 C975.48991775 1112.88185734 971.8694814 1106.11698009 968.16724014 1099.38652039 C963.88894979 1091.60883687 959.74119896 1083.77312396 955.66724014 1075.88652039 C951.09877858 1067.04297846 946.41184182 1058.27679982 941.61645889 1049.55448914 C937.52228681 1042.08801215 933.58242854 1034.54735519 929.66479874 1026.98710632 C926.26765604 1020.44912568 922.77932796 1013.96785728 919.22974014 1007.51152039 C914.3561873 998.64471614 909.66642317 989.69251122 905.02295303 980.70341492 C901.02390643 972.98206408 896.89365475 965.34186184 892.70215225 957.72367859 C888.21073777 949.5318793 883.89764657 941.25137576 879.61841202 932.94706726 C878.85560928 931.46883484 878.85560928 931.46883484 878.07739639 929.96073914 C877.63532852 929.10053162 877.19326065 928.2403241 876.73779678 927.35404968 C875.37786563 924.78449222 873.98306278 922.24104757 872.56908035 919.7010498 C872.11918967 918.89251462 871.66929899 918.08397943 871.20577526 917.25094318 C870.86305867 916.63568366 870.52034208 916.02042414 870.16724014 915.38652039 C866.26386651 934.37110797 862.74640736 953.41681058 859.31477571 972.49068856 C858.55330773 976.71997179 857.78901486 980.94874467 857.02507401 985.17758179 C855.70208848 992.50306548 854.38074896 999.82884443 853.06055069 1007.15483093 C850.93905069 1018.92716329 848.81410722 1030.69887286 846.68872452 1042.47050476 C845.95423481 1046.5387684 845.21977257 1050.607037 844.48532486 1054.67530823 C844.21015166 1056.19954417 844.21015166 1056.19954417 843.9294194 1057.75457275 C842.61215582 1065.05142508 841.29536705 1072.348363 839.9787941 1079.64533997 C834.86434784 1107.99120292 829.74333744 1136.33587222 824.61645889 1164.67948914 C824.26364708 1166.63004991 823.91083591 1168.5806108 823.55802536 1170.5311718 C820.39347454 1188.02661054 817.22831615 1205.52193936 814.06293106 1223.01722717 C812.12905339 1233.70593823 810.1953579 1244.39468224 808.26188374 1255.08346629 C807.91004642 1257.02851992 807.55820355 1258.97357255 807.20635509 1260.91862416 C802.02014839 1289.58875142 796.84335801 1318.26056665 791.67322838 1346.93359733 C790.34259363 1354.31291188 789.01141157 1361.69212753 787.6798439 1369.0712738 C787.49480155 1370.09673034 787.3097592 1371.12218688 787.11910951 1372.17871785 C786.37914978 1376.27929914 785.63916862 1380.37987656 784.89911342 1384.48044062 C782.74630251 1396.40895265 780.5953111 1408.33778897 778.4475593 1420.26721299 C777.12050517 1427.63731104 775.79127714 1435.00701484 774.46030623 1442.37640655 C773.69349388 1446.62259476 772.92773906 1450.86896704 772.16469002 1455.11583328 C771.46718224 1458.99786241 770.76688167 1462.87937654 770.06428909 1466.76048851 C769.8099683 1468.16827198 769.55671034 1469.57624793 769.30458641 1470.9844265 C768.96374234 1472.88728857 768.6187686 1474.78940958 768.27354813 1476.69148254 C768.08265075 1477.75071993 767.89175337 1478.80995731 767.69507122 1479.9012928 C767.16724014 1482.38652039 767.16724014 1482.38652039 766.16724014 1484.38652039 C621.62724014 1484.38652039 477.08724014 1484.38652039 328.16724014 1484.38652039 C329.29223367 1474.26157866 329.29223367 1474.26157866 330.19330215 1469.49407959 C330.39671376 1468.4088224 330.60012537 1467.32356522 330.80970097 1466.20542145 C331.14282055 1464.45633862 331.14282055 1464.45633862 331.48266983 1462.67192078 C331.71966189 1461.41286674 331.95665396 1460.15381271 332.2008276 1458.85660553 C332.85492157 1455.38206729 333.51317573 1451.90832858 334.17212749 1448.43470883 C334.88358906 1444.68017538 335.59110934 1440.9248991 336.29909134 1437.16970825 C337.52528852 1430.66866044 338.75386917 1424.16806681 339.98404312 1417.66777039 C341.76338805 1408.26536682 343.53864661 1398.86219533 345.31274998 1389.45880151 C348.02032193 1375.10785393 350.72984751 1360.75727625 353.44103229 1346.40701079 C359.48900695 1314.3950484 365.52866006 1282.38151799 371.56172371 1250.36674213 C373.34194478 1240.92028317 375.12356623 1231.47409041 376.90706164 1222.02824908 C378.12760684 1215.56355266 379.34690127 1209.0986212 380.56518835 1202.63349885 C381.26901407 1198.89874392 381.97344956 1195.16410655 382.67944908 1191.42976189 C383.44336095 1187.38902117 384.20449117 1183.34776162 384.96533585 1179.30644226 C385.30384882 1177.51960573 385.30384882 1177.51960573 385.64920044 1175.69667149 C385.85123707 1174.62103915 386.0532737 1173.54540682 386.26143265 1172.43717957 C386.43762288 1171.50339226 386.61381311 1170.56960495 386.79534245 1169.60752106 C387.22228908 1167.43308436 387.22228908 1167.43308436 387.16724014 1165.38652039 C386.84674698 1166.08809265 386.52625381 1166.78966492 386.19604874 1167.51249695 C360.56556405 1223.48795235 331.07804366 1277.70508813 290.62427139 1324.52714539 C288.1612974 1327.39343627 285.78519847 1330.31649659 283.41724014 1333.26152039 C280.43063422 1336.93366397 277.34782749 1340.33978928 273.93603897 1343.616745 C272.22880834 1345.32491819 270.67034417 1347.09220512 269.10864639 1348.93339539 C264.55255095 1354.17446875 259.64876493 1359.05097225 254.72974014 1363.94902039 C253.82675186 1364.85587585 252.92376358 1365.76273132 251.99341202 1366.69706726 C246.87911308 1371.80395954 241.66433289 1376.69656634 236.16724014 1381.38652039 C234.97562203 1382.4316718 233.78549463 1383.47852548 232.59692764 1384.52714539 C203.50750755 1410.03153042 171.40774721 1431.63724303 137.46460342 1450.1335907 C135.96869484 1450.94942522 134.47476696 1451.76890553 132.98315811 1452.59257507 C59.06702834 1493.32902032 -26.25714508 1513.55478718 -158.14525986 1528.13652039 C-158.9296846 1528.19577698 -159.71410934 1528.25503357 -160.52230453 1528.31608582 C-181.01348719 1529.83622174 -201.50215384 1530.54948755 -222.04760361 1530.58964539 C-223.05882341 1530.59247276 -224.07004322 1530.59530014 -225.11190605 1530.5982132 C-230.48411041 1530.61305513 -235.85628906 1530.62237369 -241.22851181 1530.62675476 C-245.54500616 1530.6310944 -249.86129555 1530.64483169 -254.17773056 1530.66777039 C-350.26107865 1531.16743688 -446.11808822 1519.28668589 -726.83275986 1416.38652039 C-727.69353134 1415.88652527 -728.55430283 1415.38653015 -729.44115829 1414.87138367 C-757.74276368 1398.37027464 -784.74565083 1379.46691128 -809.83275986 1358.38652039 C-810.34306747 1357.96112976 -810.85337509 1357.53573914 -811.37914658 1357.09745789 C-829.09095124 1342.30680681 -847.2909139 1326.38258782 -861.83275986 1308.38652039 C-862.40639267 1307.73941101 -862.98002548 1307.09230164 -863.57104111 1306.42558289 C-864.83275986 1304.38652039 -864.83275986 1304.38652039 -864.58495712 1302.4851532 C-863.73571532 1300.11576581 -862.68602001 1298.68517566 -861.05932236 1296.76933289 C-860.48738144 1296.08709656 -859.91544052 1295.40486023 -859.32616806 1294.70195007 C-858.70959335 1293.97910828 -858.09301865 1293.25626648 -857.45775986 1292.51152039 C-856.17125902 1290.9787938 -854.88611913 1289.44492395 -853.60229111 1287.90995789 C-852.96243271 1287.14651062 -852.32257431 1286.38306335 -851.66332626 1285.59648132 C-849.09236857 1282.4926791 -846.61326304 1279.3223563 -844.14525986 1276.13652039 C-840.2050105 1271.06843039 -836.12408533 1266.14816103 -831.95043564 1261.27128601 C-828.23218549 1256.90678424 -824.68763698 1252.42404299 -821.16869736 1247.89823914 C-816.89227325 1242.41718853 -812.46682476 1237.06539188 -808.03149033 1231.71269226 C-804.33343311 1227.2389252 -800.70797349 1222.71862318 -797.14525986 1218.13652039 C-793.20399878 1213.06918472 -789.12412557 1208.14820805 -784.95043564 1203.27128601 C-781.23218549 1198.90678424 -777.68763698 1194.42404299 -774.16869736 1189.89823914 C-769.89227325 1184.41718853 -765.46682476 1179.06539188 -761.03149033 1173.71269226 C-757.33343311 1169.2389252 -753.70797349 1164.71862318 -750.14525986 1160.13652039 C-746.20399878 1155.06918472 -742.12412557 1150.14820805 -737.95043564 1145.27128601 C-734.23218549 1140.90678424 -730.68763698 1136.42404299 -727.16869736 1131.89823914 C-722.89227325 1126.41718853 -718.46682476 1121.06539188 -714.03149033 1115.71269226 C-710.33343311 1111.2389252 -706.70797349 1106.71862318 -703.14525986 1102.13652039 C-699.20399878 1097.06918472 -695.12412557 1092.14820805 -690.95043564 1087.27128601 C-687.23455857 1082.90956978 -683.69237332 1078.42963199 -680.17528915 1073.9070282 C-675.82277737 1068.32929088 -671.32486328 1062.87658011 -666.81615829 1057.42485046 C-663.14715249 1052.98717278 -659.51835919 1048.52216231 -655.93432236 1044.01542664 C-653.18985906 1040.5822969 -650.41811755 1037.17173242 -647.64525986 1033.76152039 C-647.09829453 1033.08838806 -646.55132919 1032.41525574 -645.98778915 1031.72172546 C-643.04412079 1028.1005563 -640.09550589 1024.48351738 -637.14135361 1020.87089539 C-636.24742905 1019.77575623 -636.24742905 1019.77575623 -635.3354454 1018.65849304 C-634.18613686 1017.2506341 -633.03530965 1015.84401324 -631.88280869 1014.43876648 C-629.08824287 1011.09428081 -629.08824287 1011.09428081 -626.83275986 1007.38652039 C-623.12007892 1008.9277939 -620.85160288 1011.19495272 -618.08275986 1014.07402039 C-614.46636772 1017.76443225 -610.79812463 1021.26945567 -606.87182236 1024.62480164 C-604.60583756 1026.58257777 -602.41132492 1028.60880987 -600.20775986 1030.63652039 C-594.61879098 1035.67338747 -588.73544773 1040.26896427 -582.78393173 1044.86357117 C-580.78762676 1046.42174814 -578.8166655 1048.00797141 -576.84838486 1049.60136414 C-502.16379231 1109.61545792 -406.63472657 1143.04550729 -236.83275986 1167.38652039 C-235.8699913 1167.44436707 -234.90722275 1167.50221375 -233.91527939 1167.56181335 C-176.07255057 1170.85399366 -112.70020806 1169.05904655 -60.83275986 1140.38652039 C-59.23754501 1139.52413757 -59.23754501 1139.52413757 -57.61010361 1138.64433289 C-50.20704427 1134.49861966 -43.46434572 1129.66962222 -36.83275986 1124.38652039 C-36.05158798 1123.77292664 -35.27041611 1123.15933289 -34.46557236 1122.52714539 C-18.16066329 1108.94939193 -6.58940085 1088.46065431 -3.83275986 1067.38652039 C-2.35605958 1043.38363879 -8.20478585 1022.52044646 -24.20775986 1004.19902039 C-25.73124593 1002.57757751 -27.27274139 1000.97284608 -28.83275986 999.38652039 C-29.54561142 998.6607782 -30.25846298 997.93503601 -30.99291611 997.18730164 C-84.76189515 945.81625304 -178.39401559 933.93762815 -247.71947861 916.46073914 C-322.18965563 897.68594445 -322.18965563 897.68594445 -353.83275986 887.38652039 C-354.51133041 887.16649353 -355.18990097 886.94646667 -355.88903427 886.71977234 C-427.14634738 863.57289687 -496.79112007 829.83174211 -552.29369736 778.70683289 C-554.37770889 776.80236696 -556.49147071 774.96036736 -558.64525986 773.13652039 C-567.67705627 765.28035036 -576.14465559 756.55376775 -583.83275986 747.38652039 C-584.62553329 746.48288757 -585.41830673 745.57925476 -586.23510361 744.64823914 C-645.12400641 677.15407274 -668.6663473 589.22079317 -663.31713486 500.92021179 C-659.21547439 443.45423958 -645.39756625 386.02525081 -621.83275986 333.38652039 C-621.37965439 332.3597821 -620.92654892 331.33304382 -620.45971298 330.27519226 C-604.57654273 294.3909928 -584.88456653 260.43062111 -560.83275986 229.38652039 C-560.4184874 228.84753113 -560.00421494 228.30854187 -559.57738876 227.7532196 C-549.75553669 214.98590282 -539.32110777 202.8086805 -528.34692001 191.01835632 C-526.66182677 189.20230292 -524.98756541 187.37655603 -523.31322861 185.55058289 C-512.51952725 173.82380809 -512.51952725 173.82380809 -506.61010361 168.91386414 C-504.62922638 167.21161579 -502.83738878 165.38714843 -501.02025986 163.51152039 C-497.10858573 159.53848667 -492.87769259 156.07570244 -488.53197861 152.58964539 C-486.18061798 150.6704451 -483.93962127 148.69138699 -481.70775986 146.63652039 C-458.58110284 125.89236089 -431.56528822 109.01719337 -404.83275986 93.38652039 C-404.13199326 92.97611511 -403.43122665 92.56570984 -402.7092247 92.14286804 C-332.96563848 51.61778351 -254.4544721 27.29389699 -72.48900986 1.76542664 C-70.96818645 1.66863932 -70.96818645 1.66863932 -69.41663933 1.5698967 C-46.27857978 0.13324277 -23.17612057 -0.0893619 0 0 Z M560.16724014 273.38652039 C561.16724014 275.38652039 561.16724014 275.38652039 561.16724014 275.38652039 Z M559.16724014 275.38652039 C557.27587687 277.48669016 555.43114178 279.60583099 553.60474014 281.76152039 C552.78284195 282.72662537 552.78284195 282.72662537 551.94433975 283.71122742 C548.33399821 287.96674692 544.80099102 292.27473208 541.33911514 296.65214539 C538.57911019 300.12697177 535.7803986 303.56943009 532.97974014 307.01152039 C532.42423477 307.69456238 531.8687294 308.37760437 531.29639053 309.0813446 C530.15530874 310.48426844 529.01411299 311.8870996 527.87280655 313.2898407 C525.13607535 316.65414753 522.40174464 320.02040367 519.66724014 323.38652039 C518.58391907 324.71986368 517.50058572 326.053197 516.41724014 327.38652039 C515.61286514 328.37652039 515.61286514 328.37652039 514.79224014 329.38652039 C418.91724014 447.38652039 418.91724014 447.38652039 417.29101944 449.38798523 C416.21170606 450.71639589 415.13244144 452.04484618 414.05322647 453.37333679 C411.28379392 456.78231962 408.5134218 460.19053215 405.74145889 463.59745789 C399.85293012 470.83658211 393.98148048 478.08750256 388.16724014 485.38652039 C372.05395889 476.59745789 372.05395889 476.59745789 369.49853897 475.20341492 C367.66133351 474.20142623 365.82391572 473.1998268 363.98633194 472.1985321 C359.25285875 469.61863066 354.52227605 467.03383835 349.80005264 464.43339539 C335.38120609 456.50548445 320.81128813 448.88947298 306.16724014 441.38652039 C305.22944717 440.90328308 304.29165421 440.42004578 303.32544327 439.92216492 C230.5074386 402.46264718 151.31647566 374.14491144 13.16724014 354.38652039 C11.87221573 354.28355652 10.57719131 354.18059265 9.24292374 354.07450867 C-53.5883526 349.21554901 -138.37844718 343.66115563 -190.16869736 387.11308289 C-193.18349364 389.75254496 -196.0140477 392.53896176 -198.83275986 395.38652039 C-199.63197861 396.16382507 -200.43119736 396.94112976 -201.25463486 397.74198914 C-217.19072663 414.14517326 -224.28951353 436.92171002 -224.19628525 459.40361023 C-223.94453207 472.10763522 -220.40776042 482.0962799 -212.83275986 492.38652039 C-212.06963486 493.43839539 -211.30650986 494.49027039 -210.52025986 495.57402039 C-188.08337892 519.05447718 -152.10646642 528.31641846 -121.83275986 536.38652039 C-121.14397751 536.57047363 -120.45519516 536.75442688 -119.74554062 536.94395447 C-94.10016625 543.767415 -68.22933588 549.59453601 -42.33987045 555.40119934 C111.01467698 589.79699931 111.01467698 589.79699931 183.16724014 619.38652039 C184.96556393 620.11081079 186.76389059 620.83509409 188.56230545 621.55915833 C235.8227877 640.6445878 282.09818241 664.27417997 321.16724014 697.38652039 C322.14306046 698.18960632 323.11888077 698.99269226 324.12427139 699.82011414 C336.94465676 710.41539126 349.39267603 721.69513307 360.16724014 734.38652039 C361.41634171 735.8038446 361.41634171 735.8038446 362.69067764 737.24980164 C404.85000587 785.45046294 427.9965661 845.56675464 437.16724014 908.38652039 C437.82724014 908.05652039 438.48724014 907.72652039 439.16724014 907.38652039 C439.80859277 905.48006205 439.80859277 905.48006205 440.21312332 903.1211853 C440.39555305 902.19499075 440.57798277 901.2687962 440.76594067 900.31453514 C440.9595194 899.28472338 441.15309813 898.25491161 441.35254288 897.19389343 C441.56367249 896.10846064 441.77480211 895.02302784 441.9923296 893.90470314 C442.7034528 890.23743103 443.40205133 886.56788116 444.10083389 882.89823914 C444.60553056 880.28213824 445.11091971 877.66618016 445.61719131 875.05038452 C446.71170066 869.38793283 447.79983263 863.72428518 448.88376236 858.05979919 C450.47503323 849.74424303 452.07616515 841.43060868 453.67970192 833.11741018 C456.28844835 819.59191543 458.89005091 806.06505759 461.48755264 792.53739929 C464.8254574 775.15461541 468.17642868 757.7743734 471.53269076 740.39512563 C472.7809765 733.9311199 474.02890491 727.46704517 475.27685928 721.00297546 C475.41383858 720.29348263 475.55081787 719.5839898 475.69194806 718.85299718 C478.92594789 702.10191282 482.154269 685.34973496 485.38208389 668.59745789 C486.51340673 662.72603383 487.64475341 656.85461437 488.77612686 650.98320007 C488.91611024 650.25673338 489.05609363 649.53026668 489.20031893 648.78178585 C492.43883417 631.97521199 495.67974868 615.16910102 498.92114639 598.36308289 C499.06042714 597.64093715 499.19970789 596.91879142 499.34320927 596.17476249 C500.60920699 589.61080785 501.8752276 583.04685763 503.14127731 576.48291302 C505.09884395 566.33371109 507.05619689 556.18446797 509.01343155 546.03520203 C513.59215418 522.29230895 518.17094765 498.54942965 522.7517128 474.80693054 C522.90102544 474.03302778 523.05033808 473.25912502 523.20417535 472.46177065 C524.56116626 465.42836128 525.91817404 458.39495516 527.27521324 451.3615551 C530.48373468 434.7320188 533.69158633 418.10235393 536.89697647 401.47221375 C537.10384876 400.39894087 537.10384876 400.39894087 537.31490028 399.30398571 C538.53388396 392.97976713 539.75284077 386.65554336 540.97162056 380.33128548 C543.93110736 364.97465771 546.8945291 349.61880386 549.86745071 334.26477051 C551.07740056 328.01520834 552.28445631 321.76508893 553.49019146 315.51471233 C554.3748884 310.92955372 555.26326572 306.34513233 556.15491104 301.76132011 C556.79158897 298.48214268 557.42237985 295.20183985 558.05395889 291.92167664 C558.38452789 290.23295441 558.38452789 290.23295441 558.72177505 288.51011658 C558.91607101 287.49487915 559.11036697 286.47964172 559.31055069 285.43363953 C559.47782166 284.5701741 559.64509262 283.70670868 559.8174324 282.81707764 C560.17870874 280.30683349 560.22931183 277.91904176 560.16724014 275.38652039 C559.83724014 275.38652039 559.50724014 275.38652039 559.16724014 275.38652039 Z M1590.10083389 467.40605164 C1589.27712296 468.32773132 1588.45341202 469.24941101 1587.60474014 470.19902039 C1587.15928848 470.69603455 1586.71383682 471.19304871 1586.25488663 471.7051239 C1582.53906917 475.88484196 1579.02558454 480.21735617 1575.51489639 484.57011414 C1572.54646537 488.13124353 1569.41074565 491.51295195 1566.25342178 494.9058075 C1563.26297015 498.13846014 1560.42945007 501.45348805 1557.66724014 504.88652039 C1554.03224625 509.40429851 1550.20013724 513.66470555 1546.25317764 517.90605164 C1543.26282657 521.13863785 1540.42937685 524.45357905 1537.66724014 527.88652039 C1534.03224625 532.40429851 1530.20013724 536.66470555 1526.25317764 540.90605164 C1523.26282657 544.13863785 1520.42937685 547.45357905 1517.66724014 550.88652039 C1514.03224625 555.40429851 1510.20013724 559.66470555 1506.25317764 563.90605164 C1503.26282657 567.13863785 1500.42937685 570.45357905 1497.66724014 573.88652039 C1494.03224625 578.40429851 1490.20013724 582.66470555 1486.25317764 586.90605164 C1483.26282657 590.13863785 1480.42937685 593.45357905 1477.66724014 596.88652039 C1474.03159964 601.40510215 1470.19887612 605.66635368 1466.25098038 609.9082489 C1463.28008386 613.11951089 1460.46762938 616.41279854 1457.72974014 619.82402039 C1453.88678535 624.60193376 1449.79892685 629.07647022 1445.6110878 633.54814148 C1441.6881716 637.76081144 1438.0481299 642.15065593 1434.44458389 646.64042664 C1431.94897546 649.64971091 1429.32958872 652.52590693 1426.66724014 655.38652039 C1423.19304771 659.11979294 1419.86655304 662.9102315 1416.66724014 666.88652039 C1413.03224625 671.40429851 1409.20013724 675.66470555 1405.25317764 679.90605164 C1402.26282657 683.13863785 1399.42937685 686.45357905 1396.66724014 689.88652039 C1393.03224625 694.40429851 1389.20013724 698.66470555 1385.25317764 702.90605164 C1382.26282657 706.13863785 1379.42937685 709.45357905 1376.66724014 712.88652039 C1373.03224625 717.40429851 1369.20013724 721.66470555 1365.25317764 725.90605164 C1362.26282657 729.13863785 1359.42937685 732.45357905 1356.66724014 735.88652039 C1353.03224625 740.40429851 1349.20013724 744.66470555 1345.25317764 748.90605164 C1342.26282657 752.13863785 1339.42937685 755.45357905 1336.66724014 758.88652039 C1333.4679186 762.86282002 1330.14134878 766.65315887 1326.66724014 770.38652039 C1322.34947231 775.02783994 1318.29305017 779.82211191 1314.31567764 784.76152039 C1311.05482532 788.74568904 1307.62380543 792.5720546 1304.16724014 796.38652039 C1309.9871976 807.53002717 1316.15459383 818.45396387 1322.42212296 829.35087585 C1325.63623565 834.94184916 1328.84037834 840.5385253 1332.04224014 846.13652039 C1332.3804982 846.72775696 1332.71875626 847.31899353 1333.06726456 847.92814636 C1338.48732173 857.40535251 1343.8402119 866.91867912 1349.16333389 876.45072937 C1354.76205178 886.46927793 1360.45791858 896.43072179 1366.16724014 906.38652039 C1368.79401928 910.96883685 1371.41932526 915.55199122 1374.04224014 920.13652039 C1374.38104202 920.72866333 1374.7198439 921.32080627 1375.06891251 921.93089294 C1380.48840497 931.40719082 1385.84073322 940.91961264 1391.16333389 950.45072937 C1396.76205178 960.46927793 1402.45791858 970.43072179 1408.16724014 980.38652039 C1410.79401928 984.96883685 1413.41932526 989.55199122 1416.04224014 994.13652039 C1416.38104202 994.72866333 1416.7198439 995.32080627 1417.06891251 995.93089294 C1422.48840497 1005.40719082 1427.84073322 1014.91961264 1433.16333389 1024.45072937 C1438.76205178 1034.46927793 1444.45791858 1044.43072179 1450.16724014 1054.38652039 C1452.79401928 1058.96883685 1455.41932526 1063.55199122 1458.04224014 1068.13652039 C1458.38104202 1068.72866333 1458.7198439 1069.32080627 1459.06891251 1069.93089294 C1464.48840497 1079.40719082 1469.84073322 1088.91961264 1475.16333389 1098.45072937 C1480.76205178 1108.46927793 1486.45791858 1118.43072179 1492.16724014 1128.38652039 C1494.79401928 1132.96883685 1497.41932526 1137.55199122 1500.04224014 1142.13652039 C1500.38104202 1142.72866333 1500.7198439 1143.32080627 1501.06891251 1143.93089294 C1506.48840497 1153.40719082 1511.84073322 1162.91961264 1517.16333389 1172.45072937 C1522.76205178 1182.46927793 1528.45791858 1192.43072179 1534.16724014 1202.38652039 C1536.79401928 1206.96883685 1539.41932526 1211.55199122 1542.04224014 1216.13652039 C1542.38104202 1216.72866333 1542.7198439 1217.32080627 1543.06891251 1217.93089294 C1548.48840497 1227.40719082 1553.84073322 1236.91961264 1559.16333389 1246.45072937 C1564.76205178 1256.46927793 1570.45791858 1266.43072179 1576.16724014 1276.38652039 C1578.79401928 1280.96883685 1581.41932526 1285.55199122 1584.04224014 1290.13652039 C1584.38104202 1290.72866333 1584.7198439 1291.32080627 1585.06891251 1291.93089294 C1590.48840497 1301.40719082 1595.84073322 1310.91961264 1601.16333389 1320.45072937 C1606.76205178 1330.46927793 1612.45791858 1340.43072179 1618.16724014 1350.38652039 C1620.79401928 1354.96883685 1623.41932526 1359.55199122 1626.04224014 1364.13652039 C1626.38104202 1364.72866333 1626.7198439 1365.32080627 1627.06891251 1365.93089294 C1632.48840497 1375.40719082 1637.84073322 1384.91961264 1643.16333389 1394.45072937 C1648.76205178 1404.46927793 1654.45791858 1414.43072179 1660.16724014 1424.38652039 C1662.79401935 1428.96883695 1665.41916723 1433.55208159 1668.04224014 1438.13652039 C1668.37771866 1438.72268127 1668.71319717 1439.30884216 1669.05884171 1439.9127655 C1674.71111413 1449.79268202 1680.29326822 1459.71010233 1685.82690811 1469.6570282 C1686.36976456 1470.63123718 1686.912621 1471.60544617 1687.47192764 1472.60917664 C1687.94614151 1473.46261658 1688.42035538 1474.31605652 1688.90893936 1475.19535828 C1689.92633353 1476.96701381 1691.03398693 1478.68664057 1692.16724014 1480.38652039 C1692.82724014 1480.38652039 1693.48724014 1480.38652039 1694.16724014 1480.38652039 C1717.90735703 1359.70934074 1717.90735703 1359.70934074 1741.54224014 1239.01152039 C1741.67097236 1238.35251378 1741.79970457 1237.69350717 1741.93233776 1237.01453066 C1743.37030782 1229.6532372 1744.80816252 1222.29192121 1746.24600601 1214.93060303 C1746.37557705 1214.26724243 1746.50514809 1213.60388183 1746.63864553 1212.92041939 C1747.29146203 1209.57820592 1747.9442618 1206.23598919 1748.59703064 1202.8937664 C1752.75269643 1181.61678532 1756.9149689 1160.34110252 1761.08130264 1139.06620789 C1761.29965098 1137.95123546 1761.29965098 1137.95123546 1761.52241039 1136.81373835 C1763.29493415 1127.76263845 1765.06766949 1118.71158 1766.84046245 1109.66053283 C1769.60861128 1095.5276009 1772.37632993 1081.39458473 1775.14380264 1067.26152039 C1775.28741509 1066.52811479 1775.43102755 1065.7947092 1775.57899189 1065.03907919 C1782.14605219 1031.50183697 1788.70676154 997.96335358 1795.26401162 964.42419195 C1796.10739482 960.11047738 1796.95086674 955.79678017 1797.79443288 951.48310137 C1798.33667654 948.7102569 1798.87888299 945.93740516 1799.4210906 943.16455364 C1799.81607549 941.14469587 1800.21111881 939.12484953 1800.60616302 937.10500336 C1801.84487407 930.77075188 1803.08206015 924.43620795 1804.31586075 918.10099792 C1804.77115132 915.76387027 1805.22649247 913.42675247 1805.68188858 911.08964539 C1805.89779018 909.98162315 1806.11369179 908.87360092 1806.33613586 907.73200226 C1807.46445848 901.95180011 1808.60546966 896.17446911 1809.76931953 890.40131378 C1810.37055513 887.41839353 1810.96584271 884.43430302 1811.56053925 881.45007324 C1811.9383041 879.56985314 1812.32624719 877.69168654 1812.71469498 875.81364441 C1813.03465942 874.20519653 1813.03465942 874.20519653 1813.3610878 872.56425476 C1813.54370163 871.67041077 1813.72631546 870.77656677 1813.91446304 869.8556366 C1814.40287249 865.0848734 1812.94305434 861.57924571 1810.68286514 857.45683289 C1810.16659561 856.50872742 1809.65032608 855.56062195 1809.11841202 854.58378601 C1808.27633194 853.06301453 1808.27633194 853.06301453 1807.41724014 851.51152039 C1806.83522842 850.44868835 1806.25321671 849.38585632 1805.65356827 848.29081726 C1801.1914458 840.16869768 1796.63357083 832.1014705 1792.05176163 824.0464325 C1787.53627089 816.09082666 1783.16850563 808.06034988 1778.82690811 800.00883484 C1774.47560943 791.94165061 1770.04725858 783.92080266 1765.57934952 775.91777039 C1755.39215396 757.65690532 1745.27702 739.35640689 1735.18335342 721.04374695 C1733.1775655 717.40491204 1731.17063372 713.76670896 1729.16333389 710.12870789 C1728.66863602 709.23212463 1728.66863602 709.23212463 1728.16394424 708.31742859 C1727.16506226 706.50711516 1726.16615605 704.6968151 1725.16724014 702.88652039 C1721.49096543 696.2241571 1717.81471892 689.56177979 1714.14157486 682.89768982 C1707.33570878 670.55005999 1700.51971691 658.20837217 1693.66724014 645.88652039 C1686.47593902 632.95540809 1679.32570484 620.00192982 1672.18335342 607.04374695 C1669.17931264 601.59391432 1666.17267667 596.14551355 1663.16623306 590.69700623 C1661.49979548 587.6769031 1659.83352635 584.65670703 1658.16724014 581.63652039 C1657.50057428 580.42818661 1656.83390762 579.21985327 1656.16724014 578.01152039 C1636.16724012 541.76152034 1636.16724012 541.76152034 1635.16730118 539.9491272 C1634.50043536 538.74043545 1633.83356524 537.53174608 1633.16669083 536.32305908 C1631.50303587 533.30772889 1629.83945502 530.29235785 1628.17602921 527.27690125 C1625.14025175 521.77382222 1622.10386736 516.27108173 1619.06482315 510.76980591 C1610.72124391 495.66613712 1602.40826005 480.54648413 1594.16724014 465.38652039 C1591.92406672 465.1535375 1591.92406672 465.1535375 1590.10083389 467.40605164 Z " fill="#121212" transform="translate(864.8327598571777,-0.3865203857421875)"/>
<path d="M0 0 C0.92039062 0.41894531 1.84078125 0.83789062 2.7890625 1.26953125 C23.84914023 11.79957011 36.22477996 30.22704318 44.37890625 51.6171875 C50.22689211 70.56710683 48.66614224 93.16891692 43 112 C42.78569336 112.7204248 42.57138672 113.44084961 42.35058594 114.18310547 C35.97709802 134.96884008 25.20173913 153.59191925 11 170 C9.9790625 171.20462891 9.9790625 171.20462891 8.9375 172.43359375 C4.62683369 177.42622094 0.05894244 181.7798002 -5 186 C-5.87269531 186.76054687 -6.74539062 187.52109375 -7.64453125 188.3046875 C-40.23827093 216.31697783 -76.33299192 227.67540608 -119 226 C-139.00542759 224.41579055 -156.89547242 214.87555798 -171 201 C-171.7734375 200.23945313 -172.546875 199.47890625 -173.34375 198.6953125 C-190.32506892 180.95797595 -195.73749047 158.02896747 -195.30859375 134.05078125 C-193.95975879 98.93070083 -176.94108416 66.96530166 -153 42 C-152.24589844 41.19433594 -151.49179688 40.38867188 -150.71484375 39.55859375 C-144.03187337 32.61482453 -136.73888369 26.70670094 -129 21 C-128.43216797 20.5771875 -127.86433594 20.154375 -127.27929688 19.71875 C-110.16925544 7.14650371 -90.66011144 -1.32827397 -70 -6 C-68.84242188 -6.26425781 -67.68484375 -6.52851562 -66.4921875 -6.80078125 C-44.6460566 -10.74596705 -20.27259006 -9.28495266 0 0 Z M-75 12 C-76.76923828 12.45826172 -76.76923828 12.45826172 -78.57421875 12.92578125 C-113.18683993 23.21601998 -143.8173224 49.577222 -161.1953125 80.8828125 C-174.55044732 105.90924174 -180.30844693 133.8046113 -171.96875 161.4140625 C-165.2599025 180.40735374 -151.95020267 194.41872528 -134 203 C-110.69644269 213.32279594 -83.30658068 210.69916864 -60.00585938 201.89355469 C-41.77591558 194.68032102 -26.4959078 184.02450001 -12.47119141 170.41552734 C-11.13078352 169.12583519 -9.7602032 167.86768932 -8.38671875 166.61328125 C9.31153603 149.98764797 20.34300003 127.36909158 26 104 C26.24363281 103.08992188 26.48726562 102.17984375 26.73828125 101.2421875 C31.64495601 79.94655148 27.16222 58.43745782 16 40 C5.05771458 23.72685758 -10.30559385 14.69786738 -29 10 C-43.97174151 7.19723322 -60.3155165 8.16858524 -75 12 Z " fill="#121212" transform="translate(4049,69)"/>
<path d="M0 0 C9.58879133 -0.04653293 19.17754323 -0.08197501 28.76642323 -0.10362434 C33.21989266 -0.11401983 37.6732843 -0.12810081 42.12670898 -0.15087891 C46.43204694 -0.17275941 50.73731051 -0.1846004 55.04269981 -0.18975449 C56.67757016 -0.19342314 58.31243686 -0.20058634 59.94727516 -0.21146011 C87.27841664 -0.38586234 87.27841664 -0.38586234 97.875 9.75 C103.49382413 18.34349573 104.08182462 26.79238732 102.34375 36.765625 C99.21688604 51.51477964 93.31640712 64.7339591 80.6484375 73.65625 C78.80225014 74.83050344 76.90606808 75.92567072 75 77 C75.928125 77.556875 76.85625 78.11375 77.8125 78.6875 C81.51824834 81.37598409 83.41387515 83.33740794 84.41162109 87.86987305 C85.29691222 94.20483147 84.36889745 99.46563988 82.8125 105.625 C82.46892456 107.05610107 82.46892456 107.05610107 82.1184082 108.51611328 C80.21224942 116.37992676 78.14912127 124.19948576 76 132 C66.43 132 56.86 132 47 132 C49.15733581 121.21332093 49.15733581 121.21332093 50.59985352 115.9387207 C53.44258704 106.08370432 53.44258704 106.08370432 53 96 C50.47323961 92.65374976 48.96066458 91.32022153 45 90 C43.66548737 89.88764839 42.32645611 89.82424351 40.98754883 89.79467773 C40.18694534 89.77473251 39.38634186 89.75478729 38.56147766 89.73423767 C37.70201035 89.71752518 36.84254303 89.70081268 35.95703125 89.68359375 C35.0734343 89.66281265 34.18983734 89.64203156 33.27946472 89.62062073 C30.45722215 89.55524246 27.63488665 89.49629472 24.8125 89.4375 C22.89907894 89.39430363 20.98566727 89.35068898 19.07226562 89.30664062 C14.38160563 89.19957305 9.69085217 89.09827248 5 89 C4.75475586 90.14130371 4.50951172 91.28260742 4.25683594 92.45849609 C2.19899723 101.93604801 -0.06242528 111.30272197 -2.75 120.625 C-3.8225 124.37875 -4.895 128.1325 -6 132 C-15.57 132 -25.14 132 -35 132 C-32.15603688 119.6778164 -29.07083523 107.44412938 -25.82421875 95.22265625 C-25.33085207 93.35872777 -24.8376771 91.49474853 -24.34468079 89.63072205 C-23.31655601 85.74522257 -22.28695567 81.86011856 -21.25610352 77.9753418 C-19.95660384 73.0781607 -18.65956329 68.18033297 -17.36346245 63.28225136 C-14.46085657 52.31319222 -11.55122977 41.34601452 -8.63353729 30.38095856 C-8.22203688 28.83445854 -7.81065804 27.28792616 -7.39942169 25.7413559 C-6.21400318 21.28360454 -5.02454882 16.82695268 -3.83203125 12.37109375 C-3.55139328 11.31680679 -3.27075531 10.26251984 -2.98161316 9.17628479 C-2.72962662 8.23824509 -2.47764008 7.30020538 -2.21801758 6.33374023 C-2.00438065 5.53540268 -1.79074371 4.73706512 -1.57063293 3.91453552 C-1 2 -1 2 0 0 Z M22 25 C17.74304234 39.76167542 17.74304234 39.76167542 13.625 54.5625 C13.30789062 55.71878906 12.99078125 56.87507813 12.6640625 58.06640625 C11.85281398 61.1489134 11.85281398 61.1489134 12 65 C17.10455945 65.04979311 22.2089745 65.08590409 27.3137207 65.10986328 C29.04681871 65.11986161 30.7799001 65.13346473 32.51293945 65.15087891 C35.01778284 65.17540084 37.52240136 65.18654496 40.02734375 65.1953125 C41.17166115 65.21079636 41.17166115 65.21079636 42.33909607 65.22659302 C51.3011755 65.2284223 58.93774908 63.87613876 65.59375 57.46484375 C71.7417729 50.84969166 74.22666535 43.02128088 74 34 C72.80132391 30.12193031 71.88537862 28.58225809 68.50341797 26.3581543 C63.88366126 24.56723398 59.91510864 24.62349622 55.0078125 24.70703125 C53.58890213 24.71339851 53.58890213 24.71339851 52.1413269 24.71989441 C49.13558867 24.73661694 46.1305338 24.77425737 43.125 24.8125 C41.08073889 24.82755514 39.03646721 24.84124209 36.9921875 24.85351562 C31.99453046 24.88649945 26.99738089 24.93823747 22 25 Z " fill="#121212" transform="translate(3937,111)"/>
</svg>
