<?xml version="1.0" encoding="UTF-8"?>
<svg version="1.1" xmlns="http://www.w3.org/2000/svg" width="1024" height="1024">
<path d="M0 0 C51.15 0 102.3 0 155 0 C154.21174529 3.94127357 153.46390745 6.50286787 151.8125 10.03515625 C151.36003906 11.01162109 150.90757812 11.98808594 150.44140625 12.99414062 C149.96574219 14.00669922 149.49007812 15.01925781 149 16.0625 C148.08236089 18.03209931 147.16573387 20.00217041 146.25 21.97265625 C145.49384399 23.59917114 145.49384399 23.59917114 144.72241211 25.25854492 C141.47936431 32.27568197 138.33835848 39.33972251 135.17218018 46.39175415 C132.16315977 53.08719666 129.13731814 59.77506568 126.11276245 66.46350098 C125.31449901 68.2287968 124.51643047 69.99418076 123.71853638 71.75964355 C119.26377694 81.61531571 114.79588167 91.46455847 110.28125 101.29296875 C109.91044815 102.10085342 109.5396463 102.9087381 109.15760803 103.74110413 C107.4092653 107.54946557 105.65762494 111.35624628 103.90014648 115.16040039 C103.27576854 116.51834119 102.65149488 117.87632994 102.02734375 119.234375 C101.48843506 120.40194336 100.94952637 121.56951172 100.39428711 122.77246094 C98.94393771 125.98067568 98.94393771 125.98067568 97.93579102 129.36035156 C97 132 97 132 95 133 C94.31208585 134.99279165 93.65110121 136.99487864 93 139 C91.37738337 142.67911649 89.5896695 146.28141541 87.83398438 149.8984375 C87.48529297 150.62546875 87.13660156 151.3525 86.77734375 152.1015625 C86.46015381 152.75463379 86.14296387 153.40770508 85.81616211 154.08056641 C84.94850737 155.97959793 84.94850737 155.97959793 84.50439453 158.00708008 C83.96514527 160.13771498 83.17038305 161.84031584 82.15234375 163.78515625 C81.79462891 164.48060547 81.43691406 165.17605469 81.06835938 165.89257812 C80.31201747 167.34386631 79.55419475 168.79438369 78.79492188 170.24414062 C78.43849609 170.93830078 78.08207031 171.63246094 77.71484375 172.34765625 C77.38605225 172.97679932 77.05726074 173.60594238 76.71850586 174.25415039 C75.80970965 176.14772054 75.80970965 176.14772054 76 179 C75 180 74 181 73 182 C73 182.99 73 183.98 73 185 C72.34 185 71.68 185 71 185 C70.77699219 185.7528125 70.55398438 186.505625 70.32421875 187.28125 C68.46547674 192.50108007 66.13466647 197.47230534 63.8125 202.5 C63.35552734 203.5003125 62.89855469 204.500625 62.42773438 205.53125 C59.88950242 211.05128843 57.25826165 216.51010739 54.51953125 221.93359375 C51.10230606 228.72505428 47.95394742 235.61229323 44.875 242.5625 C44.31624346 243.81752778 43.75715311 245.07240698 43.19775391 246.32714844 C42.04077976 248.92280227 40.8852139 251.51907651 39.73046875 254.11572266 C38.04739699 257.89731244 36.35353918 261.67399234 34.65625 265.44921875 C29.00116722 278.03055476 23.37280645 290.62199689 17.86474609 303.26855469 C15.24437609 309.26123599 12.52338454 315.20189604 9.74768066 321.12384033 C6.63671363 327.76332431 3.57666632 334.4253304 0.54541016 341.1015625 C-0.07678674 342.46940544 -0.7011958 343.83624395 -1.32763672 345.20214844 C-2.25212763 347.21844172 -3.16974939 349.23773545 -4.0859375 351.2578125 C-4.6226709 352.4348877 -5.1594043 353.61196289 -5.71240234 354.82470703 C-6.83538996 357.59406177 -7.55005491 360.05773231 -8 363 C-8.66 363 -9.32 363 -10 363 C-10.2460498 363.79696289 -10.49209961 364.59392578 -10.74560547 365.41503906 C-12.29435415 369.84124101 -14.16247356 374.07814622 -16.0703125 378.359375 C-16.47023407 379.26262512 -16.87015564 380.16587524 -17.28219604 381.09649658 C-18.56056957 383.98214119 -19.84272432 386.86608758 -21.125 389.75 C-21.96379074 391.64181667 -22.8023346 393.53374282 -23.640625 395.42578125 C-24.47134024 397.29948534 -25.30206933 399.17318329 -26.1328125 401.046875 C-26.54009583 401.96617798 -26.94737915 402.88548096 -27.36700439 403.8326416 C-29.3614637 408.32925162 -31.367767 412.81976992 -33.40136719 417.29882812 C-33.77566864 418.12763489 -34.14997009 418.95644165 -34.53561401 419.81036377 C-35.23841621 421.3651706 -35.9456334 422.91799199 -36.6579895 424.46844482 C-38.50778272 428.56845134 -38.50778272 428.56845134 -39 433 C-39.66 433 -40.32 433 -41 433 C-41.17378174 433.55179932 -41.34756348 434.10359863 -41.52661133 434.67211914 C-43.27655538 440.09102246 -45.32582405 445.25937185 -47.6875 450.4375 C-48.03127686 451.20247803 -48.37505371 451.96745605 -48.72924805 452.75561523 C-50.18060362 455.9848402 -51.64200315 459.20948969 -53.10253906 462.43457031 C-54.1760567 464.80897259 -55.24436668 467.18567182 -56.3125 469.5625 C-56.80012817 470.63165649 -56.80012817 470.63165649 -57.29760742 471.72241211 C-59.27257569 476.11880526 -60.91767758 480.5381113 -62.37573242 485.13256836 C-63.16849374 487.50403153 -64.29580232 489.56313168 -65.4609375 491.78125 C-70.02852108 500.60157971 -74.06697266 509.60263261 -77.9375 518.75 C-78.42202637 519.89275391 -78.90655273 521.03550781 -79.40576172 522.21289062 C-82.09866623 528.47420469 -82.09866623 528.47420469 -84 535 C-84.99 534.67 -85.98 534.34 -87 534 C-88.18359375 531.421875 -88.18359375 531.421875 -89.4375 527.75 C-92.13418552 520.14444793 -95.12214028 512.67134316 -98.21072388 505.21765137 C-98.9797387 503.36140665 -99.7446858 501.50347838 -100.50952148 499.64550781 C-103.41552831 492.63681912 -106.48379851 485.72975086 -109.69238281 478.85473633 C-111.22715781 475.50407837 -112.58532747 472.13927059 -113.875 468.6875 C-114.48988281 467.05361328 -114.48988281 467.05361328 -115.1171875 465.38671875 C-115.55417969 464.20529297 -115.55417969 464.20529297 -116 463 C-116.66 463 -117.32 463 -118 463 C-118.11214844 461.61941406 -118.11214844 461.61941406 -118.2265625 460.2109375 C-119.01615891 454.71146774 -121.26672925 449.72888331 -123.375 444.625 C-123.77460938 443.61566406 -124.17421875 442.60632813 -124.5859375 441.56640625 C-124.9778125 440.60863281 -125.3696875 439.65085937 -125.7734375 438.6640625 C-126.30590088 437.35622803 -126.30590088 437.35622803 -126.84912109 436.02197266 C-127.8928516 433.66457453 -127.8928516 433.66457453 -131 433 C-130.67 432.01 -130.34 431.02 -130 430 C-130.84831178 427.37689257 -131.7565069 424.91129042 -132.8125 422.375 C-133.08642578 421.68148438 -133.36035156 420.98796875 -133.64257812 420.2734375 C-134.98881991 416.44072042 -134.98881991 416.44072042 -138 414 C-138.33720398 412.00064896 -138.66966385 410.00049722 -139 408 C-139.91663757 405.60017336 -140.89957772 403.22491695 -141.9375 400.875 C-142.46214844 399.67617188 -142.98679687 398.47734375 -143.52734375 397.2421875 C-144.33034477 395.47430728 -145.14926717 393.71208768 -146.04296875 391.98828125 C-147.9219546 388.08459228 -149.17497753 383.89256518 -150.5859375 379.80078125 C-151.05257813 378.87652344 -151.51921875 377.95226562 -152 377 C-153.32 376.67 -154.64 376.34 -156 376 C-155.01 378.97 -154.02 381.94 -153 385 C-151.68 385 -150.36 385 -149 385 C-148.67 386.65 -148.34 388.3 -148 390 C-148.66 390 -149.32 390 -150 390 C-143.51805104 406.61573092 -136.94092006 423.19223167 -130.3125 439.75 C-129.92957794 440.70658508 -129.54665588 441.66317017 -129.15213013 442.64874268 C-126.06663018 450.35567745 -122.9789995 458.06175807 -119.89086914 465.76763916 C-117.44715204 471.86555494 -115.00411557 477.96374243 -112.5625 484.0625 C-112.2324295 484.88691589 -111.90235901 485.71133179 -111.56228638 486.56072998 C-106.01609131 500.41790752 -100.53031113 514.29774234 -95.10351562 528.20214844 C-93.6726432 531.82997985 -92.19604654 535.43872337 -90.70800781 539.04345703 C-90 541 -90 541 -90 543 C-90.9178125 542.98839844 -91.835625 542.97679687 -92.78125 542.96484375 C-99.29003027 542.91698507 -105.56870645 542.97099303 -112 544 C-112 544.33 -112 544.66 -112 545 C-115.3 545 -118.6 545 -122 545 C-122 544.67 -122 544.34 -122 544 C-123.41655793 543.9727585 -124.83327045 543.95349533 -126.25 543.9375 C-127.03890625 543.92589844 -127.8278125 543.91429687 -128.640625 543.90234375 C-130.90691002 543.99614694 -132.8288895 544.36758937 -135 545 C-135 544.34 -135 543.68 -135 543 C-135.70511719 543.32742188 -136.41023438 543.65484375 -137.13671875 543.9921875 C-140.23867167 545.08400722 -142.54006053 545.20385396 -145.8125 545.125 C-146.78832031 545.10695313 -147.76414062 545.08890625 -148.76953125 545.0703125 C-149.87361328 545.03550781 -149.87361328 545.03550781 -151 545 C-151 544.67 -151 544.34 -151 544 C-160.9 544 -170.8 544 -181 544 C-181 544.33 -181 544.66 -181 545 C-186.94 545 -192.88 545 -199 545 C-199 544.67 -199 544.34 -199 544 C-205.13792744 543.83175921 -211.27599148 543.67126812 -217.41430664 543.51782227 C-219.50062453 543.46459244 -221.58689038 543.40927921 -223.6730957 543.35180664 C-226.67908511 543.26936238 -229.68518459 543.19451706 -232.69140625 543.12109375 C-233.61772354 543.09405869 -234.54404083 543.06702362 -235.49842834 543.03916931 C-240.47151806 542.92565001 -245.099685 543.12902839 -250 544 C-252.59601329 537.53860932 -255.16100581 531.06550839 -257.70507812 524.58349609 C-258.63325619 522.21864529 -259.56301775 519.85441554 -260.49414062 517.49072266 C-262.78611267 511.66982767 -265.06601912 505.84512721 -267.29917908 500.00137329 C-268.28902122 497.41309389 -269.28581467 494.82751751 -270.28317261 492.24212646 C-270.98995516 490.40116389 -271.68658281 488.55631304 -272.38305664 486.71142578 C-272.81352295 485.59751465 -273.24398926 484.48360352 -273.6875 483.3359375 C-274.06261719 482.35157715 -274.43773437 481.3672168 -274.82421875 480.35302734 C-275.90383207 477.70563323 -275.90383207 477.70563323 -279 476 C-278.67 475.01 -278.34 474.02 -278 473 C-278.50347737 470.9692983 -278.50347737 470.9692983 -279.43359375 468.83984375 C-279.75263672 468.04642578 -280.07167969 467.25300781 -280.40039062 466.43554688 C-280.74263672 465.61119141 -281.08488281 464.78683594 -281.4375 463.9375 C-282.10572247 462.30194596 -282.7712238 460.6652767 -283.43359375 459.02734375 C-283.73322021 458.30281006 -284.03284668 457.57827637 -284.34155273 456.83178711 C-285 455 -285 455 -285 453 C-285.66 453 -286.32 453 -287 453 C-287.15275391 452.01773438 -287.15275391 452.01773438 -287.30859375 451.015625 C-288.20291573 447.11496644 -289.6156142 443.47088487 -291.0625 439.75 C-291.39467529 438.89116211 -291.72685059 438.03232422 -292.0690918 437.14746094 C-292.87335919 435.07039062 -293.67927227 432.99395719 -294.48632812 430.91796875 C-295.98272513 427.05672551 -297.45322654 423.18576999 -298.92445374 419.31488037 C-300.35067399 415.56925307 -301.7871638 411.82760964 -303.22531128 408.08654785 C-303.95091619 406.19339626 -304.67269197 404.29877266 -305.39065552 402.40270996 C-306.41257009 399.70696523 -307.4487444 397.01711452 -308.48828125 394.328125 C-308.79743469 393.50300415 -309.10658813 392.6778833 -309.42510986 391.82775879 C-310.19813989 389.84969428 -311.08923269 387.91854568 -312 386 C-312.99 385.67 -313.98 385.34 -315 385 C-314.79667053 384.45342743 -314.59334106 383.90685486 -314.3838501 383.34371948 C-313.87014665 380.20713887 -314.68920956 378.44737781 -315.85839844 375.50048828 C-316.28924744 374.39899445 -316.72009644 373.29750061 -317.16400146 372.16262817 C-317.64097473 370.977164 -318.117948 369.79169983 -318.609375 368.5703125 C-319.09198792 367.34722382 -319.57460083 366.12413513 -320.07183838 364.86398315 C-321.09425982 362.27395647 -322.12380433 359.68692588 -323.15917969 357.10205078 C-324.48108624 353.80174618 -325.79108567 350.49689267 -327.09646225 347.19001961 C-328.34686875 344.02356524 -329.60294497 340.85938216 -330.859375 337.6953125 C-331.32825134 336.51389679 -331.79712769 335.33248108 -332.2802124 334.11526489 C-332.72367004 333.00746674 -333.16712769 331.89966858 -333.62402344 330.75830078 C-334.01120544 329.78885529 -334.39838745 328.81940979 -334.79730225 327.82058716 C-336.0793565 324.8138918 -337.53576465 321.92135414 -339 319 C-339.35849336 317.67321011 -339.69106527 316.33919686 -340 315 C-340.825035 312.75279052 -341.67770783 310.51566777 -342.546875 308.28515625 C-342.79995422 307.6335704 -343.05303345 306.98198456 -343.31378174 306.31065369 C-344.12360743 304.22705327 -344.93670805 302.14474956 -345.75 300.0625 C-346.28147548 298.69735339 -346.81272752 297.33211976 -347.34375 295.96679688 C-347.73548401 294.95992325 -347.73548401 294.95992325 -348.13513184 293.93270874 C-348.65812109 292.58821251 -349.18098964 291.24366931 -349.70373535 289.89907837 C-350.96600033 286.65317601 -352.23178427 283.40876683 -353.50585938 280.16748047 C-353.96283203 278.99717285 -354.41980469 277.82686523 -354.890625 276.62109375 C-355.29829102 275.58267334 -355.70595703 274.54425293 -356.12597656 273.47436523 C-357 271 -357 271 -357 269 C-357.66 268.67 -358.32 268.34 -359 268 C-359.63842773 266.25976563 -359.63842773 266.25976563 -360.24609375 263.90625 C-362.11865213 257.30135364 -364.66259152 250.99357133 -367.21032715 244.62908936 C-368.67606891 240.96704453 -370.12801668 237.29952555 -371.58203125 233.6328125 C-371.87403412 232.89753326 -372.16603699 232.16225403 -372.46688843 231.4046936 C-375.10852207 224.74617095 -377.68875997 218.06484427 -380.25 211.375 C-381.04814821 209.29816599 -381.84632489 207.22134291 -382.64453125 205.14453125 C-383.8519559 201.99978695 -385.05554734 198.85373039 -386.25146484 195.70458984 C-387.47328867 192.48789364 -388.70468592 189.27499707 -389.9375 186.0625 C-390.48615723 184.60432861 -390.48615723 184.60432861 -391.04589844 183.11669922 C-391.39040039 182.22354004 -391.73490234 181.33038086 -392.08984375 180.41015625 C-392.53638306 179.23658569 -392.53638306 179.23658569 -392.99194336 178.03930664 C-393.89849042 175.93084458 -393.89849042 175.93084458 -395.59619141 174.40478516 C-397.48974209 172.50991722 -397.29602636 170.82877315 -397.56591797 168.25634766 C-398.57412959 163.01568858 -401.01857044 158.09349323 -403.0625 153.1875 C-403.99384046 150.93220763 -404.92237781 148.67575496 -405.84765625 146.41796875 C-406.26023682 145.42563232 -406.67281738 144.4332959 -407.09790039 143.41088867 C-408 141 -408 141 -408 139 C-355.2 139 -302.4 139 -248 139 C-244.88070424 146.48630981 -241.80285768 153.95804709 -238.8828125 161.51953125 C-238.50831467 162.48574402 -238.13381683 163.45195679 -237.74797058 164.44744873 C-236.53877475 167.56853912 -235.33182131 170.69049079 -234.125 173.8125 C-233.2854851 175.98107121 -232.44588453 178.14960925 -231.60620117 180.31811523 C-224.0396928 199.86676171 -216.51003033 219.42959407 -209 239 C-208.34 239 -207.68 239 -207 239 C-206.91081299 240.11785889 -206.82162598 241.23571777 -206.72973633 242.38745117 C-206.07956609 247.53481458 -204.28053324 252.02372001 -202.32421875 256.80078125 C-201.95778763 257.71780319 -201.59135651 258.63482513 -201.21382141 259.57963562 C-200.04721782 262.49423188 -198.86787296 265.40345649 -197.6875 268.3125 C-196.14669697 272.14070707 -194.61046092 275.97074201 -193.07421875 279.80078125 C-192.52675491 281.163134 -192.52675491 281.163134 -191.9682312 282.55300903 C-185 299.93057574 -185 299.93057574 -185 303 C-184.34 303.33 -183.68 303.66 -183 304 C-182.30988301 305.97966252 -181.63367646 307.96467683 -181.00390625 309.96435547 C-179.76867284 313.69949463 -178.37845431 317.36296163 -176.96875 321.03515625 C-176.68999023 321.76262054 -176.41123047 322.49008484 -176.12402344 323.23959351 C-175.25090712 325.51449783 -174.37555144 327.78853192 -173.5 330.0625 C-172.62330648 332.34475929 -171.74716894 334.62723123 -170.87121582 336.90977478 C-170.32969934 338.32027727 -169.787665 339.73058112 -169.24499512 341.14064026 C-167.47196242 345.75134546 -165.72959518 350.37281737 -164 355 C-160.34876769 351.63766991 -158.09768561 348.73401507 -156.125 344.1875 C-155.62162109 343.04474609 -155.11824219 341.90199219 -154.59960938 340.72460938 C-154.06631266 339.48311312 -153.53311221 338.2415755 -153 337 C-152.43157676 335.7006295 -151.86189134 334.4018105 -151.29101562 333.10351562 C-150.10708655 330.4083563 -148.92859999 327.71091541 -147.75390625 325.01171875 C-145.05322635 318.81849753 -142.27251564 312.66133297 -139.5 306.5 C-138.41365983 304.07830559 -137.32772332 301.65643007 -136.2421875 299.234375 C-135.4373291 297.4390332 -135.4373291 297.4390332 -134.61621094 295.60742188 C-133.01605521 292.03583561 -131.41791434 288.46335428 -129.8203125 284.890625 C-123.88257178 271.61786745 -117.90442837 258.36474178 -111.87643433 245.13275146 C-108.12326337 236.89339771 -104.38591519 228.64730934 -100.6796875 220.38671875 C-100.31303986 219.56959412 -99.94639221 218.75246948 -99.56863403 217.9105835 C-98.81933073 216.24054189 -98.07003267 214.57049792 -97.32073975 212.90045166 C-90.4855076 197.66797465 -83.55702354 182.48226197 -76.53890991 167.33319092 C-71.79180087 157.0844587 -67.09577642 146.81770405 -62.5 136.5 C-52.88253959 114.91793344 -42.88876441 93.50600613 -32.92480469 72.08227539 C-27.49420878 60.40580981 -22.10514174 48.71123275 -16.75 37 C-16.42715027 36.29435913 -16.10430054 35.58871826 -15.77166748 34.86169434 C-10.46632382 23.26238726 -5.23435186 11.63189303 0 0 Z M-396 171 C-395 173 -395 173 -395 173 Z M-162 356 C-163.65413638 360.04565887 -162.21661916 362.72949011 -160.625 366.625 C-160.16351563 367.77226563 -159.70203125 368.91953125 -159.2265625 370.1015625 C-158.52756788 371.75332685 -157.80211208 373.39577584 -157 375 C-155.68 375 -154.36 375 -153 375 C-154.99613268 368.2813095 -157.7291421 362.19265192 -161 356 C-161.33 356 -161.66 356 -162 356 Z M-152 386 C-151 388 -151 388 -151 388 Z M-194 543 C-194 543.33 -194 543.66 -194 544 C-192.02 544 -190.04 544 -188 544 C-188 543.67 -188 543.34 -188 543 C-189.98 543 -191.96 543 -194 543 Z M-146 543 C-146 543.33 -146 543.66 -146 544 C-144.02 544 -142.04 544 -140 544 C-140 543.67 -140 543.34 -140 543 C-141.98 543 -143.96 543 -146 543 Z " fill="#282828" transform="translate(551,239)"/>
<path d="M0 0 C0.33 0.66 0.66 1.32 1 2 C48.19 2 95.38 2 144 2 C152.27103425 37.44728966 152.27103425 37.44728966 155.81567383 54.11621094 C156.30411944 56.40707969 156.80165437 58.6958135 157.30078125 60.984375 C157.44348953 61.66739685 157.58619781 62.3504187 157.73323059 63.05413818 C158.57567703 66.92427179 158.57567703 66.92427179 161 70 C161.30419922 72.0919342 161.30419922 72.0919342 161.4296875 74.71899414 C161.96174646 81.80800318 163.52407706 88.58522616 165.125 95.49609375 C165.43566795 96.86070635 165.7457149 98.22546045 166.05517578 99.59034729 C166.86389136 103.14936271 167.68114109 106.70636355 168.50024414 110.26300049 C169.33372736 113.889589 170.15855982 117.51814367 170.984375 121.14648438 C173.89971864 134.09527424 173.89971864 134.09527424 177 147 C177.45232048 149.07428482 177.89821451 151.14997517 178.33984375 153.2265625 C178.59830078 154.4228125 178.85675781 155.6190625 179.12304688 156.8515625 C179.66745415 159.37385232 180.20649085 161.89730711 180.74023438 164.421875 C180.99998047 165.61554688 181.25972656 166.80921875 181.52734375 168.0390625 C181.76187256 169.13428223 181.99640137 170.22950195 182.23803711 171.35791016 C182.80656324 174.12888142 182.80656324 174.12888142 185 176 C185.02902315 178.33315282 185.02458397 180.66679618 185 183 C185.38443097 185.22572598 185.84186053 187.43974694 186.36108398 189.63793945 C186.65816757 190.91228348 186.95525116 192.1866275 187.26133728 193.49958801 C187.58934848 194.87087675 187.91760644 196.24210649 188.24609375 197.61328125 C188.58061002 199.033238 188.91450836 200.45334046 189.24781799 201.87358093 C189.94506825 204.83751721 190.64736241 207.80019354 191.35375977 210.76196289 C192.25982995 214.56122651 193.15684939 218.36255186 194.05059719 222.16473103 C194.9042087 225.794177 195.762573 229.42249405 196.62109375 233.05078125 C196.78452208 233.74350946 196.9479504 234.43623768 197.1163311 235.14995766 C197.57808178 237.10361015 198.04370677 239.05634572 198.50952148 241.0090332 C198.77377426 242.12043167 199.03802704 243.23183014 199.31028748 244.37690735 C199.89261073 246.95610798 199.89261073 246.95610798 201 249 C201.04022391 251.3329866 201.04320247 253.66706666 201 256 C201.66 256.33 202.32 256.66 203 257 C203.24671231 258.81902675 203.48121736 260.64021416 203.6685791 262.46630859 C204.34751707 267.6567456 205.70852674 272.72584167 206.921875 277.8125 C207.37665149 279.74254459 207.83142666 281.67258949 208.28614902 283.60264683 C208.77069709 285.65578949 209.25727904 287.70844027 209.74447632 289.76095581 C210.76000602 294.03960849 211.76991821 298.31957356 212.77856445 302.59985352 C213.1219635 304.05696106 213.46536254 305.5140686 213.8087616 306.97117615 C213.97977072 307.69685728 214.15077984 308.42253841 214.32697105 309.17020988 C214.85013276 311.38941138 215.37383586 313.60848452 215.8976593 315.82752991 C219.36538157 330.52212504 222.78100149 345.22859906 226.1875 359.9375 C226.72034517 362.23763772 227.25322187 364.53776814 227.78613281 366.83789062 C228.16486038 368.47342392 228.16486038 368.47342392 228.55123901 370.14199829 C229.03675928 372.23523887 229.52362504 374.32816792 230.01199341 376.42074585 C231.08378709 381.01588123 232.14011829 385.61245034 233.14306641 390.22314453 C233.31929031 391.01676895 233.49551422 391.81039337 233.67707825 392.62806702 C233.99727027 394.07321727 234.30911448 395.52025675 234.61039734 396.96946716 C235.39462923 400.46723073 236.0886783 402.78407239 239 405 C238.34 405 237.68 405 237 405 C236.67 405.66 236.34 406.32 236 407 C234.77023437 406.98259766 234.77023437 406.98259766 233.515625 406.96484375 C232.43796875 406.95582031 231.3603125 406.94679688 230.25 406.9375 C229.18265625 406.92589844 228.1153125 406.91429687 227.015625 406.90234375 C224.11082105 406.87028615 224.11082105 406.87028615 221.859375 407.62890625 C220 408 220 408 218.27514648 407.02392578 C215.2761365 405.67422647 213.0162504 405.8516693 209.73828125 405.98828125 C207.93713867 406.05885742 207.93713867 406.05885742 206.09960938 406.13085938 C204.84986328 406.19080078 203.60011719 406.25074219 202.3125 406.3125 C201.05115234 406.36083984 199.78980469 406.40917969 198.49023438 406.45898438 C192.86295068 406.1632044 192.86295068 406.1632044 188 408 C185.3337397 408.08855161 182.69352886 408.11524673 180.02734375 408.09765625 C179.22970108 408.0962413 178.43205841 408.09482635 177.61024475 408.09336853 C175.05262565 408.08775316 172.49509282 408.07519812 169.9375 408.0625 C168.20768355 408.05748698 166.47786574 408.05292373 164.74804688 408.04882812 C160.49866447 408.03777875 156.24934688 408.02050386 152 408 C152 407.67 152 407.34 152 407 C134.84 406.67 117.68 406.34 100 406 C97.8186091 399.45582729 96.32398528 392.87641085 94.85839844 386.15014648 C94.37536479 383.93916976 93.88327981 381.73033458 93.390625 379.52148438 C93.0801772 378.10689186 92.77026309 376.69218208 92.4609375 375.27734375 C92.18040527 374.00109131 91.89987305 372.72483887 91.61083984 371.40991211 C91.0893983 368.49905116 90.86863375 365.94239327 91 363 C90.34 362.67 89.68 362.34 89 362 C88.65625 360.25 88.65625 360.25 88.5 358 C88.26328866 354.68604126 87.71056142 351.55924749 86.97851562 348.32421875 C86.70473083 347.10931763 86.70473083 347.10931763 86.42541504 345.86987305 C86.28502808 345.25281494 86.14464111 344.63575684 86 344 C85.15962692 344.00333092 85.15962692 344.00333092 84.30227661 344.00672913 C47.18428422 344.14630199 10.10976825 343.76909515 -27 343 C-27.28460083 343.98274902 -27.28460083 343.98274902 -27.57495117 344.98535156 C-28.95403014 349.67689454 -30.3763555 354.25228976 -32.3125 358.75 C-32.74272461 359.75869141 -33.17294922 360.76738281 -33.61621094 361.80664062 C-34.07286133 362.86044922 -34.52951172 363.91425781 -35 365 C-38.06857031 372.1016073 -41.10296104 379.2010907 -43.921875 386.40625 C-44.39625 387.59476563 -44.870625 388.78328125 -45.359375 390.0078125 C-46.27076485 392.29652747 -47.16219256 394.59331563 -48.03125 396.8984375 C-51.05422562 404.38123518 -51.05422562 404.38123518 -53.78149414 406.16552734 C-57.33626705 407.26582529 -60.47552247 407.06802349 -64 406 C-63.67 406.66 -63.34 407.32 -63 408 C-67.74418605 407.07751938 -67.74418605 407.07751938 -70.0625 406.375 C-71.99457274 405.85838368 -71.99457274 405.85838368 -73.85612869 406.47141933 C-76.08377339 407.02065469 -77.94949207 407.10844489 -80.23944092 407.08229065 C-81.07794083 407.07525116 -81.91644073 407.06821167 -82.78034973 407.06095886 C-83.69169174 407.04801285 -84.60303375 407.03506683 -85.54199219 407.02172852 C-86.99127357 407.0073172 -86.99127357 407.0073172 -88.46983337 406.99261475 C-91.66225514 406.95964346 -94.85453928 406.91930382 -98.046875 406.87890625 C-100.2607576 406.85460332 -102.47464529 406.83075984 -104.6885376 406.80735779 C-110.51484982 406.74453416 -116.34107193 406.67546253 -122.16729736 406.60510254 C-128.11279193 406.53440363 -134.05835036 406.46959597 -140.00390625 406.40429688 C-151.66934103 406.27530668 -163.33468912 406.13971775 -175 406 C-175.33 405.34 -175.66 404.68 -176 404 C-175.19555664 401.70922852 -175.19555664 401.70922852 -173.91015625 398.87890625 C-173.22856445 397.35233398 -173.22856445 397.35233398 -172.53320312 395.79492188 C-171.80520508 394.19487305 -171.80520508 394.19487305 -171.0625 392.5625 C-170.11091524 390.46187984 -169.16406993 388.35910432 -168.22265625 386.25390625 C-167.79734619 385.31877197 -167.37203613 384.3836377 -166.93383789 383.42016602 C-165.82000603 380.96586837 -165.82000603 380.96586837 -166 378 C-165.34 377.67 -164.68 377.34 -164 377 C-162.91685964 374.75464419 -161.93699789 372.53112091 -160.99609375 370.2265625 C-160.57107323 369.20724136 -160.57107323 369.20724136 -160.13746643 368.16732788 C-159.23116901 365.98910942 -158.33439074 363.80710612 -157.4375 361.625 C-156.82936802 360.16121225 -156.22065118 358.69766734 -155.61132812 357.234375 C-152.63441714 350.18222209 -152.63441714 350.18222209 -150 343 C-149.22447635 341.42942513 -148.43072658 339.86779645 -147.625 338.3125 C-145.42316958 333.94084251 -143.49880905 329.6629615 -142 325 C-142.33 324.34 -142.66 323.68 -143 323 C-142.01 323 -141.02 323 -140 323 C-139.60393555 321.74687012 -139.20787109 320.49374023 -138.79980469 319.20263672 C-136.92119361 313.57626095 -134.58709395 308.18544327 -132.203125 302.7578125 C-131.73764755 301.68935593 -131.2721701 300.62089935 -130.79258728 299.52006531 C-129.79758063 297.23714931 -128.80086558 294.95497728 -127.80258179 292.67349243 C-125.70110765 287.87048293 -123.60812857 283.06378843 -121.51481628 278.25721741 C-120.46737716 275.85220615 -119.41953689 273.44736956 -118.37129211 271.04270935 C-114.27650925 261.64686555 -110.21635212 252.23677682 -106.1875 242.8125 C-105.60987303 241.46239817 -105.03223632 240.11230051 -104.45458984 238.76220703 C-102.96839011 235.28750059 -101.48340637 231.8122755 -99.99859619 228.3369751 C-96.86110525 220.99442936 -93.72083722 213.65307377 -90.57852173 206.31259155 C-89.409651 203.58097828 -88.24225915 200.84873644 -87.07495117 198.11645508 C-86.34965951 196.42129561 -85.62416153 194.72622441 -84.8984375 193.03125 C-84.38368614 191.8274897 -84.38368614 191.8274897 -83.85853577 190.59941101 C-81.60723656 185.35487479 -79.26733566 180.1605822 -76.79931641 175.01367188 C-75.81552933 172.89635926 -75.81552933 172.89635926 -76 170 C-75.34 170 -74.68 170 -74 170 C-73.60683594 168.74832031 -73.21367188 167.49664063 -72.80859375 166.20703125 C-70.91542858 160.53637713 -68.50993053 155.13689109 -66.0625 149.6875 C-65.08619872 147.48874312 -64.11098173 145.28950455 -63.13671875 143.08984375 C-62.37367432 141.36870361 -62.37367432 141.36870361 -61.59521484 139.61279297 C-59.09726181 133.95550663 -56.62681747 128.28665336 -54.17770386 122.60806274 C-53.38782599 120.77968902 -52.59251615 118.95366504 -51.79711914 117.12768555 C-51.07383423 115.44799683 -51.07383423 115.44799683 -50.3359375 113.734375 C-49.90845215 112.74663086 -49.4809668 111.75888672 -49.04052734 110.74121094 C-48.05874636 108.154764 -47.53359946 105.7044397 -47 103 C-46.00709697 101.99295305 -45.00601307 100.99395056 -44 100 C-42.8947796 97.76024301 -41.89480324 95.55153443 -40.9375 93.25 C-40.33115093 91.82534125 -39.72435109 90.4008743 -39.1171875 88.9765625 C-38.78557617 88.19313477 -38.45396484 87.40970703 -38.11230469 86.60253906 C-36.86840583 83.69209967 -35.59647709 80.79487052 -34.3203125 77.8984375 C-33.86406494 76.86041992 -33.40781738 75.82240234 -32.93774414 74.75292969 C-32.02740949 72.6824153 -31.11516438 70.61273973 -30.20092773 68.54394531 C-29.78528564 67.59358398 -29.36964355 66.64322266 -28.94140625 65.6640625 C-28.56701416 64.81279785 -28.19262207 63.9615332 -27.80688477 63.08447266 C-26.87966965 61.0616758 -26.87966965 61.0616758 -27 59 C-26.34 59 -25.68 59 -25 59 C-24.82984375 58.45472656 -24.6596875 57.90945313 -24.484375 57.34765625 C-22.9267923 52.50092286 -21.10514978 47.91007664 -18.984375 43.28515625 C-17.40077679 39.60894612 -16.19151728 35.8182713 -15 32 C-14.34 32 -13.68 32 -13 32 C-12.443125 30.1746875 -12.443125 30.1746875 -11.875 28.3125 C-10.1127709 22.97497916 -7.73549814 17.97913419 -5.3046875 12.91796875 C-3.51152346 8.90750906 -3 6.42422607 -3 2 C-2.01 2 -1.02 2 0 2 C0 1.34 0 0.68 0 0 Z M55 113 C54.72961914 113.69109863 54.45923828 114.38219727 54.18066406 115.09423828 C38.35052878 155.53207339 22.09553436 195.78768607 5.13964844 235.76757812 C4.81694473 236.52994278 4.49424103 237.29230743 4.16175842 238.07777405 C3.56622376 239.48433962 2.96937627 240.89035053 2.37083435 242.29563904 C0.97855012 245.58551922 -0.3495435 248.88839963 -1.59721375 252.23609924 C-1.86161601 252.94451241 -2.12601828 253.65292559 -2.39843273 254.38280582 C-2.59694993 254.9164799 -2.79546713 255.45015398 -3 256 C7.86588177 256.0231729 18.73175766 256.04094036 29.59765911 256.05181217 C34.64315857 256.05703015 39.68864113 256.06410816 44.73413086 256.07543945 C49.60353067 256.08630681 54.47291421 256.09228502 59.34232521 256.09487724 C61.19985014 256.09672454 63.05737419 256.10033182 64.9148922 256.10573006 C67.51709287 256.11299152 70.11922637 256.11398878 72.72143555 256.11352539 C73.4889212 256.11712067 74.25640686 256.12071594 75.04714966 256.12442017 C78.82505679 256.11714312 82.32734903 255.9130819 86 255 C84.58017796 245.9608517 82.8197343 237.01570695 80.9375 228.0625 C80.4048667 225.51173571 79.8723114 222.96095513 79.33984375 220.41015625 C79.10644287 219.29777588 78.87304199 218.18539551 78.63256836 217.03930664 C78.25621 215.23101437 77.88479231 213.42166473 77.52394104 211.61021423 C77.02717791 209.13539724 76.51064917 206.66595872 75.984375 204.19726562 C75.7874707 203.2728064 75.59056641 202.34834717 75.38769531 201.39587402 C75.17725586 200.4092981 74.96681641 199.42272217 74.75 198.40625 C74.42273926 196.86982849 74.42273926 196.86982849 74.08886719 195.30236816 C73.39287188 192.03484944 72.69648407 188.76741457 72 185.5 C71.08298128 181.19799158 70.16636572 176.89589756 69.25 172.59375 C69.03956055 171.60717407 68.82912109 170.62059814 68.61230469 169.60412598 C68.41540039 168.67966675 68.21849609 167.75520752 68.015625 166.80273438 C67.84321289 165.99396851 67.67080078 165.18520264 67.49316406 164.35192871 C66.97991363 161.90420693 66.48731636 159.45300817 66 157 C64.87966143 151.4100923 63.75090169 145.82192463 62.61645508 140.23486328 C62.24722209 138.41196863 61.87970809 136.58872496 61.51391602 134.76513672 C60.9837806 132.12375189 60.44756796 129.48366275 59.91015625 126.84375 C59.74862564 126.03216431 59.58709503 125.22057861 59.42066956 124.38439941 C58.60330605 120.39998532 57.68614328 116.72849426 56 113 C55.67 113 55.34 113 55 113 Z M157 406 C157 406.33 157 406.66 157 407 C161.95 407 166.9 407 172 407 C172 406.67 172 406.34 172 406 C167.05 406 162.1 406 157 406 Z M173 406 C173 406.33 173 406.66 173 407 C177.95 407 182.9 407 188 407 C188 406.67 188 406.34 188 406 C183.05 406 178.1 406 173 406 Z " fill="#282828" transform="translate(647,376)"/>
<path d="M0 0 C0.99 0.495 0.99 0.495 2 1 C2 1.66 2 2.32 2 3 C53.81 2.67 105.62 2.34 159 2 C159.99 3.98 159.99 3.98 161 6 C160.0821875 5.98839844 159.164375 5.97679687 158.21875 5.96484375 C151.70996973 5.91698507 145.43129355 5.97099303 139 7 C139 7.33 139 7.66 139 8 C135.7 8 132.4 8 129 8 C129 7.67 129 7.34 129 7 C127.58344207 6.9727585 126.16672955 6.95349533 124.75 6.9375 C123.96109375 6.92589844 123.1721875 6.91429687 122.359375 6.90234375 C120.09308998 6.99614694 118.1711105 7.36758937 116 8 C116 7.34 116 6.68 116 6 C115.29488281 6.32742188 114.58976562 6.65484375 113.86328125 6.9921875 C110.76132833 8.08400722 108.45993947 8.20385396 105.1875 8.125 C103.72376953 8.09792969 103.72376953 8.09792969 102.23046875 8.0703125 C101.49441406 8.04710937 100.75835937 8.02390625 100 8 C100 7.67 100 7.34 100 7 C90.1 7 80.2 7 70 7 C70 7.33 70 7.66 70 8 C64.06 8 58.12 8 52 8 C52 7.67 52 7.34 52 7 C45.86207256 6.83175921 39.72400852 6.67126812 33.58569336 6.51782227 C31.49937547 6.46459244 29.41310962 6.40927921 27.3269043 6.35180664 C24.32091489 6.26936238 21.31481541 6.19451706 18.30859375 6.12109375 C17.38227646 6.09405869 16.45595917 6.06702362 15.50157166 6.03916931 C11.56770434 5.94937204 7.8111286 5.93908255 3.91821289 6.55493164 C2.95520264 6.7018042 1.99219238 6.84867676 1 7 C0 6 0 6 -0.0625 2.9375 C-0.041875 1.968125 -0.02125 0.99875 0 0 Z M57 6 C57 6.33 57 6.66 57 7 C58.98 7 60.96 7 63 7 C63 6.67 63 6.34 63 6 C61.02 6 59.04 6 57 6 Z M105 6 C105 6.33 105 6.66 105 7 C106.98 7 108.96 7 111 7 C111 6.67 111 6.34 111 6 C109.02 6 107.04 6 105 6 Z " fill="#333232" transform="translate(300,776)"/>
<path d="M0 0 C0.33 0.66 0.66 1.32 1 2 C48.19 2 95.38 2 144 2 C144 4.64 144 7.28 144 10 C142 6.25 142 6.25 142 4 C95.47 4 48.94 4 1 4 C0.67 4.99 0.34 5.98 0 7 C-0.33 6.01 -0.66 5.02 -1 4 C-1.66 4 -2.32 4 -3 4 C-3 3.34 -3 2.68 -3 2 C-2.01 2 -1.02 2 0 2 C0 1.34 0 0.68 0 0 Z " fill="#141314" transform="translate(647,376)"/>
<path d="M0 0 C0.66 0.66 1.32 1.32 2 2 C4.22424499 2.29831605 4.22424499 2.29831605 6.83413696 2.24050903 C7.85499893 2.24325836 8.8758609 2.24600769 9.92765808 2.24884033 C11.05190689 2.24164978 12.1761557 2.23445923 13.33447266 2.22705078 C14.51494675 2.22734283 15.69542084 2.22763489 16.91166687 2.22793579 C20.15324919 2.22677917 23.39466002 2.21673177 26.63620806 2.20278788 C30.02214345 2.19030614 33.40808202 2.18911204 36.79403687 2.18673706 C43.20783459 2.18051475 49.62156433 2.16409382 56.03533208 2.14403808 C63.33631825 2.1217024 70.63730763 2.11069153 77.93831944 2.10064721 C92.95891754 2.07972821 107.97945198 2.0445377 123 2 C120.40840562 4.59159438 118.58045135 4.56157739 115 5 C114.01 5 113.02 5 112 5 C111.38125 5.20625 110.7625 5.4125 110.125 5.625 C107.27675464 6.12763153 105.64909325 5.0596373 103 4 C101.66019485 4.3062859 100.32712579 4.64275217 99 5 C97.5885459 5.07439157 96.17388007 5.09843264 94.76055908 5.08229065 C93.50280922 5.07173141 93.50280922 5.07173141 92.21965027 5.06095886 C91.30830826 5.04801285 90.39696625 5.03506683 89.45800781 5.02172852 C88.49182022 5.01212097 87.52563263 5.00251343 86.53016663 4.99261475 C83.33774486 4.95964346 80.14546072 4.91930382 76.953125 4.87890625 C74.7392424 4.85460332 72.52535471 4.83075984 70.3114624 4.80735779 C64.48515018 4.74453416 58.65892807 4.67546253 52.83270264 4.60510254 C46.88720807 4.53440363 40.94164964 4.46959597 34.99609375 4.40429688 C23.33065897 4.27530668 11.66531088 4.13971775 0 4 C-0.33 3.34 -0.66 2.68 -1 2 C-0.67 1.34 -0.34 0.68 0 0 Z " fill="#414040" transform="translate(472,778)"/>
<path d="M0 0 C0.90167908 -0.0040535 1.80335815 -0.00810699 2.73236084 -0.01228333 C5.63411055 -0.02168152 8.53573722 -0.02168771 11.4375 -0.01953125 C12.42061157 -0.02025635 13.40372314 -0.02098145 14.41662598 -0.02172852 C29.18657823 -0.02052118 43.75497861 0.43332487 58.4375 2.16796875 C58.4375 2.49796875 58.4375 2.82796875 58.4375 3.16796875 C33.3575 3.16796875 8.2775 3.16796875 -17.5625 3.16796875 C-17.5625 2.50796875 -17.5625 1.84796875 -17.5625 1.16796875 C-11.66941047 0.32011825 -5.94968806 0.00840151 0 0 Z " fill="#181919" transform="translate(661.5625,630.83203125)"/>
<path d="M0 0 C71.775 0.495 71.775 0.495 145 1 C145 1.33 145 1.66 145 2 C144.30039123 2.00423194 143.60078245 2.00846388 142.87997341 2.01282406 C125.84492449 2.11619757 108.80991735 2.22484525 91.77493954 2.33933926 C83.53690417 2.39458127 75.29886447 2.44804824 67.06079102 2.49731445 C59.87921267 2.54026703 52.69766506 2.58657255 45.51613432 2.63687855 C41.71475015 2.66339051 37.91337172 2.68824091 34.11195183 2.70907402 C30.53084831 2.72875275 26.94980278 2.75292898 23.36875153 2.78049088 C21.43423432 2.79422765 19.49968543 2.8032529 17.56513977 2.81211853 C11.94581515 2.85944162 6.53355014 2.98819846 1 4 C0.67 2.68 0.34 1.36 0 0 Z " fill="#212121" transform="translate(300,779)"/>
<path d="M0 0 C1.32 0.66 2.64 1.32 4 2 C3.34 2.33 2.68 2.66 2 3 C1.67 3.66 1.34 4.32 1 5 C0.18015625 4.98839844 -0.6396875 4.97679687 -1.484375 4.96484375 C-3.10085938 4.95130859 -3.10085938 4.95130859 -4.75 4.9375 C-5.81734375 4.92589844 -6.8846875 4.91429687 -7.984375 4.90234375 C-10.89810355 4.87432418 -10.89810355 4.87432418 -13.203125 5.62890625 C-13.79609375 5.75136719 -14.3890625 5.87382813 -15 6 C-15.99 5.34 -16.98 4.68 -18 4 C-20.22131423 3.6349209 -20.22131423 3.6349209 -22.66796875 3.5859375 C-23.56064453 3.54726563 -24.45332031 3.50859375 -25.37304688 3.46875 C-26.30181641 3.4378125 -27.23058594 3.406875 -28.1875 3.375 C-29.12787109 3.33632813 -30.06824219 3.29765625 -31.03710938 3.2578125 C-33.3578771 3.16356813 -35.67863748 3.07795975 -38 3 C-38 2.67 -38 2.34 -38 2 C-25.46 2 -12.92 2 0 2 C0 1.34 0 0.68 0 0 Z " fill="#3C3B3C" transform="translate(882,778)"/>
<path d="M0 0 C15.84 0.33 31.68 0.66 48 1 C48 1.33 48 1.66 48 2 C46.82493896 2.02505615 45.64987793 2.0501123 44.43920898 2.07592773 C40.0575977 2.17047571 35.67612753 2.27057859 31.29467773 2.37231445 C29.40245884 2.41548479 27.51020547 2.45717159 25.61791992 2.49731445 C22.88970576 2.55545319 20.16166228 2.61901936 17.43359375 2.68359375 C16.59477158 2.70030624 15.7559494 2.71701874 14.89170837 2.73423767 C10.17859596 2.85169851 5.65277825 3.23227793 1 4 C0.67 2.68 0.34 1.36 0 0 Z " fill="#212121" transform="translate(300,779)"/>
<path d="M0 0 C2.70572453 3.25644722 4.25072398 6.57530636 5.8125 10.5 C6.50279297 12.18609375 6.50279297 12.18609375 7.20703125 13.90625 C8 17 8 17 7.13671875 19.40625 C6.76160156 19.9321875 6.38648438 20.458125 6 21 C4.98968935 18.44114774 3.99159855 15.87859624 3 13.3125 C2.71382812 12.59126953 2.42765625 11.87003906 2.1328125 11.12695312 C0.6609498 7.28959679 -0.39614998 4.18433411 0 0 Z " fill="#222222" transform="translate(205,533)"/>
<path d="M0 0 C0.33 0.99 0.66 1.98 1 3 C1.66 3 2.32 3 3 3 C3.66 5.97 4.32 8.94 5 12 C5.33 12 5.66 12 6 12 C6.1875 14.375 6.1875 14.375 6 17 C5.01 17.66 4.02 18.32 3 19 C3 17.35 3 15.7 3 14 C2.34 13.67 1.68 13.34 1 13 C0.5859375 10.05859375 0.5859375 10.05859375 0.375 6.4375 C0.30023437 5.23996094 0.22546875 4.04242187 0.1484375 2.80859375 C0.09945312 1.88175781 0.05046875 0.95492187 0 0 Z " fill="#2F2F30" transform="translate(722,576)"/>
<path d="M0 0 C0.66 0.33 1.32 0.66 2 1 C0.88288256 3.64942024 -0.24319023 6.29436488 -1.375 8.9375 C-1.69210937 9.69224609 -2.00921875 10.44699219 -2.3359375 11.22460938 C-4.7734375 16.88671875 -4.7734375 16.88671875 -7 18 C-6.44380331 13.3110507 -5.11817327 9.80075733 -2.9375 5.625 C-2.38964844 4.56539062 -1.84179688 3.50578125 -1.27734375 2.4140625 C-0.85582031 1.61742187 -0.43429687 0.82078125 0 0 Z " fill="#1D1E1E" transform="translate(429,508)"/>
<path d="M0 0 C0.69738281 0.00451172 1.39476562 0.00902344 2.11328125 0.01367188 C3.82555803 0.0253998 5.53779033 0.04333347 7.25 0.0625 C4.65840562 2.65409438 2.83045135 2.62407739 -0.75 3.0625 C-1.74 3.0625 -2.73 3.0625 -3.75 3.0625 C-4.389375 3.289375 -5.02875 3.51625 -5.6875 3.75 C-7.75 4.0625 -7.75 4.0625 -10 2.625 C-10.5775 2.109375 -11.155 1.59375 -11.75 1.0625 C-7.88276369 -0.20332219 -4.01848738 -0.0493765 0 0 Z " fill="#444342" transform="translate(587.75,779.9375)"/>
<path d="M0 0 C2.96656949 5.49687876 4.4036063 11.74410231 4 18 C1.29971488 15.17745787 0.07075428 13.60353399 -0.390625 9.66796875 C-0.34421875 8.51941406 -0.2978125 7.37085938 -0.25 6.1875 C-0.21390625 5.02605469 -0.1778125 3.86460937 -0.140625 2.66796875 C-0.07101562 1.34732422 -0.07101562 1.34732422 0 0 Z " fill="#1C1C1D" transform="translate(736,725)"/>
<path d="M0 0 C3.15842999 2.57923366 3.99251691 5.35531286 5.1875 9.1875 C5.70376953 10.81751953 5.70376953 10.81751953 6.23046875 12.48046875 C6.48441406 13.31191406 6.73835937 14.14335938 7 15 C6.01 15 5.02 15 4 15 C3.32532438 13.25307205 2.66055844 11.50231475 2 9.75 C1.62875 8.77546875 1.2575 7.8009375 0.875 6.796875 C0 4 0 4 0 0 Z " fill="#202121" transform="translate(241,626)"/>
<path d="M0 0 C3.5682233 5.35233495 4.32665309 11.63026469 4 18 C-0.65870821 12.53108167 -0.13414356 6.84132146 0 0 Z " fill="#1C1B1C" transform="translate(707,499)"/>
<path d="M0 0 C3 2 3 2 3.765625 4.42578125 C3.92546875 5.37839844 4.0853125 6.33101562 4.25 7.3125 C4.42015625 8.25738281 4.5903125 9.20226562 4.765625 10.17578125 C5.00260799 13.03142626 4.70467681 15.23666022 4 18 C3.67 18 3.34 18 3 18 C2.49490792 15.75113762 1.99610821 13.50086131 1.5 11.25 C1.2215625 9.99703125 0.943125 8.7440625 0.65625 7.453125 C0 4 0 4 0 0 Z " fill="#323232" transform="translate(738,740)"/>
<path d="M0 0 C1.87425811 3.56814829 2.93883222 7.10905149 4 11 C4.33 11.99 4.66 12.98 5 14 C4.34 14.66 3.68 15.32 3 16 C3 15.34 3 14.68 3 14 C2.34 14 1.68 14 1 14 C-0.04976964 10.85069107 -0.10131595 8.61185544 -0.0625 5.3125 C-0.05347656 4.31863281 -0.04445313 3.32476562 -0.03515625 2.30078125 C-0.02355469 1.54152344 -0.01195312 0.78226562 0 0 Z " fill="#303031" transform="translate(803,435)"/>
<path d="M0 0 C0.99 0.33 1.98 0.66 3 1 C2.37720331 2.58420129 1.75166599 4.16732531 1.125 5.75 C0.77695312 6.63171875 0.42890625 7.5134375 0.0703125 8.421875 C-0.8646709 10.6740248 -1.87780794 12.83649459 -3 15 C-4.43410153 11.21180727 -3.51009497 8.93478721 -2.0625 5.25 C-1.49208984 3.77273438 -1.49208984 3.77273438 -0.91015625 2.265625 C-0.60980469 1.51796875 -0.30945313 0.7703125 0 0 Z " fill="#1B1B1B" transform="translate(395,582)"/>
<path d="M0 0 C2.2477975 2.05233685 3.0022242 3.00667261 4 6 C4.06802967 7.72795352 4.08495645 9.45835365 4.0625 11.1875 C4.05347656 12.08855469 4.04445313 12.98960937 4.03515625 13.91796875 C4.02355469 14.60503906 4.01195312 15.29210937 4 16 C2.14353999 13.21530998 1.54842185 11.7318584 0.875 8.5625 C0.70742188 7.80066406 0.53984375 7.03882813 0.3671875 6.25390625 C0 4 0 4 0 0 Z " fill="#1C1C1D" transform="translate(831,565)"/>
<path d="M0 0 C0.99 0.33 1.98 0.66 3 1 C1.02 5.29 -0.96 9.58 -3 14 C-4.10084497 9.59662012 -3.7915332 8.73201586 -2.0625 4.75 C-1.68222656 3.85796875 -1.30195313 2.9659375 -0.91015625 2.046875 C-0.60980469 1.37140625 -0.30945313 0.6959375 0 0 Z " fill="#212121" transform="translate(493,729)"/>
<path d="M0 0 C0.66 0.99 1.32 1.98 2 3 C1.67 3.66 1.34 4.32 1 5 C1 5.66 1 6.32 1 7 C0.67 7.99 0.34 8.98 0 10 C-0.99 9.67 -1.98 9.34 -3 9 C-3.33 6.36 -3.66 3.72 -4 1 C-3.01 1 -2.02 1 -1 1 C-0.67 0.67 -0.34 0.34 0 0 Z " fill="#313031" transform="translate(401,624)"/>
<path d="M0 0 C3.44517108 4.19412131 4.14140424 7.38451164 4.0625 12.75 C4.05347656 13.54921875 4.04445313 14.3484375 4.03515625 15.171875 C4.01775391 16.07679688 4.01775391 16.07679688 4 17 C0.68341387 12.0251208 -0.38479461 5.96431647 0 0 Z " fill="#1A191A" transform="translate(826,542)"/>
<path d="M0 0 C2.94832329 2.43557141 3.5808494 4.22764462 4 8 C4.06955793 10.67301197 4.04534031 13.32492162 4 16 C2.14353999 13.21530998 1.54842185 11.7318584 0.875 8.5625 C0.70742188 7.80066406 0.53984375 7.03882813 0.3671875 6.25390625 C0 4 0 4 0 0 Z " fill="#1B1C1C" transform="translate(855,668)"/>
<path d="M0 0 C0.33 0 0.66 0 1 0 C0.49202991 4.3177458 -0.19682779 8.03302114 -2 12 C-2.66 12 -3.32 12 -4 12 C-4.33 12.66 -4.66 13.32 -5 14 C-4.34580901 8.93001981 -2.1453591 4.58009223 0 0 Z " fill="#202020" transform="translate(675,552)"/>
<path d="M0 0 C2.55382735 2.22071943 3.38617539 3.69479056 4 7 C4.06548492 8.58211573 4.08578381 10.16670081 4.0625 11.75 C4.05347656 12.54921875 4.04445313 13.3484375 4.03515625 14.171875 C4.01775391 15.07679688 4.01775391 15.07679688 4 16 C2.60025314 13.36518239 1.58775959 10.89629292 0.875 8 C0.70742188 7.34 0.53984375 6.68 0.3671875 6 C0 4 0 4 0 0 Z " fill="#1A1A1B" transform="translate(851,651)"/>
<path d="M0 0 C0.99 0.33 1.98 0.66 3 1 C1.02 4.96 -0.96 8.92 -3 13 C-4.08644535 8.6542186 -3.90680911 8.05039452 -2.0625 4.25 C-1.68222656 3.45078125 -1.30195312 2.6515625 -0.91015625 1.828125 C-0.60980469 1.22484375 -0.30945313 0.6215625 0 0 Z " fill="#202021" transform="translate(547,248)"/>
<path d="M0 0 C2.82858266 3.36736031 4.4998253 6.87451958 6 11 C5.67 11.99 5.34 12.98 5 14 C1.34133706 9.67612562 0 5.65076098 0 0 Z " fill="#1C1C1C" transform="translate(448,728)"/>
<path d="M0 0 C2.39105598 2.14926381 3.63278854 3.99036913 4.75 7 C5.01296875 7.680625 5.2759375 8.36125 5.546875 9.0625 C6 11 6 11 5 14 C4.1533966 12.61217515 3.32324661 11.21430603 2.5 9.8125 C2.0359375 9.03519531 1.571875 8.25789062 1.09375 7.45703125 C-0.10729647 4.75896614 -0.20741043 2.9193018 0 0 Z " fill="#1B1B1B" transform="translate(437,702)"/>
<path d="M0 0 C0.99 0.33 1.98 0.66 3 1 C2.38348417 2.6490302 1.75652258 4.29415841 1.125 5.9375 C0.77695312 6.85402344 0.42890625 7.77054688 0.0703125 8.71484375 C-1 11 -1 11 -3 12 C-2.49202991 7.6822542 -1.80317221 3.96697886 0 0 Z " fill="#222222" transform="translate(518,671)"/>
<path d="M0 0 C0.99 0 1.98 0 3 0 C4.125 1.75 4.125 1.75 5 4 C4.375 6.1875 4.375 6.1875 3 8 C0.875 8.75 0.875 8.75 -1 9 C-0.4740625 7.329375 -0.4740625 7.329375 0.0625 5.625 C1.37239331 2.19735524 1.37239331 2.19735524 0 0 Z " fill="#313132" transform="translate(504,699)"/>
<path d="M0 0 C0.66 0.33 1.32 0.66 2 1 C1.44894091 4.9492568 0.61064629 8.34920174 -1 12 C-1.99 11.67 -2.98 11.34 -4 11 C-2.68 7.37 -1.36 3.74 0 0 Z " fill="#212121" transform="translate(601,461)"/>
<path d="M0 0 C0.99 0 1.98 0 3 0 C3.33 0.66 3.66 1.32 4 2 C2.8125 5.0625 2.8125 5.0625 1 8 C-0.32 8.33 -1.64 8.66 -3 9 C-2.01 6.03 -1.02 3.06 0 0 Z " fill="#2E2E2E" transform="translate(615,448)"/>
<path d="M0 0 C2.97 0 5.94 0 9 0 C7 2 5 4 3 6 C0 2.25 0 2.25 0 0 Z " fill="#2E2E2F" transform="translate(143,378)"/>
<path d="M0 0 C1 2 1 2 0.22265625 4.3828125 C-0.16019531 5.28773438 -0.54304687 6.19265625 -0.9375 7.125 C-1.31777344 8.03507813 -1.69804688 8.94515625 -2.08984375 9.8828125 C-2.39019531 10.58148437 -2.69054687 11.28015625 -3 12 C-4.078125 10.23046875 -4.078125 10.23046875 -5 8 C-2.75510204 1.37755102 -2.75510204 1.37755102 0 0 Z " fill="#2E2E2F" transform="translate(611,739)"/>
<path d="M0 0 C1.38609004 3.15020465 0.89180331 4.31918022 -0.25 7.6875 C-2 11 -2 11 -5 12 C-4.54738642 10.56068883 -4.08767021 9.12361001 -3.625 7.6875 C-3.24214844 6.48673828 -3.24214844 6.48673828 -2.8515625 5.26171875 C-2 3 -2 3 0 0 Z " fill="#1E1D1E" transform="translate(588,493)"/>
<path d="M0 0 C1 3 1 3 0.22265625 5.04296875 C-0.16019531 5.75066406 -0.54304687 6.45835937 -0.9375 7.1875 C-1.31777344 7.90292969 -1.69804688 8.61835938 -2.08984375 9.35546875 C-2.54037109 10.16951172 -2.54037109 10.16951172 -3 11 C-3.33 11 -3.66 11 -4 11 C-4 8.69 -4 6.38 -4 4 C-3.34 4 -2.68 4 -2 4 C-1.34 2.68 -0.68 1.36 0 0 Z " fill="#1C1C1D" transform="translate(624,431)"/>
<path d="M0 0 C3.96 0.33 7.92 0.66 12 1 C9.60236815 3.39763185 8.66726502 3.34280586 5.375 3.625 C4.55773437 3.69976563 3.74046875 3.77453125 2.8984375 3.8515625 C2.27195312 3.90054688 1.64546875 3.94953125 1 4 C0.67 2.68 0.34 1.36 0 0 Z " fill="#424242" transform="translate(300,779)"/>
<path d="M0 0 C0.66 0.99 1.32 1.98 2 3 C1.125 6.6875 1.125 6.6875 0 10 C-0.99 9.34 -1.98 8.68 -3 8 C-1.125 2.25 -1.125 2.25 0 0 Z " fill="#2E2E2E" transform="translate(507,671)"/>
<path d="M0 0 C2.10827055 3.16240582 2.33817465 4.50657469 2.625 8.1875 C2.69976563 9.08855469 2.77453125 9.98960937 2.8515625 10.91796875 C2.90054688 11.60503906 2.94953125 12.29210937 3 13 C0.75393573 11.22555028 0.04918998 10.41647515 -0.29296875 7.51953125 C-0.25816406 6.62621094 -0.22335937 5.73289062 -0.1875 4.8125 C-0.16042969 3.91144531 -0.13335938 3.01039063 -0.10546875 2.08203125 C-0.07066406 1.39496094 -0.03585937 0.70789063 0 0 Z " fill="#19191A" transform="translate(717,547)"/>
<path d="M0 0 C1.67110042 2.96178773 2.32682752 5.37071192 2.625 8.75 C2.69976563 9.54921875 2.77453125 10.3484375 2.8515625 11.171875 C2.90054688 11.77515625 2.94953125 12.3784375 3 13 C0 11 0 11 -0.75 8.1875 C-0.98698692 5.16591683 -0.77070231 2.91154204 0 0 Z " fill="#373737" transform="translate(825,532)"/>
<path d="M0 0 C3.44216672 2.6598561 3.99504674 5.90288286 5 10 C4.01 10 3.02 10 2 10 C0.68373308 6.38026598 0 3.90432869 0 0 Z " fill="#202021" transform="translate(147,385)"/>
<path d="M0 0 C0.66 0 1.32 0 2 0 C3.3271261 3.9813783 3.06915913 7.85045227 3 12 C0.97649676 8.96474514 0.67875982 7.80573798 0.375 4.3125 C0.30023437 3.50425781 0.22546875 2.69601562 0.1484375 1.86328125 C0.09945312 1.24839844 0.05046875 0.63351562 0 0 Z " fill="#1E1E1E" transform="translate(874,749)"/>
<path d="M0 0 C0.99 0.33 1.98 0.66 3 1 C2.01 3.97 1.02 6.94 0 10 C-2 6 -2 6 -1.125 2.75 C-0.75375 1.8425 -0.3825 0.935 0 0 Z " fill="#313131" transform="translate(474,746)"/>
<path d="M0 0 C0.66 1.32 1.32 2.64 2 4 C2.66 4 3.32 4 4 4 C4.33 5.32 4.66 6.64 5 8 C5.66 8 6.32 8 7 8 C6 10 6 10 4 11 C3.32591692 9.73308493 2.66099503 8.46129251 2 7.1875 C1.62875 6.47980469 1.2575 5.77210938 0.875 5.04296875 C0 3 0 3 0 0 Z " fill="#3A3A3A" transform="translate(440,712)"/>
<path d="M0 0 C2.4375 0.375 2.4375 0.375 5 1 C6.35439668 3.70879335 6.06501451 6.00933268 6 9 C4 7 4 7 3 4.9375 C2.15410058 2.83134399 2.15410058 2.83134399 0 2 C0 1.34 0 0.68 0 0 Z " fill="#313131" transform="translate(272,713)"/>
<path d="M0 0 C2.22825644 2.22825644 2.69239369 3.65761628 3.625 6.625 C4.01558594 7.85089844 4.01558594 7.85089844 4.4140625 9.1015625 C4.60742188 9.72804688 4.80078125 10.35453125 5 11 C2 10 2 10 0.8125 7.75 C0.00061706 5.00208853 -0.16260121 2.84552111 0 0 Z " fill="#1D1E1E" transform="translate(224,582)"/>
<path d="M0 0 C1.0326802 2.78823655 1.04509293 3.8677274 0.0625 6.75 C-0.288125 7.4925 -0.63875 8.235 -1 9 C-1.99 8.67 -2.98 8.34 -4 8 C-3.40138258 5.64828869 -2.73075648 3.3140622 -2 1 C-1.34 0.67 -0.68 0.34 0 0 Z " fill="#202022" transform="translate(551,575)"/>
<path d="M0 0 C1.125 1.75 1.125 1.75 2 4 C1.125 6.25 1.125 6.25 0 8 C-0.66 7.67 -1.32 7.34 -2 7 C-2.33 7.66 -2.66 8.32 -3 9 C-2.44271087 5.65626525 -1.64826111 2.96687001 0 0 Z " fill="#2F2F30" transform="translate(594,496)"/>
<path d="M0 0 C2.10633718 1.70828921 2.93801608 2.52148416 3.29296875 5.26171875 C3.25816406 6.06222656 3.22335937 6.86273438 3.1875 7.6875 C3.16042969 8.49574219 3.13335938 9.30398438 3.10546875 10.13671875 C3.07066406 10.75160156 3.03585937 11.36648438 3 12 C0.79680323 7.59360646 -0.10924981 5.02549129 0 0 Z " fill="#191919" transform="translate(791,387)"/>
<path d="M0 0 C1.67110042 2.96178773 2.32682752 5.37071192 2.625 8.75 C2.69976563 9.54921875 2.77453125 10.3484375 2.8515625 11.171875 C2.90054688 11.77515625 2.94953125 12.3784375 3 13 C2.67 12.01 2.34 11.02 2 10 C1.34 10 0.68 10 0 10 C-0.95024979 6.30458414 -0.95024979 3.69541586 0 0 Z " fill="#3A3A3B" transform="translate(862,692)"/>
<path d="M0 0 C2.10827055 3.16240582 2.33817465 4.50657469 2.625 8.1875 C2.69976563 9.08855469 2.77453125 9.98960937 2.8515625 10.91796875 C2.90054688 11.60503906 2.94953125 12.29210937 3 13 C0.37629764 9.99754796 -0.36302348 8.22853212 -0.1875 4.25 C-0.16042969 3.45078125 -0.13335938 2.6515625 -0.10546875 1.828125 C-0.07066406 1.22484375 -0.03585937 0.6215625 0 0 Z " fill="#171617" transform="translate(731,614)"/>
<path d="M0 0 C0.33 0.66 0.66 1.32 1 2 C0.67 2.66 0.34 3.32 0 4 C-0.66 4 -1.32 4 -2 4 C-2.103125 4.639375 -2.20625 5.27875 -2.3125 5.9375 C-2.539375 6.618125 -2.76625 7.29875 -3 8 C-3.99 8.33 -4.98 8.66 -6 9 C-4.25 3.25 -4.25 3.25 -2 1 C-1.34 0.67 -0.68 0.34 0 0 Z " fill="#323233" transform="translate(574,548)"/>
<path d="M0 0 C2.10633718 1.70828921 2.93801608 2.52148416 3.29296875 5.26171875 C3.25816406 6.06222656 3.22335937 6.86273438 3.1875 7.6875 C3.16042969 8.49574219 3.13335938 9.30398438 3.10546875 10.13671875 C3.07066406 10.75160156 3.03585937 11.36648438 3 12 C0.7655402 7.96707255 0.45503257 4.55032566 0 0 Z " fill="#191819" transform="translate(808,463)"/>
<path d="M0 0 C0.99 0.33 1.98 0.66 3 1 C2.54917531 2.46067199 2.08906463 3.91848032 1.625 5.375 C1.36976563 6.18710938 1.11453125 6.99921875 0.8515625 7.8359375 C0 10 0 10 -2 12 C-1.835 11.236875 -1.67 10.47375 -1.5 9.6875 C-0.90854604 6.96403764 -0.90854604 6.96403764 -1 4 C-0.6937566 2.66018514 -0.36548445 1.32488113 0 0 Z " fill="#313232" transform="translate(549,244)"/>
<path d="M0 0 C1.95216435 3.90432869 2.50639991 6.72213252 3 11 C2.67 10.34 2.34 9.68 2 9 C1.01 9.33 0.02 9.66 -1 10 C-0.67 6.7 -0.34 3.4 0 0 Z " fill="#3E3E3F" transform="translate(870,727)"/>
<path d="M0 0 C2.10633718 1.70828921 2.93801608 2.52148416 3.29296875 5.26171875 C3.25816406 6.06222656 3.22335937 6.86273437 3.1875 7.6875 C3.16042969 8.49574219 3.13335938 9.30398438 3.10546875 10.13671875 C3.07066406 10.75160156 3.03585937 11.36648438 3 12 C0.97649676 8.96474514 0.67875982 7.80573798 0.375 4.3125 C0.30023437 3.50425781 0.22546875 2.69601562 0.1484375 1.86328125 C0.09945312 1.24839844 0.05046875 0.63351562 0 0 Z " fill="#141414" transform="translate(867,720)"/>
<path d="M0 0 C2.39073445 3.82517513 2.55966552 7.59665524 3 12 C2.67 11.01 2.34 10.02 2 9 C1.34 9 0.68 9 0 9 C-0.84454356 5.62182575 -1.10844919 3.32534757 0 0 Z " fill="#383738" transform="translate(859,680)"/>
<path d="M0 0 C0.66 0.66 1.32 1.32 2 2 C1.625 5.125 1.625 5.125 1 8 C-0.32 8 -1.64 8 -3 8 C-1.125 2.25 -1.125 2.25 0 0 Z " fill="#303031" transform="translate(435,493)"/>
<path d="M0 0 C0.33 0.66 0.66 1.32 1 2 C0.36971413 3.68076231 -0.29788106 5.34795544 -1 7 C-1 7.66 -1 8.32 -1 9 C-1.99 9.33 -2.98 9.66 -4 10 C-3.5205537 5.78087253 -2.83374881 3.20336822 0 0 Z " fill="#191A1B" transform="translate(613,456)"/>
<path d="M0 0 C0.33 0 0.66 0 1 0 C1.66 3.96 2.32 7.92 3 12 C2.67 11.34 2.34 10.68 2 10 C1.34 10 0.68 10 0 10 C-1.2380014 6.42355152 -0.74926071 3.66305234 0 0 Z " fill="#3B3B3B" transform="translate(841,602)"/>
<path d="M0 0 C2.10633718 1.70828921 2.93801608 2.52148416 3.29296875 5.26171875 C3.25816406 6.06222656 3.22335937 6.86273437 3.1875 7.6875 C3.16042969 8.49574219 3.13335938 9.30398438 3.10546875 10.13671875 C3.07066406 10.75160156 3.03585937 11.36648438 3 12 C0.7655402 7.96707255 0.45503257 4.55032566 0 0 Z " fill="#151515" transform="translate(835,582)"/>
<path d="M0 0 C2.52259061 1.97420135 2.9929808 2.96745642 3.6875 6.1875 C3.790625 7.115625 3.89375 8.04375 4 9 C0.06153846 5.67692308 0.06153846 5.67692308 -0.25 2.25 C-0.1675 1.5075 -0.085 0.765 0 0 Z " fill="#1A1A1B" transform="translate(214,557)"/>
<path d="M0 0 C0.99 0.33 1.98 0.66 3 1 C2.46930939 4.82097239 1.50298434 7.06171403 -1 10 C-0.814375 9.236875 -0.62875 8.47375 -0.4375 7.6875 C0.22819173 4.91032625 0.22819173 4.91032625 -1 2 C-0.67 1.34 -0.34 0.68 0 0 Z " fill="#303132" transform="translate(469,418)"/>
<path d="M0 0 C0.33 0.66 0.66 1.32 1 2 C0.22265625 3.9453125 0.22265625 3.9453125 -0.9375 6.125 C-1.31777344 6.84945313 -1.69804688 7.57390625 -2.08984375 8.3203125 C-2.39019531 8.87460937 -2.69054687 9.42890625 -3 10 C-3.62109375 8.203125 -3.62109375 8.203125 -4 6 C-2.0625 2.75 -2.0625 2.75 0 0 Z " fill="#171718" transform="translate(529,290)"/>
<path d="M0 0 C5.94 0 11.88 0 18 0 C18 0.33 18 0.66 18 1 C12.06 1 6.12 1 0 1 C0 0.67 0 0.34 0 0 Z " fill="#4A4949" transform="translate(780,783)"/>
<path d="M0 0 C0.66 0.33 1.32 0.66 2 1 C2 1.66 2 2.32 2 3 C2.66 3 3.32 3 4 3 C3.67 4.32 3.34 5.64 3 7 C2.01 6.67 1.02 6.34 0 6 C-0.38218767 4.34385343 -0.71395102 2.67542976 -1 1 C-0.67 0.67 -0.34 0.34 0 0 Z " fill="#313131" transform="translate(481,754)"/>
<path d="M0 0 C3 3 3 3 3.1875 6.1875 C3.0946875 7.5796875 3.0946875 7.5796875 3 9 C2.34 9 1.68 9 1 9 C0.67 6.03 0.34 3.06 0 0 Z " fill="#1D1D1E" transform="translate(842,612)"/>
<path d="M0 0 C2.35448165 2.55068845 2.98327924 3.71017358 3.1875 7.25 C3.125625 8.1575 3.06375 9.065 3 10 C2.34 9.67 1.68 9.34 1 9 C0.5859375 6.93359375 0.5859375 6.93359375 0.375 4.4375 C0.30023437 3.61121094 0.22546875 2.78492188 0.1484375 1.93359375 C0.09945312 1.29550781 0.05046875 0.65742188 0 0 Z " fill="#1B1B1C" transform="translate(816,498)"/>
<path d="M0 0 C2.11180592 2.57089417 3.66306057 4.63060567 4 8 C3.34 8.66 2.68 9.32 2 10 C0.39644899 6.49223216 -0.22036864 3.85645121 0 0 Z " fill="#212222" transform="translate(159,415)"/>
<path d="M0 0 C0.99 0 1.98 0 3 0 C3.33 0.66 3.66 1.32 4 2 C3.06553465 4.03144641 2.06775224 6.03533587 1 8 C-1 5 -1 5 -0.625 2.3125 C-0.41875 1.549375 -0.2125 0.78625 0 0 Z " fill="#2E2E2F" transform="translate(492,367)"/>
<path d="M0 0 C0.66 0 1.32 0 2 0 C1.45276317 3.37462715 0.9451 5.08235 -1 8 C-1.93065133 5.39417629 -2.14917407 4.35801776 -1.0625 1.75 C-0.711875 1.1725 -0.36125 0.595 0 0 Z " fill="#1F1F20" transform="translate(480,760)"/>
<path d="M0 0 C0.33 0 0.66 0 1 0 C0.67 2.64 0.34 5.28 0 8 C-0.99 8.33 -1.98 8.66 -3 9 C-2.01 6.03 -1.02 3.06 0 0 Z " fill="#19191A" transform="translate(478,739)"/>
<path d="M0 0 C0.33 0.66 0.66 1.32 1 2 C0.0625 4.625 0.0625 4.625 -1 7 C-1.99 6.67 -2.98 6.34 -4 6 C-3.67 4.35 -3.34 2.7 -3 1 C-2.01 0.67 -1.02 0.34 0 0 Z " fill="#323334" transform="translate(618,722)"/>
<path d="M0 0 C0.33 0 0.66 0 1 0 C0.67 2.64 0.34 5.28 0 8 C-0.99 8.33 -1.98 8.66 -3 9 C-2.01 6.03 -1.02 3.06 0 0 Z " fill="#1B1B1B" transform="translate(655,600)"/>
<path d="M0 0 C1.42944945 2.35438733 2.08661261 3.48032433 1.625 6.25 C1.41875 6.8275 1.2125 7.405 1 8 C0.01 7.34 -0.98 6.68 -2 6 C-1.49396008 3.83125748 -1.00016187 2.00032373 0 0 Z " fill="#383839" transform="translate(819,506)"/>
<path d="M0 0 C2 1.75 2 1.75 4 4 C4 5.32 4 6.64 4 8 C3.34 8 2.68 8 2 8 C0.74335022 5.09399739 0 3.20395416 0 0 Z " fill="#1B1B1B" transform="translate(344,489)"/>
<path d="M0 0 C0.99 0.495 0.99 0.495 2 1 C2.73075648 3.3140622 3.40138258 5.64828869 4 8 C3.01 7.67 2.02 7.34 1 7 C0.67 4.69 0.34 2.38 0 0 Z " fill="#1C1C1C" transform="translate(169,441)"/>
<path d="M0 0 C0.66 0.33 1.32 0.66 2 1 C2.125 6.75 2.125 6.75 1 9 C0.01 8.67 -0.98 8.34 -2 8 C-1.67 7.05125 -1.34 6.1025 -1 5.125 C0.10159191 2.22937548 0.10159191 2.22937548 0 0 Z " fill="#222122" transform="translate(701,242)"/>
<path d="M0 0 C4.62 0 9.24 0 14 0 C14 0.33 14 0.66 14 1 C9.38 1 4.76 1 0 1 C0 0.67 0 0.34 0 0 Z " fill="#4A4949" transform="translate(548,783)"/>
<path d="M0 0 C3.63 0 7.26 0 11 0 C11 0.33 11 0.66 11 1 C7.37 1 3.74 1 0 1 C0 0.67 0 0.34 0 0 Z " fill="#4A4848" transform="translate(536,783)"/>
<path d="M0 0 C3.63 0 7.26 0 11 0 C11 0.33 11 0.66 11 1 C7.37 1 3.74 1 0 1 C0 0.67 0 0.34 0 0 Z " fill="#4A4848" transform="translate(380,783)"/>
<path d="M0 0 C2.97 0 5.94 0 9 0 C9 0.33 9 0.66 9 1 C6.03 1 3.06 1 0 1 C0 0.67 0 0.34 0 0 Z " fill="#494849" transform="translate(840,783)"/>
<path d="M0 0 C2.97 0 5.94 0 9 0 C9 0.33 9 0.66 9 1 C6.03 1 3.06 1 0 1 C0 0.67 0 0.34 0 0 Z " fill="#4B494A" transform="translate(440,783)"/>
<path d="M0 0 C2.31 0 4.62 0 7 0 C7 0.33 7 0.66 7 1 C4.69 1 2.38 1 0 1 C0 0.67 0 0.34 0 0 Z " fill="#4A4949" transform="translate(512,783)"/>
<path d="M0 0 C2.31 0 4.62 0 7 0 C7 0.33 7 0.66 7 1 C4.69 1 2.38 1 0 1 C0 0.67 0 0.34 0 0 Z " fill="#484848" transform="translate(504,783)"/>
<path d="M0 0 C2.31 0 4.62 0 7 0 C7 0.33 7 0.66 7 1 C4.69 1 2.38 1 0 1 C0 0.67 0 0.34 0 0 Z " fill="#4A4949" transform="translate(496,783)"/>
<path d="M0 0 C2.31 0 4.62 0 7 0 C7 0.33 7 0.66 7 1 C4.69 1 2.38 1 0 1 C0 0.67 0 0.34 0 0 Z " fill="#4A4949" transform="translate(344,783)"/>
<path d="M0 0 C2.31 0 4.62 0 7 0 C7 0.33 7 0.66 7 1 C4.69 1 2.38 1 0 1 C0 0.67 0 0.34 0 0 Z " fill="#4A4849" transform="translate(336,783)"/>
<path d="M0 0 C1.98 0 3.96 0 6 0 C6 0.33 6 0.66 6 1 C4.02 1 2.04 1 0 1 C0 0.67 0 0.34 0 0 Z " fill="#494848" transform="translate(524,783)"/>
<path d="M0 0 C1.98 0 3.96 0 6 0 C6 0.33 6 0.66 6 1 C4.02 1 2.04 1 0 1 C0 0.67 0 0.34 0 0 Z " fill="#4A4A4A" transform="translate(420,783)"/>
<path d="M0 0 C0.66 0 1.32 0 2 0 C1.67 1.32 1.34 2.64 1 4 C0.67 2.68 0.34 1.36 0 0 Z " fill="#464646" transform="translate(737,749)"/>
<path d="M0 0 C0.33 0.66 0.66 1.32 1 2 C0.34 2.66 -0.32 3.32 -1 4 C-1.33 3.01 -1.66 2.02 -2 1 C-1.34 0.67 -0.68 0.34 0 0 Z " fill="#464545" transform="translate(402,562)"/>
<path d="M0 0 C0.66 0.66 1.32 1.32 2 2 C1.67 2.99 1.34 3.98 1 5 C0.67 3.35 0.34 1.7 0 0 Z " fill="#484646" transform="translate(201,531)"/>
<path d="M0 0 C0.66 0.66 1.32 1.32 2 2 C1.01 2.33 0.02 2.66 -1 3 C-0.67 2.01 -0.34 1.02 0 0 Z " fill="#454445" transform="translate(193,512)"/>
<path d="M0 0 C0.33 0.99 0.66 1.98 1 3 C0.01 2.67 -0.98 2.34 -2 2 C-1.34 2 -0.68 2 0 2 C0 1.34 0 0.68 0 0 Z " fill="#474648" transform="translate(274,717)"/>
<path d="M0 0 C0.66 0 1.32 0 2 0 C1.67 1.32 1.34 2.64 1 4 C0.67 2.68 0.34 1.36 0 0 Z " fill="#474647" transform="translate(728,619)"/>
<path d="M0 0 C0.33 0 0.66 0 1 0 C1 1.65 1 3.3 1 5 C0.67 5 0.34 5 0 5 C0 3.35 0 1.7 0 0 Z " fill="#434344" transform="translate(720,575)"/>
<path d="M0 0 C4 1 4 1 4 1 Z " fill="#4C4849" transform="translate(330,783)"/>
<path d="M0 0 C0.66 0 1.32 0 2 0 C1.67 0.99 1.34 1.98 1 3 C0.67 2.01 0.34 1.02 0 0 Z " fill="#464646" transform="translate(288,755)"/>
<path d="M0 0 C0 3 0 3 0 3 Z " fill="#474646" transform="translate(491,728)"/>
<path d="M0 0 C1 4 1 4 1 4 Z " fill="#464546" transform="translate(728,614)"/>
<path d="M0 0 C1 4 1 4 1 4 Z " fill="#464446" transform="translate(713,543)"/>
<path d="M0 0 C0 3 0 3 0 3 Z " fill="#484748" transform="translate(435,489)"/>
<path d="M0 0 C0.66 0.33 1.32 0.66 2 1 C1.01 1 0.02 1 -1 1 C-0.67 0.67 -0.34 0.34 0 0 Z " fill="#474748" transform="translate(604,465)"/>
<path d="M0 0 C3 1 3 1 3 1 Z " fill="#4B4A4A" transform="translate(860,783)"/>
<path d="M0 0 C3 1 3 1 3 1 Z " fill="#4A4A49" transform="translate(856,783)"/>
<path d="M0 0 C3 1 3 1 3 1 Z " fill="#4A4A49" transform="translate(852,783)"/>
<path d="M0 0 C3 1 3 1 3 1 Z " fill="#4B4A49" transform="translate(836,783)"/>
<path d="M0 0 C3 1 3 1 3 1 Z " fill="#4B4A49" transform="translate(776,783)"/>
<path d="M0 0 C3 1 3 1 3 1 Z " fill="#4A4948" transform="translate(563,783)"/>
<path d="M0 0 C3 1 3 1 3 1 Z " fill="#4A4949" transform="translate(532,783)"/>
<path d="M0 0 C3 1 3 1 3 1 Z " fill="#4A4949" transform="translate(520,783)"/>
<path d="M0 0 C3 1 3 1 3 1 Z " fill="#494848" transform="translate(492,783)"/>
<path d="M0 0 C3 1 3 1 3 1 Z " fill="#4B4A4A" transform="translate(412,783)"/>
<path d="M0 0 C3 1 3 1 3 1 Z " fill="#494849" transform="translate(392,783)"/>
<path d="M0 0 C3 1 3 1 3 1 Z " fill="#4A4949" transform="translate(376,783)"/>
<path d="M0 0 C3 1 3 1 3 1 Z " fill="#4A4848" transform="translate(371,783)"/>
<path d="M0 0 C3 1 3 1 3 1 Z " fill="#4A4949" transform="translate(324,783)"/>
<path d="M0 0 C3 1 3 1 3 1 Z " fill="#494848" transform="translate(316,783)"/>
<path d="M0 0 C0.66 0.66 1.32 1.32 2 2 C1.34 2 0.68 2 0 2 C0 1.34 0 0.68 0 0 Z " fill="#474647" transform="translate(457,759)"/>
<path d="" fill="#454545" transform="translate(0,0)"/>
<path d="M0 0 C0.33 0.66 0.66 1.32 1 2 C0.34 1.67 -0.32 1.34 -1 1 C-0.67 0.67 -0.34 0.34 0 0 Z " fill="#464444" transform="translate(450,740)"/>
<path d="" fill="#444344" transform="translate(0,0)"/>
<path d="M0 0 C0.66 0 1.32 0 2 0 C1.67 0.66 1.34 1.32 1 2 C0.67 1.34 0.34 0.68 0 0 Z " fill="#464646" transform="translate(514,673)"/>
<path d="M0 0 C3 1 3 1 3 1 Z " fill="#494747" transform="translate(416,665)"/>
<path d="" fill="#464445" transform="translate(0,0)"/>
<path d="M0 0 C0.66 0.66 1.32 1.32 2 2 C1.34 2 0.68 2 0 2 C0 1.34 0 0.68 0 0 Z " fill="#494847" transform="translate(410,646)"/>
<path d="" fill="#494748" transform="translate(0,0)"/>
<path d="M0 0 C0.33 0.66 0.66 1.32 1 2 C0.34 1.67 -0.32 1.34 -1 1 C-0.67 0.67 -0.34 0.34 0 0 Z " fill="#4A474A" transform="translate(395,609)"/>
<path d="" fill="#474345" transform="translate(0,0)"/>
<path d="M0 0 C0.99 0.495 0.99 0.495 2 1 C1.01 1.495 1.01 1.495 0 2 C0 1.34 0 0.68 0 0 Z " fill="#484647" transform="translate(417,520)"/>
<path d="M0 0 C0.66 0 1.32 0 2 0 C1.67 0.66 1.34 1.32 1 2 C0.67 1.34 0.34 0.68 0 0 Z " fill="#4A4949" transform="translate(440,475)"/>
<path d="M0 0 C0.99 0.495 0.99 0.495 2 1 C1.01 1.495 1.01 1.495 0 2 C0 1.34 0 0.68 0 0 Z " fill="#464545" transform="translate(608,459)"/>
<path d="M0 0 C0.99 0.495 0.99 0.495 2 1 C1.01 1.495 1.01 1.495 0 2 C0 1.34 0 0.68 0 0 Z " fill="#4A4749" transform="translate(456,433)"/>
<path d="" fill="#464444" transform="translate(0,0)"/>
<path d="" fill="#484647" transform="translate(0,0)"/>
<path d="M0 0 C2 1 2 1 2 1 Z " fill="#4B4A4B" transform="translate(864,783)"/>
<path d="M0 0 C2 1 2 1 2 1 Z " fill="#4A4949" transform="translate(772,783)"/>
<path d="M0 0 C2 1 2 1 2 1 Z " fill="#494A49" transform="translate(768,783)"/>
<path d="M0 0 C2 1 2 1 2 1 Z " fill="#49484A" transform="translate(760,783)"/>
<path d="M0 0 C2 1 2 1 2 1 Z " fill="#494848" transform="translate(752,783)"/>
<path d="M0 0 C2 1 2 1 2 1 Z " fill="#494747" transform="translate(749,783)"/>
<path d="" fill="#454545" transform="translate(0,0)"/>
<path d="M0 0 C2 1 2 1 2 1 Z " fill="#4B4949" transform="translate(589,783)"/>
<path d="M0 0 C2 1 2 1 2 1 Z " fill="#4A4948" transform="translate(576,783)"/>
<path d="M0 0 C2 1 2 1 2 1 Z " fill="#4B494A" transform="translate(572,783)"/>
<path d="M0 0 C2 1 2 1 2 1 Z " fill="#494848" transform="translate(488,783)"/>
<path d="M0 0 C2 1 2 1 2 1 Z " fill="#4A4849" transform="translate(485,783)"/>
<path d="M0 0 C2 1 2 1 2 1 Z " fill="#494748" transform="translate(453,783)"/>
<path d="M0 0 C2 1 2 1 2 1 Z " fill="#4B494A" transform="translate(397,783)"/>
<path d="M0 0 C2 1 2 1 2 1 Z " fill="#4C4948" transform="translate(320,783)"/>
<path d="M0 0 C2 1 2 1 2 1 Z " fill="#4A4849" transform="translate(312,783)"/>
<path d="" fill="#464546" transform="translate(0,0)"/>
<path d="" fill="#484747" transform="translate(0,0)"/>
<path d="" fill="#464546" transform="translate(0,0)"/>
<path d="M0 0 C2 1 2 1 2 1 Z " fill="#454445" transform="translate(448,743)"/>
<path d="" fill="#464645" transform="translate(0,0)"/>
<path d="" fill="#454444" transform="translate(0,0)"/>
<path d="" fill="#434142" transform="translate(0,0)"/>
<path d="" fill="#484547" transform="translate(0,0)"/>
<path d="" fill="#454444" transform="translate(0,0)"/>
<path d="" fill="#454546" transform="translate(0,0)"/>
<path d="" fill="#464645" transform="translate(0,0)"/>
<path d="" fill="#474746" transform="translate(0,0)"/>
<path d="M0 0 C2 1 2 1 2 1 Z " fill="#464545" transform="translate(431,703)"/>
<path d="" fill="#454445" transform="translate(0,0)"/>
<path d="" fill="#444445" transform="translate(0,0)"/>
<path d="M0 0 C2 1 2 1 2 1 Z " fill="#474546" transform="translate(425,684)"/>
<path d="" fill="#444543" transform="translate(0,0)"/>
<path d="" fill="#484647" transform="translate(0,0)"/>
<path d="M0 0 C2 1 2 1 2 1 Z " fill="#464445" transform="translate(517,663)"/>
<path d="" fill="#474546" transform="translate(0,0)"/>
<path d="" fill="#464546" transform="translate(0,0)"/>
<path d="" fill="#434343" transform="translate(0,0)"/>
<path d="" fill="#434343" transform="translate(0,0)"/>
<path d="" fill="#454546" transform="translate(0,0)"/>
<path d="" fill="#474647" transform="translate(0,0)"/>
<path d="" fill="#484548" transform="translate(0,0)"/>
<path d="M0 0 C2 1 2 1 2 1 Z " fill="#484647" transform="translate(533,623)"/>
<path d="" fill="#464645" transform="translate(0,0)"/>
<path d="M0 0 C2 1 2 1 2 1 Z " fill="#454644" transform="translate(542,603)"/>
<path d="" fill="#434142" transform="translate(0,0)"/>
<path d="" fill="#454444" transform="translate(0,0)"/>
<path d="" fill="#464545" transform="translate(0,0)"/>
<path d="" fill="#464544" transform="translate(0,0)"/>
<path d="" fill="#484748" transform="translate(0,0)"/>
<path d="" fill="#474546" transform="translate(0,0)"/>
<path d="" fill="#494748" transform="translate(0,0)"/>
<path d="" fill="#474746" transform="translate(0,0)"/>
<path d="M0 0 C2 1 2 1 2 1 Z " fill="#494747" transform="translate(558,571)"/>
<path d="" fill="#484546" transform="translate(0,0)"/>
<path d="" fill="#474546" transform="translate(0,0)"/>
<path d="" fill="#444344" transform="translate(0,0)"/>
<path d="" fill="#464645" transform="translate(0,0)"/>
<path d="" fill="#464646" transform="translate(0,0)"/>
<path d="" fill="#494647" transform="translate(0,0)"/>
<path d="" fill="#454648" transform="translate(0,0)"/>
<path d="" fill="#444443" transform="translate(0,0)"/>
<path d="" fill="#464546" transform="translate(0,0)"/>
<path d="" fill="#484748" transform="translate(0,0)"/>
<path d="" fill="#484948" transform="translate(0,0)"/>
<path d="" fill="#434243" transform="translate(0,0)"/>
<path d="" fill="#494647" transform="translate(0,0)"/>
<path d="" fill="#464446" transform="translate(0,0)"/>
<path d="" fill="#464546" transform="translate(0,0)"/>
<path d="M0 0 C2 1 2 1 2 1 Z " fill="#494848" transform="translate(603,470)"/>
<path d="M0 0 C2 1 2 1 2 1 Z " fill="#484747" transform="translate(603,468)"/>
<path d="" fill="#464547" transform="translate(0,0)"/>
<path d="" fill="#464544" transform="translate(0,0)"/>
<path d="" fill="#494848" transform="translate(0,0)"/>
<path d="" fill="#464546" transform="translate(0,0)"/>
<path d="" fill="#474646" transform="translate(0,0)"/>
<path d="" fill="#444245" transform="translate(0,0)"/>
<path d="" fill="#494948" transform="translate(0,0)"/>
<path d="M0 0 C2 1 2 1 2 1 Z " fill="#4B4949" transform="translate(669,376)"/>
<path d="" fill="#494648" transform="translate(0,0)"/>
<path d="" fill="#4F504F" transform="translate(0,0)"/>
<path d="" fill="#4A4D4C" transform="translate(0,0)"/>
<path d="" fill="#4B4A4A" transform="translate(0,0)"/>
<path d="" fill="#4B494A" transform="translate(0,0)"/>
<path d="" fill="#494949" transform="translate(0,0)"/>
<path d="" fill="#4C4B4A" transform="translate(0,0)"/>
<path d="" fill="#474645" transform="translate(0,0)"/>
<path d="" fill="#4A4646" transform="translate(0,0)"/>
<path d="" fill="#454444" transform="translate(0,0)"/>
<path d="" fill="#494846" transform="translate(0,0)"/>
<path d="" fill="#4B4A4B" transform="translate(0,0)"/>
<path d="" fill="#494748" transform="translate(0,0)"/>
<path d="" fill="#494847" transform="translate(0,0)"/>
<path d="" fill="#4A494C" transform="translate(0,0)"/>
<path d="" fill="#444243" transform="translate(0,0)"/>
<path d="" fill="#454446" transform="translate(0,0)"/>
<path d="" fill="#474648" transform="translate(0,0)"/>
<path d="" fill="#454544" transform="translate(0,0)"/>
<path d="" fill="#494647" transform="translate(0,0)"/>
<path d="" fill="#474748" transform="translate(0,0)"/>
<path d="" fill="#484748" transform="translate(0,0)"/>
<path d="" fill="#444444" transform="translate(0,0)"/>
<path d="" fill="#454546" transform="translate(0,0)"/>
<path d="" fill="#494749" transform="translate(0,0)"/>
<path d="" fill="#474546" transform="translate(0,0)"/>
<path d="" fill="#444546" transform="translate(0,0)"/>
<path d="" fill="#484748" transform="translate(0,0)"/>
<path d="" fill="#494647" transform="translate(0,0)"/>
<path d="" fill="#454244" transform="translate(0,0)"/>
<path d="" fill="#474846" transform="translate(0,0)"/>
<path d="" fill="#474645" transform="translate(0,0)"/>
<path d="" fill="#454746" transform="translate(0,0)"/>
<path d="" fill="#4A4949" transform="translate(0,0)"/>
<path d="" fill="#484647" transform="translate(0,0)"/>
<path d="" fill="#474545" transform="translate(0,0)"/>
<path d="" fill="#4A4847" transform="translate(0,0)"/>
<path d="" fill="#494848" transform="translate(0,0)"/>
<path d="" fill="#464747" transform="translate(0,0)"/>
<path d="" fill="#414040" transform="translate(0,0)"/>
<path d="" fill="#454543" transform="translate(0,0)"/>
<path d="" fill="#474746" transform="translate(0,0)"/>
<path d="" fill="#474646" transform="translate(0,0)"/>
<path d="" fill="#464444" transform="translate(0,0)"/>
<path d="" fill="#464346" transform="translate(0,0)"/>
<path d="" fill="#474746" transform="translate(0,0)"/>
<path d="" fill="#454545" transform="translate(0,0)"/>
<path d="" fill="#464445" transform="translate(0,0)"/>
<path d="" fill="#474445" transform="translate(0,0)"/>
<path d="" fill="#4A4646" transform="translate(0,0)"/>
<path d="" fill="#474647" transform="translate(0,0)"/>
<path d="" fill="#474546" transform="translate(0,0)"/>
<path d="" fill="#474745" transform="translate(0,0)"/>
<path d="" fill="#474749" transform="translate(0,0)"/>
<path d="" fill="#474445" transform="translate(0,0)"/>
<path d="" fill="#454646" transform="translate(0,0)"/>
<path d="" fill="#424241" transform="translate(0,0)"/>
<path d="" fill="#454647" transform="translate(0,0)"/>
<path d="" fill="#484546" transform="translate(0,0)"/>
<path d="" fill="#444241" transform="translate(0,0)"/>
<path d="" fill="#474547" transform="translate(0,0)"/>
<path d="" fill="#474444" transform="translate(0,0)"/>
<path d="" fill="#494746" transform="translate(0,0)"/>
<path d="" fill="#454543" transform="translate(0,0)"/>
<path d="" fill="#474948" transform="translate(0,0)"/>
<path d="" fill="#484646" transform="translate(0,0)"/>
<path d="" fill="#474747" transform="translate(0,0)"/>
<path d="" fill="#484846" transform="translate(0,0)"/>
<path d="" fill="#454446" transform="translate(0,0)"/>
<path d="" fill="#464746" transform="translate(0,0)"/>
<path d="" fill="#474444" transform="translate(0,0)"/>
<path d="" fill="#444444" transform="translate(0,0)"/>
<path d="" fill="#464646" transform="translate(0,0)"/>
<path d="" fill="#474546" transform="translate(0,0)"/>
<path d="" fill="#474645" transform="translate(0,0)"/>
<path d="" fill="#464645" transform="translate(0,0)"/>
<path d="" fill="#484848" transform="translate(0,0)"/>
<path d="" fill="#464547" transform="translate(0,0)"/>
<path d="" fill="#464543" transform="translate(0,0)"/>
<path d="" fill="#474545" transform="translate(0,0)"/>
<path d="" fill="#494948" transform="translate(0,0)"/>
<path d="" fill="#454143" transform="translate(0,0)"/>
<path d="" fill="#474746" transform="translate(0,0)"/>
<path d="" fill="#474748" transform="translate(0,0)"/>
<path d="" fill="#484949" transform="translate(0,0)"/>
<path d="" fill="#474444" transform="translate(0,0)"/>
<path d="" fill="#4A4746" transform="translate(0,0)"/>
<path d="" fill="#474645" transform="translate(0,0)"/>
<path d="" fill="#454748" transform="translate(0,0)"/>
<path d="" fill="#464745" transform="translate(0,0)"/>
<path d="" fill="#454445" transform="translate(0,0)"/>
<path d="" fill="#494648" transform="translate(0,0)"/>
<path d="" fill="#474547" transform="translate(0,0)"/>
<path d="" fill="#454444" transform="translate(0,0)"/>
<path d="" fill="#434244" transform="translate(0,0)"/>
<path d="" fill="#464444" transform="translate(0,0)"/>
<path d="" fill="#464544" transform="translate(0,0)"/>
<path d="" fill="#434141" transform="translate(0,0)"/>
<path d="" fill="#474747" transform="translate(0,0)"/>
<path d="" fill="#494A4A" transform="translate(0,0)"/>
<path d="" fill="#474746" transform="translate(0,0)"/>
<path d="" fill="#454143" transform="translate(0,0)"/>
<path d="" fill="#4B4648" transform="translate(0,0)"/>
<path d="" fill="#494647" transform="translate(0,0)"/>
<path d="" fill="#454544" transform="translate(0,0)"/>
<path d="" fill="#474545" transform="translate(0,0)"/>
<path d="" fill="#474847" transform="translate(0,0)"/>
<path d="" fill="#464445" transform="translate(0,0)"/>
<path d="" fill="#474747" transform="translate(0,0)"/>
<path d="" fill="#474546" transform="translate(0,0)"/>
<path d="" fill="#464446" transform="translate(0,0)"/>
<path d="" fill="#444443" transform="translate(0,0)"/>
<path d="" fill="#4B4646" transform="translate(0,0)"/>
<path d="" fill="#4A484B" transform="translate(0,0)"/>
<path d="" fill="#4C4746" transform="translate(0,0)"/>
<path d="" fill="#48494B" transform="translate(0,0)"/>
<path d="" fill="#444346" transform="translate(0,0)"/>
<path d="" fill="#454748" transform="translate(0,0)"/>
<path d="" fill="#4A4746" transform="translate(0,0)"/>
<path d="" fill="#484746" transform="translate(0,0)"/>
<path d="" fill="#474544" transform="translate(0,0)"/>
<path d="" fill="#4C484B" transform="translate(0,0)"/>
<path d="" fill="#4A4848" transform="translate(0,0)"/>
<path d="" fill="#454345" transform="translate(0,0)"/>
<path d="" fill="#464747" transform="translate(0,0)"/>
<path d="" fill="#494645" transform="translate(0,0)"/>
<path d="" fill="#484647" transform="translate(0,0)"/>
<path d="" fill="#494648" transform="translate(0,0)"/>
<path d="" fill="#484548" transform="translate(0,0)"/>
<path d="" fill="#454446" transform="translate(0,0)"/>
<path d="" fill="#48484A" transform="translate(0,0)"/>
<path d="" fill="#484847" transform="translate(0,0)"/>
<path d="" fill="#484645" transform="translate(0,0)"/>
<path d="" fill="#4B4948" transform="translate(0,0)"/>
<path d="" fill="#4B4A47" transform="translate(0,0)"/>
<path d="" fill="#403F3F" transform="translate(0,0)"/>
<path d="" fill="#4A494A" transform="translate(0,0)"/>
<path d="" fill="#484847" transform="translate(0,0)"/>
<path d="" fill="#454646" transform="translate(0,0)"/>
<path d="" fill="#4A4746" transform="translate(0,0)"/>
<path d="" fill="#484747" transform="translate(0,0)"/>
<path d="" fill="#464446" transform="translate(0,0)"/>
<path d="" fill="#464545" transform="translate(0,0)"/>
<path d="" fill="#484645" transform="translate(0,0)"/>
<path d="" fill="#484948" transform="translate(0,0)"/>
<path d="" fill="#474543" transform="translate(0,0)"/>
<path d="" fill="#474547" transform="translate(0,0)"/>
<path d="" fill="#464646" transform="translate(0,0)"/>
<path d="" fill="#494949" transform="translate(0,0)"/>
<path d="" fill="#474747" transform="translate(0,0)"/>
<path d="" fill="#474547" transform="translate(0,0)"/>
<path d="" fill="#434243" transform="translate(0,0)"/>
<path d="" fill="#454445" transform="translate(0,0)"/>
<path d="" fill="#484846" transform="translate(0,0)"/>
<path d="" fill="#474644" transform="translate(0,0)"/>
<path d="" fill="#464545" transform="translate(0,0)"/>
<path d="" fill="#474546" transform="translate(0,0)"/>
<path d="" fill="#454343" transform="translate(0,0)"/>
<path d="" fill="#474547" transform="translate(0,0)"/>
<path d="" fill="#474546" transform="translate(0,0)"/>
<path d="" fill="#474747" transform="translate(0,0)"/>
<path d="" fill="#454545" transform="translate(0,0)"/>
<path d="" fill="#464344" transform="translate(0,0)"/>
<path d="" fill="#474545" transform="translate(0,0)"/>
<path d="" fill="#444343" transform="translate(0,0)"/>
<path d="" fill="#454444" transform="translate(0,0)"/>
<path d="" fill="#484949" transform="translate(0,0)"/>
<path d="" fill="#474448" transform="translate(0,0)"/>
<path d="" fill="#434245" transform="translate(0,0)"/>
<path d="" fill="#454643" transform="translate(0,0)"/>
<path d="" fill="#474746" transform="translate(0,0)"/>
<path d="" fill="#454345" transform="translate(0,0)"/>
<path d="" fill="#494745" transform="translate(0,0)"/>
<path d="" fill="#464646" transform="translate(0,0)"/>
<path d="" fill="#4A4849" transform="translate(0,0)"/>
<path d="" fill="#464445" transform="translate(0,0)"/>
<path d="" fill="#474747" transform="translate(0,0)"/>
<path d="" fill="#474645" transform="translate(0,0)"/>
<path d="" fill="#484646" transform="translate(0,0)"/>
<path d="" fill="#474545" transform="translate(0,0)"/>
<path d="" fill="#464445" transform="translate(0,0)"/>
<path d="" fill="#454543" transform="translate(0,0)"/>
<path d="" fill="#454544" transform="translate(0,0)"/>
<path d="" fill="#494548" transform="translate(0,0)"/>
<path d="" fill="#464545" transform="translate(0,0)"/>
<path d="" fill="#494648" transform="translate(0,0)"/>
<path d="" fill="#414041" transform="translate(0,0)"/>
<path d="" fill="#484445" transform="translate(0,0)"/>
<path d="" fill="#404143" transform="translate(0,0)"/>
<path d="" fill="#474747" transform="translate(0,0)"/>
<path d="" fill="#4A4A48" transform="translate(0,0)"/>
<path d="" fill="#484948" transform="translate(0,0)"/>
<path d="" fill="#454444" transform="translate(0,0)"/>
<path d="" fill="#464546" transform="translate(0,0)"/>
<path d="" fill="#464747" transform="translate(0,0)"/>
<path d="" fill="#484646" transform="translate(0,0)"/>
<path d="" fill="#484848" transform="translate(0,0)"/>
<path d="" fill="#454446" transform="translate(0,0)"/>
<path d="" fill="#484948" transform="translate(0,0)"/>
<path d="" fill="#464748" transform="translate(0,0)"/>
<path d="" fill="#454645" transform="translate(0,0)"/>
<path d="" fill="#434343" transform="translate(0,0)"/>
<path d="" fill="#474444" transform="translate(0,0)"/>
<path d="" fill="#434144" transform="translate(0,0)"/>
<path d="" fill="#484546" transform="translate(0,0)"/>
<path d="" fill="#444444" transform="translate(0,0)"/>
<path d="" fill="#4A4546" transform="translate(0,0)"/>
<path d="" fill="#4B4B4C" transform="translate(0,0)"/>
<path d="" fill="#454244" transform="translate(0,0)"/>
<path d="" fill="#464347" transform="translate(0,0)"/>
<path d="" fill="#4A4748" transform="translate(0,0)"/>
<path d="" fill="#474547" transform="translate(0,0)"/>
<path d="" fill="#444346" transform="translate(0,0)"/>
<path d="" fill="#464446" transform="translate(0,0)"/>
<path d="" fill="#444344" transform="translate(0,0)"/>
<path d="" fill="#474446" transform="translate(0,0)"/>
<path d="" fill="#4A4649" transform="translate(0,0)"/>
<path d="" fill="#474546" transform="translate(0,0)"/>
<path d="" fill="#454246" transform="translate(0,0)"/>
<path d="" fill="#454145" transform="translate(0,0)"/>
<path d="" fill="#434246" transform="translate(0,0)"/>
<path d="" fill="#454244" transform="translate(0,0)"/>
<path d="" fill="#474647" transform="translate(0,0)"/>
<path d="" fill="#494749" transform="translate(0,0)"/>
<path d="" fill="#464446" transform="translate(0,0)"/>
<path d="" fill="#464244" transform="translate(0,0)"/>
<path d="" fill="#484747" transform="translate(0,0)"/>
<path d="" fill="#474647" transform="translate(0,0)"/>
<path d="" fill="#464445" transform="translate(0,0)"/>
<path d="" fill="#4A494B" transform="translate(0,0)"/>
<path d="" fill="#474547" transform="translate(0,0)"/>
<path d="" fill="#484644" transform="translate(0,0)"/>
<path d="" fill="#484747" transform="translate(0,0)"/>
<path d="" fill="#4B4947" transform="translate(0,0)"/>
<path d="" fill="#444443" transform="translate(0,0)"/>
<path d="" fill="#484645" transform="translate(0,0)"/>
<path d="" fill="#433F42" transform="translate(0,0)"/>
<path d="" fill="#474545" transform="translate(0,0)"/>
<path d="" fill="#494847" transform="translate(0,0)"/>
<path d="" fill="#474445" transform="translate(0,0)"/>
<path d="" fill="#434340" transform="translate(0,0)"/>
<path d="" fill="#474445" transform="translate(0,0)"/>
<path d="" fill="#494547" transform="translate(0,0)"/>
<path d="" fill="#454746" transform="translate(0,0)"/>
<path d="" fill="#474546" transform="translate(0,0)"/>
<path d="" fill="#454547" transform="translate(0,0)"/>
<path d="" fill="#494648" transform="translate(0,0)"/>
<path d="" fill="#494749" transform="translate(0,0)"/>
<path d="" fill="#464746" transform="translate(0,0)"/>
<path d="" fill="#474547" transform="translate(0,0)"/>
<path d="" fill="#454647" transform="translate(0,0)"/>
<path d="" fill="#454646" transform="translate(0,0)"/>
<path d="" fill="#464545" transform="translate(0,0)"/>
<path d="" fill="#474746" transform="translate(0,0)"/>
<path d="" fill="#4A484A" transform="translate(0,0)"/>
<path d="" fill="#49484B" transform="translate(0,0)"/>
<path d="" fill="#494A4A" transform="translate(0,0)"/>
<path d="" fill="#494846" transform="translate(0,0)"/>
<path d="" fill="#4C4C4B" transform="translate(0,0)"/>
<path d="" fill="#454444" transform="translate(0,0)"/>
<path d="" fill="#4C4A49" transform="translate(0,0)"/>
<path d="" fill="#464847" transform="translate(0,0)"/>
<path d="" fill="#484747" transform="translate(0,0)"/>
<path d="" fill="#4A4947" transform="translate(0,0)"/>
<path d="" fill="#464747" transform="translate(0,0)"/>
<path d="" fill="#474747" transform="translate(0,0)"/>
<path d="" fill="#474746" transform="translate(0,0)"/>
<path d="" fill="#434145" transform="translate(0,0)"/>
<path d="" fill="#484848" transform="translate(0,0)"/>
<path d="" fill="#484746" transform="translate(0,0)"/>
<path d="" fill="#4A484B" transform="translate(0,0)"/>
<path d="" fill="#4A4948" transform="translate(0,0)"/>
<path d="" fill="#464646" transform="translate(0,0)"/>
<path d="" fill="#464547" transform="translate(0,0)"/>
<path d="" fill="#484849" transform="translate(0,0)"/>
<path d="" fill="#474747" transform="translate(0,0)"/>
<path d="" fill="#474848" transform="translate(0,0)"/>
<path d="" fill="#484849" transform="translate(0,0)"/>
<path d="" fill="#484848" transform="translate(0,0)"/>
<path d="" fill="#474845" transform="translate(0,0)"/>
<path d="" fill="#484647" transform="translate(0,0)"/>
<path d="" fill="#474446" transform="translate(0,0)"/>
<path d="" fill="#494749" transform="translate(0,0)"/>
<path d="" fill="#464546" transform="translate(0,0)"/>
<path d="" fill="#474447" transform="translate(0,0)"/>
<path d="" fill="#474646" transform="translate(0,0)"/>
<path d="" fill="#48494A" transform="translate(0,0)"/>
<path d="" fill="#464646" transform="translate(0,0)"/>
<path d="" fill="#484342" transform="translate(0,0)"/>
<path d="" fill="#484748" transform="translate(0,0)"/>
<path d="" fill="#474648" transform="translate(0,0)"/>
<path d="" fill="#494647" transform="translate(0,0)"/>
<path d="" fill="#4A4749" transform="translate(0,0)"/>
<path d="" fill="#4B4A4A" transform="translate(0,0)"/>
<path d="" fill="#4D4D4C" transform="translate(0,0)"/>
<path d="" fill="#494849" transform="translate(0,0)"/>
<path d="" fill="#464646" transform="translate(0,0)"/>
<path d="" fill="#4C4A4B" transform="translate(0,0)"/>
<path d="" fill="#4A4A4C" transform="translate(0,0)"/>
<path d="" fill="#474745" transform="translate(0,0)"/>
<path d="" fill="#4B484A" transform="translate(0,0)"/>
<path d="" fill="#464748" transform="translate(0,0)"/>
<path d="" fill="#4A4A4B" transform="translate(0,0)"/>
<path d="" fill="#4B4B4C" transform="translate(0,0)"/>
<path d="" fill="#4C4A4C" transform="translate(0,0)"/>
<path d="" fill="#4B4B48" transform="translate(0,0)"/>
<path d="" fill="#4A4B4C" transform="translate(0,0)"/>
<path d="" fill="#4D4C4B" transform="translate(0,0)"/>
<path d="" fill="#494747" transform="translate(0,0)"/>
<path d="" fill="#4B4A4B" transform="translate(0,0)"/>
<path d="" fill="#4D4B4A" transform="translate(0,0)"/>
<path d="" fill="#4E4C4A" transform="translate(0,0)"/>
<path d="" fill="#4E4D4C" transform="translate(0,0)"/>
<path d="" fill="#4D4D4C" transform="translate(0,0)"/>
<path d="" fill="#4E4C4D" transform="translate(0,0)"/>
<path d="" fill="#4A4A4A" transform="translate(0,0)"/>
<path d="" fill="#4A4A49" transform="translate(0,0)"/>
<path d="" fill="#494848" transform="translate(0,0)"/>
<path d="" fill="#474847" transform="translate(0,0)"/>
<path d="" fill="#484647" transform="translate(0,0)"/>
<path d="" fill="#494847" transform="translate(0,0)"/>
<path d="" fill="#484849" transform="translate(0,0)"/>
<path d="" fill="#494A48" transform="translate(0,0)"/>
<path d="" fill="#4A494A" transform="translate(0,0)"/>
<path d="" fill="#494849" transform="translate(0,0)"/>
<path d="" fill="#484648" transform="translate(0,0)"/>
<path d="" fill="#4A4A48" transform="translate(0,0)"/>
<path d="" fill="#484749" transform="translate(0,0)"/>
<path d="" fill="#454345" transform="translate(0,0)"/>
<path d="" fill="#484847" transform="translate(0,0)"/>
<path d="" fill="#454445" transform="translate(0,0)"/>
<path d="" fill="#464646" transform="translate(0,0)"/>
<path d="" fill="#494848" transform="translate(0,0)"/>
<path d="" fill="#424243" transform="translate(0,0)"/>
<path d="" fill="#474849" transform="translate(0,0)"/>
<path d="" fill="#4B494A" transform="translate(0,0)"/>
<path d="" fill="#494749" transform="translate(0,0)"/>
<path d="" fill="#474648" transform="translate(0,0)"/>
<path d="" fill="#464545" transform="translate(0,0)"/>
<path d="" fill="#484949" transform="translate(0,0)"/>
<path d="" fill="#484849" transform="translate(0,0)"/>
<path d="" fill="#4D4A4A" transform="translate(0,0)"/>
<path d="" fill="#4A4848" transform="translate(0,0)"/>
<path d="" fill="#4B474A" transform="translate(0,0)"/>
<path d="" fill="#484948" transform="translate(0,0)"/>
<path d="" fill="#4A484A" transform="translate(0,0)"/>
<path d="" fill="#49494A" transform="translate(0,0)"/>
</svg>
