<?xml version="1.0" encoding="UTF-8"?>
<svg version="1.1" xmlns="http://www.w3.org/2000/svg" width="1000" height="429">
<path d="M0 0 C7.65019455 -0.09315209 15.30032944 -0.16399231 22.95096397 -0.20724869 C26.50446139 -0.22802189 30.05756754 -0.25614773 33.61083984 -0.30175781 C37.70674143 -0.35399721 41.80223942 -0.37302984 45.8984375 -0.390625 C47.1592514 -0.41127014 48.42006531 -0.43191528 49.71908569 -0.45318604 C60.68638815 -0.45594615 68.89312726 1.98581662 76.953125 9.57421875 C84.83625248 18.91662746 86.95375468 29.13132809 86 41 C85.23773449 46.85522889 84.1570286 52.65957303 83.12890625 58.47265625 C82.01056535 64.81874456 81.07559853 71.18062679 80.1875 77.5625 C78.42062914 90.15603982 76.566087 102.73520733 74.6875 115.3125 C74.5387442 116.30881439 74.3899884 117.30512878 74.23672485 118.33163452 C73.62425019 122.43338375 73.01159186 126.53510544 72.39851379 130.63676453 C71.31853571 137.86284791 70.2421783 145.08946321 69.16796875 152.31640625 C68.71809615 155.34211483 68.26820095 158.36782005 67.81829834 161.39352417 C67.52401361 163.37278445 67.22978301 165.35205277 66.93560791 167.33132935 C65.45604767 177.28323466 63.96977027 187.23395342 62.44921875 197.1796875 C62.3295575 197.963508 62.20989624 198.74732849 62.08660889 199.55490112 C61.5346041 203.16908134 60.98026485 206.78287232 60.42138672 210.39599609 C60.23205566 211.63172363 60.04272461 212.86745117 59.84765625 214.140625 C59.6002771 215.74212402 59.6002771 215.74212402 59.34790039 217.37597656 C58.93428367 220.05449825 58.93428367 220.05449825 59 223 C71.71894341 216.36147527 84.36250163 209.59673357 96.93408203 202.68310547 C99.07649364 201.50697984 101.22086141 200.33441363 103.36669922 199.16455078 C134.4067725 182.67276107 134.4067725 182.67276107 160 159 C160.69222656 158.32195312 161.38445312 157.64390625 162.09765625 156.9453125 C173.10248062 145.6919192 178.80224652 128.43703166 183.16796875 113.6875 C184 111 184 111 185 109 C177.08 109 169.16 109 161 109 C162.21464694 102.31944181 163.36888626 96.19815781 165.375 89.8125 C167.38565947 83.22616688 169.15826361 76.61477298 170.74365234 69.91333008 C171.89939389 65.10060611 171.89939389 65.10060611 173 64 C174.49717912 63.89124401 175.99941307 63.85096587 177.50048828 63.83886719 C178.93800949 63.82445587 178.93800949 63.82445587 180.40457153 63.80975342 C181.97161331 63.8033786 181.97161331 63.8033786 183.5703125 63.796875 C185.17469681 63.78832489 185.17469681 63.78832489 186.81149292 63.77960205 C189.08297735 63.7701321 191.35447564 63.7636102 193.62597656 63.75976562 C197.08944056 63.75009924 200.55230144 63.71911048 204.015625 63.6875 C206.22135064 63.6809663 208.42708053 63.67571727 210.6328125 63.671875 C211.66536163 63.6595282 212.69791077 63.6471814 213.76174927 63.63446045 C221.66380578 63.65872711 227.52856151 64.97817003 233.64453125 70.421875 C238.11325722 75.62465683 239.47179513 81.26304309 239 88 C238.30343711 91.16370651 237.35708478 94.22699483 236.375 97.3125 C236.13910156 98.08400391 235.90320313 98.85550781 235.66015625 99.65039062 C233.66854656 106.08992861 231.51569924 112.47637869 229.37506104 118.86747742 C227.82250868 123.50936235 226.29501373 128.15825602 224.79580688 132.81764221 C223.82433927 135.83406284 222.84245742 138.84705146 221.85986328 141.85986328 C221.36924239 143.37214921 220.88292284 144.88583725 220.40087891 146.40087891 C216.8610114 157.50676626 212.45970532 167.70468777 207 178 C206.32855487 179.33093338 205.65909463 180.66290745 205 182 C204.34 182 203.68 182 203 182 C202.731875 182.556875 202.46375 183.11375 202.1875 183.6875 C198.28571429 191.28571429 198.28571429 191.28571429 195 194 C194.34 194 193.68 194 193 194 C193 194.66 193 195.32 193 196 C192.34 196 191.68 196 191 196 C191 196.66 191 197.32 191 198 C177.68199606 210.84730526 160.63270896 219.64081629 144.6171875 228.53710938 C141.76868059 230.12929719 138.94279699 231.7568732 136.12158203 233.39672852 C131.34390639 236.17204691 126.5277194 238.76385965 121.5625 241.1875 C115.29493962 244.26544446 109.24720671 247.65756924 103.1875 251.125 C94.64739267 256.00108435 86.03123772 260.70059679 77.3125 265.25 C76.24346436 265.81090332 75.17442871 266.37180664 74.07299805 266.94970703 C73.0756665 267.46645996 72.07833496 267.98321289 71.05078125 268.515625 C70.17075439 268.97227539 69.29072754 269.42892578 68.3840332 269.89941406 C62.01522856 272.83956474 54.52935667 273.11065343 47.875 270.875 C34.10712934 264.88776967 24.29185277 251.39698071 18.71484375 237.88671875 C13.93294787 224.39800169 14.37355277 210.73242317 16.25 196.6875 C16.38277344 195.65625 16.51554687 194.625 16.65234375 193.5625 C17.71644778 185.54755129 19.07282078 177.60079527 20.51855469 169.6472168 C21.74600423 162.78577387 22.6850826 155.92176059 23.5 149 C24.54547368 140.12568051 25.92445338 131.36513663 27.51953125 122.57421875 C28.71364366 115.90177385 29.66893082 109.22675157 30.5 102.5 C31.55649252 93.95445579 32.86812313 85.49089641 34.46679688 77.02929688 C36.42340768 66.38565883 37.59289036 55.7878406 39 45 C15.735 44.505 15.735 44.505 -8 44 C-6.8752553 32.75255302 -6.8752553 32.75255302 -5.87890625 28.125 C-5.55889648 26.61679687 -5.55889648 26.61679687 -5.23242188 25.078125 C-5.01134766 24.06234375 -4.79027344 23.0465625 -4.5625 22 C-4.1259418 19.95841034 -3.68974015 17.9167444 -3.25390625 15.875 C-3.06127197 14.98554687 -2.8686377 14.09609375 -2.67016602 13.1796875 C-1.74567095 8.79330363 -0.8732109 4.39684025 0 0 Z " fill="#F5313E" transform="translate(8,33)"/>
<path d="M0 0 C8.15314528 7.39712635 12.71795677 17.03143307 13.3359375 28.04296875 C13.63339398 41.6560727 11.32587016 53.51967009 2 64 C-15.05212001 81.05212001 -41.12126707 86.9834894 -64.45141602 87.25097656 C-71.71902586 87.24838261 -78.78411365 86.89926624 -86 86 C-84.50664778 91.70189031 -82.06306067 96.08178109 -77.03515625 99.23046875 C-66.25827881 104.78949119 -52.45867721 104.68836958 -40.9375 101.375 C-33.94394053 98.86266399 -27.82971902 95.28785793 -22.0625 90.625 C-20 89 -20 89 -17 89 C-15.421875 90.50390625 -15.421875 90.50390625 -13.75 92.5625 C-10.78058003 96.12707024 -7.6554735 99.36955252 -4.28515625 102.5546875 C-3 104 -3 104 -3 106 C-2.34 106 -1.68 106 -1 106 C0.7143618 107.95927063 2.38405168 109.95880212 4 112 C2.61958974 117.69419234 -1.63615304 120.50581649 -6 124 C-6.62132812 124.51820313 -7.24265625 125.03640625 -7.8828125 125.5703125 C-27.12828714 140.95058721 -52.21684999 143.62926186 -76 142 C-89.50095345 140.32546314 -103.19590491 134.60603256 -113 125 C-113 124.34 -113 123.68 -113 123 C-113.66 123 -114.32 123 -115 123 C-127.29146447 110.18220078 -131.38626256 93.44345645 -131.23168945 76.13745117 C-130.6773132 52.40057948 -122.96407767 30.83231785 -106 14 C-105.20529297 13.15115234 -105.20529297 13.15115234 -104.39453125 12.28515625 C-103.31326117 11.14046857 -102.16513072 10.05920975 -101 9 C-100.34 9 -99.68 9 -99 9 C-99 8.34 -99 7.68 -99 7 C-72.83439969 -13.15839778 -27.84827555 -21.16641377 0 0 Z M-73 36 C-73 36.66 -73 37.32 -73 38 C-73.66 38 -74.32 38 -75 38 C-75 38.66 -75 39.32 -75 40 C-75.99 40.33 -76.98 40.66 -78 41 C-79.68133258 43.31660564 -79.68133258 43.31660564 -81.1875 46.0625 C-81.71730469 46.98160156 -82.24710938 47.90070313 -82.79296875 48.84765625 C-83.19128906 49.55792969 -83.58960938 50.26820313 -84 51 C-56.00192952 52.09294011 -56.00192952 52.09294011 -30.375 42.1875 C-28.31411739 38.90882312 -28.40164243 36.78959794 -29 33 C-31.1727422 30.36983839 -32.94673788 28.52663106 -36 27 C-49.44482752 26.14480242 -62.18653062 26.89065903 -73 36 Z " fill="#F5313E" transform="translate(873,161)"/>
<path d="M0 0 C8.21479736 6.7253855 12.36271192 14.88991966 13.65234375 25.3359375 C14.47537737 39.69154306 12.97414691 51.93690012 3.65234375 63.3359375 C-12.76472787 80.21893602 -37.83739446 86.88894924 -60.73046875 87.5546875 C-68.98193295 87.66121692 -77.16015561 87.42760425 -85.34765625 86.3359375 C-83.41339329 92.93518759 -81.15587281 96.59051539 -75.34765625 100.3359375 C-69.34620028 103.01709991 -63.62225923 103.85903037 -57.09765625 103.7734375 C-55.85713501 103.76098999 -55.85713501 103.76098999 -54.59155273 103.74829102 C-42.40138216 103.41556271 -32.36750996 99.1907898 -22.34765625 92.3359375 C-21.82429688 91.74941406 -21.3009375 91.16289062 -20.76171875 90.55859375 C-19.34765625 89.3359375 -19.34765625 89.3359375 -17.3671875 89.421875 C-14.87661966 90.54913394 -13.75138542 91.8392031 -12.03515625 93.9609375 C-9.71806546 96.73847582 -7.37443823 99.37216902 -4.78515625 101.8984375 C-2.43108967 104.23649002 -0.09596006 106.58301536 2.15234375 109.0234375 C2.65765625 109.56355469 3.16296875 110.10367188 3.68359375 110.66015625 C4.65234375 112.3359375 4.65234375 112.3359375 4.4609375 114.37109375 C3.20947607 117.41208456 1.09130946 119.19440663 -1.34765625 121.3359375 C-2.00765625 121.3359375 -2.66765625 121.3359375 -3.34765625 121.3359375 C-3.34765625 121.9959375 -3.34765625 122.6559375 -3.34765625 123.3359375 C-24.60384254 139.94692679 -51.26815093 145.25337165 -77.82617188 142.03564453 C-95.53527659 138.98436112 -109.98255179 129.99520065 -120.37109375 115.421875 C-128.15739509 103.26539662 -129.74128992 92.00423554 -129.72265625 77.7734375 C-129.72244476 77.10741516 -129.72223328 76.44139282 -129.72201538 75.75518799 C-129.68911306 65.3820694 -128.92757621 56.12496453 -125.34765625 46.3359375 C-124.98542969 45.28148437 -124.62320312 44.22703125 -124.25 43.140625 C-121.35938103 35.47803505 -117.06526353 28.99057559 -112.34765625 22.3359375 C-111.68765625 21.3459375 -111.02765625 20.3559375 -110.34765625 19.3359375 C-109.68765625 19.3359375 -109.02765625 19.3359375 -108.34765625 19.3359375 C-108.07953125 18.74425781 -107.81140625 18.15257812 -107.53515625 17.54296875 C-100.99890339 5.39499879 -84.02196265 -2.91639411 -71.55078125 -6.95703125 C-48.58283402 -13.66812975 -20.22903386 -14.33871618 0 0 Z M-73.34765625 37.3359375 C-73.34765625 37.9959375 -73.34765625 38.6559375 -73.34765625 39.3359375 C-74.23710937 39.67238281 -74.23710937 39.67238281 -75.14453125 40.015625 C-77.99267042 41.72248854 -78.97567642 43.58560962 -80.59765625 46.4609375 C-81.1184375 47.37101562 -81.63921875 48.28109375 -82.17578125 49.21875 C-82.5625 49.91742188 -82.94921875 50.61609375 -83.34765625 51.3359375 C-55.17515057 52.31092209 -55.17515057 52.31092209 -29.34765625 42.3359375 C-27.77830031 39.19722562 -27.99564522 36.79737928 -28.34765625 33.3359375 C-30.52039845 30.70577589 -32.29439413 28.86256856 -35.34765625 27.3359375 C-50.02180041 26.49925384 -61.40619326 27.91444104 -73.34765625 37.3359375 Z " fill="#F5313E" transform="translate(456.34765625,160.6640625)"/>
<path d="M0 0 C0.89874816 0.00092179 1.79749632 0.00184359 2.72347927 0.00279331 C3.75138073 0.00141865 4.77928219 0.00004398 5.83833218 -0.00137234 C6.975527 0.00222294 8.11272182 0.00581821 9.2843771 0.00952244 C10.47445873 0.00937641 11.66454037 0.00923038 12.89068508 0.00907993 C16.16326569 0.00965889 19.43580402 0.01468801 22.70837617 0.02165389 C26.1250196 0.02788815 29.54166379 0.02849128 32.95831203 0.0296793 C39.43232563 0.0327924 45.90632242 0.0410055 52.3803286 0.05102879 C59.74901216 0.06219058 67.11769651 0.06770054 74.48638642 0.07272422 C89.64814464 0.08318813 104.80988712 0.10078717 119.97163296 0.12304783 C120.088066 4.0186287 120.15896205 7.91376041 120.22163296 11.81054783 C120.25514858 12.9133408 120.28866421 14.01613377 120.32319546 15.1523447 C120.42218691 23.34388738 120.42218691 23.34388738 118.08100796 27.39257908 C115.97163296 29.12304783 115.97163296 29.12304783 113.97163296 29.12304783 C113.97163296 29.78304783 113.97163296 30.44304783 113.97163296 31.12304783 C113.31163296 31.12304783 112.65163296 31.12304783 111.97163296 31.12304783 C111.97163296 31.78304783 111.97163296 32.44304783 111.97163296 33.12304783 C110.59663296 34.74804783 110.59663296 34.74804783 108.97163296 36.12304783 C108.31163296 36.12304783 107.65163296 36.12304783 106.97163296 36.12304783 C106.97163296 36.78304783 106.97163296 37.44304783 106.97163296 38.12304783 C106.31163296 38.12304783 105.65163296 38.12304783 104.97163296 38.12304783 C104.97163296 38.78304783 104.97163296 39.44304783 104.97163296 40.12304783 C103.59663296 41.74804783 103.59663296 41.74804783 101.97163296 43.12304783 C101.31163296 43.12304783 100.65163296 43.12304783 99.97163296 43.12304783 C99.97163296 43.78304783 99.97163296 44.44304783 99.97163296 45.12304783 C99.31163296 45.12304783 98.65163296 45.12304783 97.97163296 45.12304783 C97.97163296 45.78304783 97.97163296 46.44304783 97.97163296 47.12304783 C96.59663296 48.74804783 96.59663296 48.74804783 94.97163296 50.12304783 C94.31163296 50.12304783 93.65163296 50.12304783 92.97163296 50.12304783 C92.97163296 50.78304783 92.97163296 51.44304783 92.97163296 52.12304783 C92.31163296 52.12304783 91.65163296 52.12304783 90.97163296 52.12304783 C90.97163296 52.78304783 90.97163296 53.44304783 90.97163296 54.12304783 C89.59663296 55.74804783 89.59663296 55.74804783 87.97163296 57.12304783 C87.31163296 57.12304783 86.65163296 57.12304783 85.97163296 57.12304783 C85.97163296 57.78304783 85.97163296 58.44304783 85.97163296 59.12304783 C85.31163296 59.12304783 84.65163296 59.12304783 83.97163296 59.12304783 C83.97163296 59.78304783 83.97163296 60.44304783 83.97163296 61.12304783 C82.59663296 62.74804783 82.59663296 62.74804783 80.97163296 64.12304783 C80.31163296 64.12304783 79.65163296 64.12304783 78.97163296 64.12304783 C78.97163296 64.78304783 78.97163296 65.44304783 78.97163296 66.12304783 C78.31163296 66.12304783 77.65163296 66.12304783 76.97163296 66.12304783 C76.97163296 66.78304783 76.97163296 67.44304783 76.97163296 68.12304783 C75.59663296 69.74804783 75.59663296 69.74804783 73.97163296 71.12304783 C73.31163296 71.12304783 72.65163296 71.12304783 71.97163296 71.12304783 C71.97163296 71.78304783 71.97163296 72.44304783 71.97163296 73.12304783 C71.31163296 73.12304783 70.65163296 73.12304783 69.97163296 73.12304783 C69.97163296 73.78304783 69.97163296 74.44304783 69.97163296 75.12304783 C68.59663296 76.74804783 68.59663296 76.74804783 66.97163296 78.12304783 C66.31163296 78.12304783 65.65163296 78.12304783 64.97163296 78.12304783 C64.97163296 78.78304783 64.97163296 79.44304783 64.97163296 80.12304783 C64.31163296 80.12304783 63.65163296 80.12304783 62.97163296 80.12304783 C62.97163296 80.78304783 62.97163296 81.44304783 62.97163296 82.12304783 C61.59663296 83.74804783 61.59663296 83.74804783 59.97163296 85.12304783 C59.31163296 85.12304783 58.65163296 85.12304783 57.97163296 85.12304783 C57.97163296 85.78304783 57.97163296 86.44304783 57.97163296 87.12304783 C57.31163296 87.12304783 56.65163296 87.12304783 55.97163296 87.12304783 C55.97163296 87.78304783 55.97163296 88.44304783 55.97163296 89.12304783 C54.59663296 90.74804783 54.59663296 90.74804783 52.97163296 92.12304783 C52.31163296 92.12304783 51.65163296 92.12304783 50.97163296 92.12304783 C50.97163296 92.78304783 50.97163296 93.44304783 50.97163296 94.12304783 C50.31163296 94.12304783 49.65163296 94.12304783 48.97163296 94.12304783 C48.97163296 94.78304783 48.97163296 95.44304783 48.97163296 96.12304783 C47.59663296 97.74804783 47.59663296 97.74804783 45.97163296 99.12304783 C45.31163296 99.12304783 44.65163296 99.12304783 43.97163296 99.12304783 C43.97163296 99.78304783 43.97163296 100.44304783 43.97163296 101.12304783 C43.31163296 101.12304783 42.65163296 101.12304783 41.97163296 101.12304783 C41.97163296 101.78304783 41.97163296 102.44304783 41.97163296 103.12304783 C40.59663296 104.74804783 40.59663296 104.74804783 38.97163296 106.12304783 C38.31163296 106.12304783 37.65163296 106.12304783 36.97163296 106.12304783 C36.97163296 106.78304783 36.97163296 107.44304783 36.97163296 108.12304783 C36.31163296 108.12304783 35.65163296 108.12304783 34.97163296 108.12304783 C34.97163296 108.78304783 34.97163296 109.44304783 34.97163296 110.12304783 C56.75163296 110.12304783 78.53163296 110.12304783 100.97163296 110.12304783 C96.17163296 143.72304783 96.17163296 143.72304783 93.97163296 148.12304783 C77.82131376 148.14637692 61.67099999 148.16402705 45.52066803 148.17486 C38.02230231 148.18002294 30.52394705 148.18706559 23.02558804 148.19848728 C16.49232792 148.20843419 9.95907537 148.21490127 3.42580789 148.21713632 C-0.03558511 148.21844342 -3.49695647 148.22152919 -6.95834255 148.22877789 C-10.81624231 148.2367919 -14.67412061 148.23703896 -18.53202915 148.23657322 C-19.68792545 148.2401685 -20.84382175 148.24376377 -22.03474522 148.24746799 C-23.07947498 148.24609333 -24.12420475 148.24471867 -25.20059299 148.24330235 C-26.57083827 148.24468503 -26.57083827 148.24468503 -27.96876526 148.24609566 C-30.02836704 148.12304783 -30.02836704 148.12304783 -31.02836704 147.12304783 C-32.41856568 138.54050206 -33.86597927 127.33301133 -29.58403111 119.47119236 C-25.84366341 114.67741091 -21.23647042 110.30577767 -16.02836704 107.12304783 C-15.36836704 107.12304783 -14.70836704 107.12304783 -14.02836704 107.12304783 C-14.02836704 106.46304783 -14.02836704 105.80304783 -14.02836704 105.12304783 C-13.36836704 105.12304783 -12.70836704 105.12304783 -12.02836704 105.12304783 C-12.02836704 104.46304783 -12.02836704 103.80304783 -12.02836704 103.12304783 C-11.36836704 103.12304783 -10.70836704 103.12304783 -10.02836704 103.12304783 C-9.53336704 101.63804783 -9.53336704 101.63804783 -9.02836704 100.12304783 C-8.36836704 100.12304783 -7.70836704 100.12304783 -7.02836704 100.12304783 C-7.02836704 99.46304783 -7.02836704 98.80304783 -7.02836704 98.12304783 C-6.36836704 98.12304783 -5.70836704 98.12304783 -5.02836704 98.12304783 C-5.02836704 97.46304783 -5.02836704 96.80304783 -5.02836704 96.12304783 C-4.36836704 96.12304783 -3.70836704 96.12304783 -3.02836704 96.12304783 C-2.53336704 94.63804783 -2.53336704 94.63804783 -2.02836704 93.12304783 C-1.36836704 93.12304783 -0.70836704 93.12304783 -0.02836704 93.12304783 C-0.02836704 92.46304783 -0.02836704 91.80304783 -0.02836704 91.12304783 C0.63163296 91.12304783 1.29163296 91.12304783 1.97163296 91.12304783 C1.97163296 90.46304783 1.97163296 89.80304783 1.97163296 89.12304783 C2.63163296 89.12304783 3.29163296 89.12304783 3.97163296 89.12304783 C3.97163296 88.46304783 3.97163296 87.80304783 3.97163296 87.12304783 C5.34663296 85.49804783 5.34663296 85.49804783 6.97163296 84.12304783 C7.63163296 84.12304783 8.29163296 84.12304783 8.97163296 84.12304783 C8.97163296 83.46304783 8.97163296 82.80304783 8.97163296 82.12304783 C9.63163296 82.12304783 10.29163296 82.12304783 10.97163296 82.12304783 C10.97163296 81.46304783 10.97163296 80.80304783 10.97163296 80.12304783 C13.34663296 77.49804783 13.34663296 77.49804783 15.97163296 75.12304783 C16.63163296 75.12304783 17.29163296 75.12304783 17.97163296 75.12304783 C17.97163296 74.46304783 17.97163296 73.80304783 17.97163296 73.12304783 C19.405828 71.88897303 20.84609039 70.66089411 22.32319546 69.47851658 C24.7056493 67.51948463 26.81977589 65.33008072 28.97163296 63.12304783 C36.97163296 55.12304783 44.97163296 47.12304783 52.97163296 39.12304783 C32.51163296 38.79304783 12.05163296 38.46304783 -9.02836704 38.12304783 C-7.77119016 29.32280967 -6.4873799 20.56358567 -4.96586704 11.81054783 C-4.70579868 10.272374 -4.70579868 10.272374 -4.44047642 8.70312595 C-4.27225376 7.73181736 -4.10403111 6.76050877 -3.93071079 5.75976658 C-3.78109898 4.89053562 -3.63148716 4.02130466 -3.47734165 3.12573338 C-2.88078264 0.46473631 -2.74455636 0.16649437 0 0 Z " fill="#F5313E" transform="translate(495.0283670425415,152.87695217132568)"/>
<path d="M0 0 C39.93 0 79.86 0 121 0 C121 8.58 121 17.16 121 26 C119.02 27.65 117.04 29.3 115 31 C113.31288577 32.6459651 111.6454378 34.31237149 110 36 C109.175 36.804375 108.35 37.60875 107.5 38.4375 C104.92636885 40.9980505 104.92636885 40.9980505 102.5625 44 C99.93248768 47.07903881 97.1374966 49.45078401 94 52 C92.31288577 53.6459651 90.6454378 55.31237149 89 57 C87.7625 58.2065625 87.7625 58.2065625 86.5 59.4375 C83.92636885 61.9980505 83.92636885 61.9980505 81.5625 65 C78.93248768 68.07903881 76.1374966 70.45078401 73 73 C71.31288577 74.6459651 69.6454378 76.31237149 68 78 C67.175 78.804375 66.35 79.60875 65.5 80.4375 C62.92636885 82.9980505 62.92636885 82.9980505 60.5625 86 C57.93248768 89.07903881 55.1374966 91.45078401 52 94 C50.31288577 95.6459651 48.6454378 97.31237149 47 99 C43.66666667 102.33333333 40.33333333 105.66666667 37 109 C69.67 109.495 69.67 109.495 103 110 C100.79316233 122.68931662 98.52593386 135.37033068 96 148 C55.08 148 14.16 148 -28 148 C-28 117.9233128 -28 117.9233128 -21.6477356 111.53742981 C-20.27909866 110.36841377 -20.27909866 110.36841377 -18.8828125 109.17578125 C-17.49157669 107.83473579 -17.49157669 107.83473579 -16.07223511 106.46659851 C-13.65262317 104.13696626 -11.16322106 101.90072318 -8.64697266 99.67645264 C-6.0808221 97.3767347 -3.59902967 94.98910927 -1.10546875 92.61132812 C13.32060464 79 13.32060464 79 16 79 C16 78.34 16 77.68 16 77 C16.66 77 17.32 77 18 77 C18.268125 76.360625 18.53625 75.72125 18.8125 75.0625 C20 73 20 73 23 72 C23 71.34 23 70.68 23 70 C23.66 70 24.32 70 25 70 C25.268125 69.360625 25.53625 68.72125 25.8125 68.0625 C27 66 27 66 30 65 C30 64.34 30 63.68 30 63 C30.66 63 31.32 63 32 63 C32 62.34 32 61.68 32 61 C32.66 61 33.32 61 34 61 C34 60.34 34 59.68 34 59 C35.375 57.375 35.375 57.375 37 56 C37.66 56 38.32 56 39 56 C39 55.34 39 54.68 39 54 C41.375 51.375 41.375 51.375 44 49 C44.66 49 45.32 49 46 49 C46 48.34 46 47.68 46 47 C47.44441792 45.74817113 48.89298507 44.49910559 50.39453125 43.31640625 C52.02153288 41.98234409 53.51224059 40.48775941 55 39 C34.54 38.67 14.08 38.34 -7 38 C-6.31249413 31.81244715 -5.57241761 25.70559607 -4.625 19.5625 C-4.5115625 18.78068359 -4.398125 17.99886719 -4.28125 17.19335938 C-3.34688844 11.1448593 -1.79721615 5.99072051 0 0 Z " fill="#F5313E" transform="translate(628,153)"/>
<path d="M0 0 C0.82113281 -0.02900391 1.64226562 -0.05800781 2.48828125 -0.08789062 C9.47179807 -0.1598286 14.50783158 1.59978661 19.87890625 6.09375 C20.35199219 6.6609375 20.82507813 7.228125 21.3125 7.8125 C22.05693359 8.66328125 22.05693359 8.66328125 22.81640625 9.53125 C23.75 11.3125 23.75 11.3125 23.58203125 13.3125 C22.63302682 15.59367497 21.54470938 16.99099886 19.875 18.8125 C19.24980469 19.50214844 18.62460937 20.19179687 17.98046875 20.90234375 C17.24441406 21.69769531 16.50835938 22.49304688 15.75 23.3125 C14.37573331 24.81007282 13.00148339 26.30766113 11.62768555 27.80566406 C10.67040035 28.84879498 9.71223434 29.89111828 8.75317383 30.93261719 C5.32987844 34.65584597 2.00488606 38.44182468 -1.25 42.3125 C-3.34487388 41.26946405 -5.43026828 40.21735841 -7.5 39.125 C-12.59513116 37.61962034 -16.73186085 38.58379321 -21.375 40.8125 C-28.57000153 47.06902307 -31.25655431 54.24868585 -32.875 63.4375 C-33.07536865 64.48156006 -33.2757373 65.52562012 -33.48217773 66.60131836 C-34.09516928 69.83453876 -34.67669711 73.07202782 -35.25 76.3125 C-35.42772949 77.29718262 -35.60545898 78.28186523 -35.78857422 79.29638672 C-36.98889639 85.96071065 -38.12666492 92.63483403 -39.25 99.3125 C-42.14058823 116.43104763 -45.48376014 133.36442064 -49.25 150.3125 C-62.45 150.3125 -75.65 150.3125 -89.25 150.3125 C-87.9884242 141.48146939 -86.70778388 132.67295348 -85.25 123.875 C-85.0025 122.34069336 -85.0025 122.34069336 -84.75 120.77539062 C-84.585 119.77830078 -84.42 118.78121094 -84.25 117.75390625 C-84.105625 116.87420166 -83.96125 115.99449707 -83.8125 115.08813477 C-83.25 112.3125 -83.25 112.3125 -82.25927734 108.8972168 C-81.28313464 105.43018647 -80.64271262 102.07405132 -80.1015625 98.515625 C-79.90288574 97.23655273 -79.70420898 95.95748047 -79.49951172 94.63964844 C-79.39765564 93.97380737 -79.29579956 93.30796631 -79.19085693 92.62194824 C-77.60715151 82.29588284 -75.89519363 72.0327314 -73.62939453 61.83105469 C-72.46234429 56.51594061 -71.55671125 51.19349391 -70.75 45.8125 C-69.56009691 37.89287067 -68.02171611 30.0883029 -66.3125 22.265625 C-64.88889213 15.62910006 -63.58113778 8.96818891 -62.25 2.3125 C-49.05 2.3125 -35.85 2.3125 -22.25 2.3125 C-21.755 3.7975 -21.755 3.7975 -21.25 5.3125 C-20.71890625 5.03535156 -20.1878125 4.75820312 -19.640625 4.47265625 C-18.93421875 4.11042969 -18.2278125 3.74820313 -17.5 3.375 C-16.45585938 2.83552734 -16.45585938 2.83552734 -15.390625 2.28515625 C-10.36440251 0.00134348 -5.43093818 0.06276123 0 0 Z " fill="#F5313E" transform="translate(976.25,150.6875)"/>
<path d="M0 0 C13.2 0 26.4 0 40 0 C38.87603504 10.11568463 38.87603504 10.11568463 37.94921875 14.9765625 C37.7473999 16.04745117 37.54558105 17.11833984 37.33764648 18.22167969 C37.12309814 19.34477539 36.9085498 20.46787109 36.6875 21.625 C35.0508469 30.32463638 33.44387591 39.02680357 31.9375 47.75 C31.77660889 48.67925293 31.61571777 49.60850586 31.44995117 50.56591797 C30.62649527 55.33425397 29.81246366 60.10411684 29.00390625 64.875 C27.50984815 73.64222603 25.97005223 82.37497848 24.0625 91.0625 C22.23167512 99.41113444 20.81603869 107.81630601 19.4375 116.25 C14.84891941 144.30216118 14.84891941 144.30216118 13 148 C-0.2 148 -13.4 148 -27 148 C-25.72013396 139.04093773 -24.37265875 130.18995121 -22.6875 121.3125 C-22.2447578 118.94922509 -21.80205048 116.58594365 -21.359375 114.22265625 C-21.13443359 113.02785645 -20.90949219 111.83305664 -20.67773438 110.60205078 C-19.58973459 104.81950439 -18.51186846 99.035093 -17.4375 93.25 C-17.23036377 92.13568604 -17.02322754 91.02137207 -16.80981445 89.87329102 C-15.26886894 81.54561508 -13.81138674 73.20527033 -12.37866211 64.85839844 C-11.28741568 58.54059757 -10.06826034 52.26450977 -8.77734375 45.984375 C-7.58880195 40.04321157 -6.6106901 34.06097118 -5.62109375 28.08398438 C-4.02398844 18.64346781 -1.9791873 9.40113966 0 0 Z " fill="#F5313E" transform="translate(280,153)"/>
<path d="M0 0 C1.9375 1.6875 1.9375 1.6875 3 4 C2.54392519 7.98313803 1.12685458 11.04554812 -0.73046875 14.5703125 C-1.28669922 15.6325 -1.84292969 16.6946875 -2.41601562 17.7890625 C-3.29290039 19.44035156 -3.29290039 19.44035156 -4.1875 21.125 C-5.03538086 22.74148438 -5.03538086 22.74148438 -5.90039062 24.390625 C-7.58834202 27.60024621 -9.29078442 30.80165758 -11 34 C-11.54591797 35.02472412 -12.09183594 36.04944824 -12.65429688 37.10522461 C-13.43450195 38.55554077 -13.43450195 38.55554077 -14.23046875 40.03515625 C-14.6896167 40.88988525 -15.14876465 41.74461426 -15.62182617 42.62524414 C-20.56871612 51.14931827 -26.88393482 55.42031247 -36 59 C-40.58661092 60.07107668 -45.1494466 60.55516791 -49.8359375 60.9765625 C-51.78897293 61.18095695 -51.78897293 61.18095695 -53.78146362 61.38948059 C-57.26113808 61.75336955 -60.74296798 62.08904256 -64.22602844 62.41871262 C-67.83564456 62.76521244 -71.44256963 63.1377239 -75.04980469 63.50805664 C-80.75371389 64.09105938 -86.45881327 64.66037416 -92.16503906 65.22021484 C-98.86260879 65.87881982 -105.55357909 66.58811118 -112.2421875 67.33203125 C-113.98778881 67.52461448 -115.73339409 67.71716182 -117.47900391 67.90966797 C-119.82237689 68.16843779 -122.16563275 68.42801287 -124.50848389 68.69146729 C-144.19957422 70.89030663 -144.19957422 70.89030663 -150 70 C-152 67 -152 67 -151.859375 64.13671875 C-150.8890057 60.5948708 -149.57781966 58.63476256 -147.25 55.8125 C-146.23679688 54.55373047 -146.23679688 54.55373047 -145.203125 53.26953125 C-140.12275618 48.03603075 -135.67588324 47.50278972 -128.703125 47.1484375 C-126.83713414 47.01843181 -124.9712513 46.88686809 -123.10546875 46.75390625 C-120.19728889 46.55989793 -117.28998225 46.37711507 -114.37939453 46.22314453 C-100.96989532 45.48418329 -91.21623305 43.14113771 -79.76202393 36.06195068 C-77.37030641 34.62049123 -74.89276128 33.42180303 -72.36328125 32.2421875 C-71.53473633 31.85208496 -70.70619141 31.46198242 -69.85253906 31.06005859 C-69.01432617 30.66898926 -68.17611328 30.27791992 -67.3125 29.875 C-58.71528974 25.8151244 -50.19253172 21.62426175 -41.69857788 17.35409546 C-36.13723998 14.55970847 -30.56840894 11.78026084 -25 9 C-23.98099609 8.49001465 -22.96199219 7.9800293 -21.91210938 7.45458984 C-19.28096996 6.14400679 -16.64253934 4.84990453 -14 3.5625 C-13.25975586 3.19108887 -12.51951172 2.81967773 -11.75683594 2.43701172 C-7.68824916 0.47952034 -4.52330731 -0.56625606 0 0 Z " fill="#F5313E" transform="translate(174,279)"/>
<path d="M0 0 C8 0 8 0 10.5 2 C10.995 2.66 11.49 3.32 12 4 C12.78375 3.34 13.5675 2.68 14.375 2 C18.60095779 -0.81730519 23.09313954 -0.87382447 28 0 C30.625 2 30.625 2 32 4 C34.9719385 2.87548273 37.33440687 1.77706209 40 0 C42.33984375 -0.265625 42.33984375 -0.265625 44.9375 -0.25 C45.79214844 -0.25515625 46.64679687 -0.2603125 47.52734375 -0.265625 C50.29175791 0.03134208 51.74607722 0.36249451 54 2 C56.54358733 6.29291497 57.38739066 9.535376 57.4765625 14.5 C57.5075 15.716875 57.5384375 16.93375 57.5703125 18.1875 C57.58835937 19.445625 57.60640625 20.70375 57.625 22 C57.67623101 24.50007322 57.73080167 27.00008072 57.7890625 29.5 C57.80662598 30.6034375 57.82418945 31.706875 57.84228516 32.84375 C57.99829482 35.9658753 58.42381721 38.93010734 59 42 C54.91569792 44.72286806 52.85409123 44.38524534 48 44 C45.7223788 40.5835682 45.71734712 39.18639465 45.62109375 35.16015625 C45.58693359 34.01482422 45.55277344 32.86949219 45.51757812 31.68945312 C45.49115234 30.49255859 45.46472656 29.29566406 45.4375 28.0625 C45.3774898 25.69911942 45.31384066 23.33582771 45.24609375 20.97265625 C45.22216553 19.92343994 45.1982373 18.87422363 45.17358398 17.79321289 C45.07050397 14.76664587 45.07050397 14.76664587 44 11 C41.03 11.66 38.06 12.32 35 13 C35 23.23 35 33.46 35 44 C31.04 44 27.08 44 23 44 C22.97494385 43.06615479 22.9498877 42.13230957 22.92407227 41.17016602 C22.82913072 37.71674811 22.72988742 34.2635104 22.62768555 30.81030273 C22.58428187 29.31360731 22.54261087 27.81686061 22.50268555 26.32006836 C22.44511384 24.17285688 22.38138284 22.02590479 22.31640625 19.87890625 C22.27974854 18.5854126 22.24309082 17.29191895 22.20532227 15.95922852 C22.3332722 13.11444992 22.3332722 13.11444992 21 12 C18.04182893 11.74994614 18.04182893 11.74994614 15 12 C12.17120714 14.82879286 12.6857334 16.79924198 12.5859375 20.7578125 C12.56657135 21.42086395 12.5472052 22.08391541 12.5272522 22.76705933 C12.46744046 24.88624177 12.42106612 27.0054785 12.375 29.125 C12.33682155 30.56122169 12.29776989 31.99742045 12.2578125 33.43359375 C12.16173875 36.95551936 12.07771358 40.47761608 12 44 C8.04 44 4.08 44 0 44 C0 29.48 0 14.96 0 0 Z " fill="#88898D" transform="translate(511,335)"/>
<path d="M0 0 C4.69950137 2.75284599 9.54855679 7.21484011 11.36328125 12.44921875 C12.44191599 19.27190836 12.29292989 25.45218212 8.6875 31.5 C3.18826624 37.25161405 -1.80593168 39.82483639 -9.71875 40.46484375 C-17.06093775 40.56436135 -22.53643768 37.73662485 -28.0625 33 C-31.50361732 28.87065921 -31.6779177 24.84735102 -31.6875 19.625 C-31.71199219 18.93019531 -31.73648437 18.23539063 -31.76171875 17.51953125 C-31.79105263 12.32743389 -30.59279609 9.46967531 -27.3125 5.5 C-25.27734375 3.63671875 -25.27734375 3.63671875 -23.25 2.1875 C-22.57839844 1.69636719 -21.90679687 1.20523438 -21.21484375 0.69921875 C-15.31987645 -3.01691053 -6.26368226 -2.78795269 0 0 Z " fill="#F5313E" transform="translate(316.3125,95.5)"/>
<path d="M0 0 C2.0078125 0.5234375 2.0078125 0.5234375 3.60351562 2.35522461 C5.70386178 7.09378373 5.46846928 11.60863867 5.484375 16.73828125 C5.49995453 17.82677872 5.51553406 18.91527618 5.53158569 20.03675842 C5.57905559 23.5114774 5.60683883 26.98599704 5.6328125 30.4609375 C5.66938466 33.9321648 5.71010758 37.40328134 5.75546265 40.87440491 C5.78253259 43.03240994 5.80395094 45.19049522 5.81900024 47.34861755 C5.86965357 52.20778262 6.17173769 56.72693167 7.0078125 61.5234375 C5.9453125 63.4609375 5.9453125 63.4609375 4.0078125 64.5234375 C0.15532655 64.28265713 -1.75258684 63.68317128 -4.9921875 61.5234375 C-5.9615625 62.1834375 -6.9309375 62.8434375 -7.9296875 63.5234375 C-12.26311266 65.9796299 -16.1059671 66.38833418 -20.9921875 65.5234375 C-26.43233178 62.95733171 -28.53256252 59.80707634 -30.9921875 54.5234375 C-33.44636531 45.52478552 -32.71981501 35.49161617 -28.2421875 27.3359375 C-25.61560878 24.0527141 -23.81401489 22.33011954 -19.9921875 20.5234375 C-10.83199904 19.60353173 -10.83199904 19.60353173 -6.9921875 21.5234375 C-7.00004272 20.62250366 -7.00004272 20.62250366 -7.00805664 19.70336914 C-7.02876764 16.99756912 -7.04182875 14.29178573 -7.0546875 11.5859375 C-7.06306641 10.64041016 -7.07144531 9.69488281 -7.08007812 8.72070312 C-7.08491211 7.37202148 -7.08491211 7.37202148 -7.08984375 5.99609375 C-7.09769897 4.74711304 -7.09769897 4.74711304 -7.10571289 3.47290039 C-6.85924519 -0.75945362 -3.5672419 0.25010183 0 0 Z M-17.1171875 31.2109375 C-21.03300422 36.04044479 -20.39453744 42.55688224 -19.9921875 48.5234375 C-19.03928875 51.79051893 -18.38602744 53.12959756 -15.9921875 55.5234375 C-12.18308855 55.19925887 -10.20846587 54.66762308 -6.9921875 52.5234375 C-6.57648742 50.29844835 -6.57648742 50.29844835 -6.69921875 47.734375 C-6.7137207 46.32285156 -6.7137207 46.32285156 -6.72851562 44.8828125 C-6.75365234 43.89796875 -6.77878906 42.913125 -6.8046875 41.8984375 C-6.81822266 40.90585937 -6.83175781 39.91328125 -6.84570312 38.890625 C-6.88113007 36.43435678 -6.93052554 33.97916465 -6.9921875 31.5234375 C-12.19218365 29.07395067 -12.19218365 29.07395067 -17.1171875 31.2109375 Z " fill="#88898D" transform="translate(762.9921875,314.4765625)"/>
<path d="M0 0 C-0.75 6.625 -0.75 6.625 -3 10 C-3.60585938 9.7834375 -4.21171875 9.566875 -4.8359375 9.34375 C-10.8833685 7.33414216 -16.61295872 6.09761068 -23 7 C-26.19997155 8.6408946 -26.19997155 8.6408946 -26.5625 11.375 C-26.2292871 14.19333826 -26.2292871 14.19333826 -23.75 16 C-20.68865182 17.82084927 -17.43894948 19.02467406 -14.125 20.3125 C-7.39410781 23.0416926 -1.97121458 26.37296518 1.5625 32.875 C2.58846875 40.20334822 1.43226527 46.05143345 -3 52 C-10.04322303 57.38888459 -17.45504115 57.59983085 -26 57 C-31.71947266 55.84172691 -36.8887422 53.82464247 -42 51 C-41.49701212 46.59885603 -39.91227269 44.28804981 -37 41 C-36.360625 41.268125 -35.72125 41.53625 -35.0625 41.8125 C-34.051875 42.204375 -33.04125 42.59625 -32 43 C-31.33355469 43.27585937 -30.66710937 43.55171875 -29.98046875 43.8359375 C-24.49131714 45.9316206 -19.74402766 46.61512829 -14 45 C-11.73686321 43.12052548 -11.73686321 43.12052548 -11.5 40.125 C-11.69155409 36.85409225 -11.69155409 36.85409225 -14.25 34.9375 C-17.33708426 33.15564377 -20.62797423 31.93303089 -23.9375 30.625 C-29.74898352 28.27874889 -34.81008351 25.58552428 -38.15234375 20.11328125 C-40.00865568 15.48533306 -39.86926763 10.36925968 -38.16015625 5.7109375 C-35.83208266 1.52510821 -33.06849814 -1.48796284 -28.62890625 -3.375 C-18.87329653 -5.69431286 -8.84424966 -4.76228828 0 0 Z " fill="#88898D" transform="translate(336,323)"/>
<path d="M0 0 C5.34145742 6.12696587 6.49730282 14.53636554 6.40234375 22.41796875 C5.83183871 28.62924189 4.0641859 35.13111368 -0.625 39.5 C-4.90072528 42.04899007 -8.88320954 43.91822247 -13.94140625 43.10546875 C-15.875 42.5625 -15.875 42.5625 -18.875 41.4375 C-18.85179687 42.40171875 -18.82859375 43.3659375 -18.8046875 44.359375 C-18.77761719 46.25429688 -18.77761719 46.25429688 -18.75 48.1875 C-18.72679687 49.44046875 -18.70359375 50.6934375 -18.6796875 51.984375 C-18.875 55.4375 -18.875 55.4375 -20.875 59.4375 C-24.175 59.4375 -27.475 59.4375 -30.875 59.4375 C-30.875 39.3075 -30.875 19.1775 -30.875 -1.5625 C-23 -1.5625 -23 -1.5625 -19.875 1.4375 C-19.00875 0.7259375 -19.00875 0.7259375 -18.125 0 C-12.62656399 -3.81835834 -5.70379888 -3.09989069 0 0 Z M-18.875 10.4375 C-19.60262655 13.96290188 -19.48009897 17.41469204 -19.375 21 C-19.37757813 21.97130859 -19.38015625 22.94261719 -19.3828125 23.94335938 C-19.362533 27.71453401 -19.362533 27.71453401 -18.875 31.4375 C-15.4397952 33.72763653 -13.889669 33.61592973 -9.875 33.4375 C-9.875 32.7775 -9.875 32.1175 -9.875 31.4375 C-9.215 31.4375 -8.555 31.4375 -7.875 31.4375 C-5.59935628 24.75279657 -4.60978683 18.23820468 -7.0625 11.4375 C-8.57355811 8.31268774 -8.57355811 8.31268774 -11.25 7.3125 C-14.84383425 7.48363496 -16.18394901 7.99068631 -18.875 10.4375 Z " fill="#88898D" transform="translate(422.875,336.5625)"/>
<path d="M0 0 C5.20683836 3.75376719 8.64332295 7.47450402 10.25 13.8125 C11.23262291 20.33354292 9.32227068 25.21288219 6 30.75 C1.69508095 34.82222072 -2.83667417 37.13819266 -8.8125 37.4375 C-14.3019153 37.15356473 -18.81290202 35.25311741 -22.8515625 31.51171875 C-27.03233821 26.78084098 -28.82505182 22.46778912 -28.62109375 16.12109375 C-27.92937169 11.22650344 -26.20271247 6.74608966 -22.59375 3.29296875 C-15.75513354 -1.73457344 -8.0440044 -2.58015236 0 0 Z " fill="#F5313E" transform="translate(122.3125,356.0625)"/>
<path d="M0 0 C3.25323165 2.66051035 4.62421883 4.68270925 5.44921875 8.79296875 C5.58345602 10.67332838 5.67270895 12.55714624 5.73046875 14.44140625 C5.78654297 16.07335937 5.78654297 16.07335937 5.84375 17.73828125 C5.89595703 19.43597656 5.89595703 19.43597656 5.94921875 21.16796875 C6.0184866 23.40506387 6.09129174 25.64205282 6.16796875 27.87890625 C6.19826172 28.86938965 6.22855469 29.85987305 6.25976562 30.88037109 C6.39844728 33.86396317 6.39844728 33.86396317 7.03710938 37.04541016 C7.44921875 39.79296875 7.44921875 39.79296875 6.32421875 41.66796875 C3.79981742 43.18260955 2.35284875 43.21789021 -0.55078125 42.79296875 C-2.86328125 41.29296875 -2.86328125 41.29296875 -4.55078125 39.79296875 C-5.03546875 40.08171875 -5.52015625 40.37046875 -6.01953125 40.66796875 C-11.17352113 43.52248622 -14.66239106 44.46868566 -20.55078125 43.79296875 C-24.38337886 42.0044232 -27.65850747 39.78558016 -29.421875 35.84765625 C-30.83653795 30.40364298 -30.58724895 26.75385534 -27.92578125 21.74609375 C-25.63753136 18.49573879 -23.34321974 16.74757227 -19.55078125 15.79296875 C-15.19418581 15.49268939 -10.90906357 15.55703166 -6.55078125 15.79296875 C-6.88078125 13.48296875 -7.21078125 11.17296875 -7.55078125 8.79296875 C-13.75182937 8.51736661 -19.48262603 9.56397529 -25.55078125 10.79296875 C-28.60544363 6.39425492 -28.60544363 6.39425492 -28.36328125 3.73046875 C-27.55078125 1.79296875 -27.55078125 1.79296875 -23.98828125 0.04296875 C-16.85432782 -2.00675463 -6.91674585 -3.27300837 0 0 Z M-17.05078125 24.98046875 C-18.73700172 26.7394399 -18.73700172 26.7394399 -19.11328125 29.29296875 C-18.75227621 31.96280463 -18.75227621 31.96280463 -16.48828125 33.79296875 C-13.23268194 34.90125788 -12.74016667 34.7678627 -9.73828125 33.48046875 C-8.16046875 32.64515625 -8.16046875 32.64515625 -6.55078125 31.79296875 C-6.55078125 29.15296875 -6.55078125 26.51296875 -6.55078125 23.79296875 C-11.98424303 23.42658811 -11.98424303 23.42658811 -17.05078125 24.98046875 Z " fill="#88898D" transform="translate(718.55078125,336.20703125)"/>
<path d="M0 0 C5.30920556 3.17853754 8.71558935 6.91063244 10.375 12.921875 C11.464473 19.47018116 9.98162341 24.43082205 6.375 29.921875 C3.05209799 34.16143964 -1.24435345 36.42941861 -6.609375 37.2109375 C-12.82015636 37.47573826 -17.53833676 35.62914492 -22.375 31.671875 C-26.52915567 26.59457362 -28.24831717 21.68670188 -27.9609375 15.1875 C-27.06506983 9.14560179 -24.43199538 5.14707832 -19.625 1.421875 C-13.39821237 -2.30600443 -6.73008022 -2.76414009 0 0 Z " fill="#F5313E" transform="translate(61.625,356.078125)"/>
<path d="M0 0 C0.680625 -0.01675781 1.36125 -0.03351563 2.0625 -0.05078125 C4.69285986 0.44241122 5.39810403 1.16425744 7 3.3125 C7.43237305 6.31518555 7.43237305 6.31518555 7.51171875 9.94921875 C7.54716797 11.24794922 7.58261719 12.54667969 7.61914062 13.88476562 C7.6422405 15.25650517 7.6650229 16.6282501 7.6875 18 C7.72067542 19.38349607 7.75516531 20.76696129 7.79101562 22.15039062 C7.87363241 25.53767883 7.94274058 28.92470357 8 32.3125 C12.76511624 33.71400478 13.72229386 33.07173538 19 31.3125 C19 21.0825 19 10.8525 19 0.3125 C22.96 0.3125 26.92 0.3125 31 0.3125 C31.02505615 1.37686279 31.0501123 2.44122559 31.07592773 3.5378418 C31.1703167 7.49824429 31.27045975 11.45848423 31.37231445 15.41870117 C31.41554445 17.13057647 31.45722765 18.84249157 31.49731445 20.55444336 C31.55530714 23.01949034 31.61891697 25.48433918 31.68359375 27.94921875 C31.70030624 28.71086838 31.71701874 29.47251801 31.73423767 30.25724792 C31.81893858 33.31642425 31.98007023 36.21371441 32.58618164 39.21801758 C33 41.3125 33 41.3125 31.9375 43.1875 C30 44.3125 30 44.3125 27.0625 44.1875 C24.03978662 43.32386761 22.33164622 42.37511012 20 40.3125 C18.989375 40.951875 17.97875 41.59125 16.9375 42.25 C13.26918832 44.31665447 10.27410118 45.23617676 6 45.3125 C2.01455489 44.11686647 -0.28159684 43.22247734 -2.875 39.9375 C-4.83867177 35.35559921 -5.14316497 30.97319808 -5.28125 26.0234375 C-5.31863281 24.83492188 -5.35601562 23.64640625 -5.39453125 22.421875 C-5.46506422 19.92448538 -5.53537535 17.42708949 -5.60546875 14.9296875 C-5.64285156 13.74375 -5.68023437 12.5578125 -5.71875 11.3359375 C-5.74904297 10.25231934 -5.77933594 9.16870117 -5.81054688 8.05224609 C-5.89161625 5.22093567 -5.89161625 5.22093567 -7 2.3125 C-4.03082597 0.33305064 -3.34297721 0.01899419 0 0 Z " fill="#88898D" transform="translate(350,334.6875)"/>
<path d="M0 0 C5.1546128 4.9304992 6.82928156 9.6425374 7.1875 16.6875 C7 20 7 20 6 24 C-1.92 24 -9.84 24 -18 24 C-16.68 26.64 -15.36 29.28 -14 32 C-7.90218999 32.22084624 -2.78357065 32.01167675 3 30 C4.87620422 33.16609462 5.09662822 35.35832401 5 39 C-3.60451146 42.66427865 -10.67425231 44.5715321 -19.8125 41.875 C-24.53851239 39.09499271 -27.11912494 36.01342871 -29.3125 31 C-31.18560052 22.81655111 -31.28916006 13.43946546 -27.33984375 5.90625 C-20.63780487 -3.62901232 -10.25205339 -5.72908866 0 0 Z M-15.1875 7.6875 C-17.42821168 10.1886843 -17.42821168 10.1886843 -18 15 C-13.38 15 -8.76 15 -4 15 C-4.98946914 10.05265429 -5.21743195 8.91798107 -9 6 C-12.93260425 5.5927977 -12.93260425 5.5927977 -15.1875 7.6875 Z " fill="#88898D" transform="translate(464,337)"/>
<path d="M0 0 C4.50661464 4.21270499 6.10707541 7.9281128 7 14 C6.67 17.3 6.34 20.6 6 24 C-1.92 24 -9.84 24 -18 24 C-15.98848737 30.77489892 -15.98848737 30.77489892 -13 32 C-7.28725709 32.50030131 -2.40353883 31.83950258 3 30 C4.87620422 33.16609462 5.09662822 35.35832401 5 39 C-3.62357186 42.67239562 -10.63803465 44.49431821 -19.8125 41.9375 C-25.20273694 38.66108147 -28.05482659 33.94642924 -30 28 C-30.99789168 18.80889239 -30.65330451 10.66074423 -25 3 C-18.17103098 -4.52758478 -8.68113684 -4.83298585 0 0 Z M-15.1875 7.6875 C-17.42821168 10.1886843 -17.42821168 10.1886843 -18 15 C-11.07 15.495 -11.07 15.495 -4 16 C-4.85408408 9.75867892 -4.85408408 9.75867892 -9 6 C-12.93260425 5.5927977 -12.93260425 5.5927977 -15.1875 7.6875 Z " fill="#88898D" transform="translate(606,337)"/>
<path d="M0 0 C5.40946834 4.97957682 7.52253762 10.77578658 8 18 C7.98376315 24.42979456 7.81678199 30.60385995 4 36 C-0.7462362 40.5398781 -4.64301966 43.00120131 -11.1875 43.4375 C-16.8320423 43.27703642 -21.49060624 41.36582448 -26 38 C-30.88537435 31.73900709 -31.60527438 23.71004268 -31 16 C-30.28724817 12.24124272 -29.20973634 8.62920903 -28 5 C-27.34 5 -26.68 5 -26 5 C-25.773125 4.401875 -25.54625 3.80375 -25.3125 3.1875 C-23.34690872 -0.08848546 -20.65299853 -1.39390054 -17.125 -2.6875 C-10.93826867 -3.59731343 -5.40403688 -3.25557597 0 0 Z M-17.4375 9.125 C-20.34196091 14.3455181 -19.74399682 21.2692137 -19 27 C-17.32048486 30.52061629 -16.28267367 31.81155089 -13 34 C-10.07779234 33.85388962 -8.54146849 33.49483484 -6.3671875 31.5078125 C-4.31193775 27.73789725 -4.56427021 24.22409418 -4.625 20 C-4.61339844 19.19304687 -4.60179687 18.38609375 -4.58984375 17.5546875 C-4.60722372 14.04393405 -4.6750454 11.62662888 -6.30859375 8.4765625 C-8.07050119 6.68398897 -8.07050119 6.68398897 -11.4375 6.375 C-15.07646016 6.69699819 -15.07646016 6.69699819 -17.4375 9.125 Z " fill="#88898D" transform="translate(807,337)"/>
<path d="M0 0 C0.125 3.375 0.125 3.375 0 7 C-0.66 7.66 -1.32 8.32 -2 9 C-4.76713403 8.81864449 -7.3919776 8.5356614 -10.125 8.125 C-10.87910156 8.02058594 -11.63320313 7.91617187 -12.41015625 7.80859375 C-14.27484156 7.54895402 -16.13762887 7.27574971 -18 7 C-17.95196558 9.43588957 -17.95196558 9.43588957 -17 12 C-14.41815475 13.52223554 -14.41815475 13.52223554 -11.25 14.5 C-5.11946246 16.8298955 -1.95194535 18.62845804 1.375 24.375 C2.4492941 28.88703523 1.64846876 32.57336873 -0.25 36.75 C-3.1477186 40.4756382 -6.46474257 42.05793366 -11 43 C-18.764086 43.84422325 -24.88854928 42.0284505 -32 39 C-31.5020163 35.26512223 -31.12508244 33.18762365 -29 30 C-28.35933594 30.22816406 -27.71867188 30.45632813 -27.05859375 30.69140625 C-21.52539021 32.53030996 -17.69558794 33.36198842 -12 32 C-12.04759031 29.56138593 -12.04759031 29.56138593 -13 27 C-15.5849102 25.51447308 -15.5849102 25.51447308 -18.75 24.5625 C-27.26930502 21.26634032 -27.26930502 21.26634032 -30 16 C-30.92739187 10.6635671 -31.05823767 6.5392548 -27.9375 2 C-18.13221701 -4.67593735 -10.62129658 -3.65651194 0 0 Z " fill="#88898D" transform="translate(851,337)"/>
<path d="M0 0 C3.79935991 3.42869065 5.37529254 6.40298389 5.875 11.5 C5.5625 14.3125 5.5625 14.3125 3.5625 17.3125 C0.52383201 17.72387202 -2.35909703 17.44443156 -5.4375 17.3125 C-6.0975 14.3425 -6.7575 11.3725 -7.4375 8.3125 C-10.0775 8.3125 -12.7175 8.3125 -15.4375 8.3125 C-16.3420614 12.19125927 -16.60175247 15.83252321 -16.625 19.8125 C-16.64626953 21.46765625 -16.64626953 21.46765625 -16.66796875 23.15625 C-16.43644702 26.32692048 -15.89071867 28.49784489 -14.4375 31.3125 C-10.9793738 33.0415631 -7.15450868 31.95336357 -3.4375 31.3125 C-0.52240718 30.36773446 -0.52240718 30.36773446 1.5625 29.3125 C3.63406343 31.5497885 4.54758829 32.71603166 4.625 35.8125 C3.10361647 39.39222596 0.91813277 40.47019181 -2.4375 42.3125 C-8.26601654 44.09049191 -14.14552662 44.21213193 -19.75 41.6875 C-25.49974985 38.44112036 -27.68091838 33.46797882 -29.4375 27.3125 C-30.26435233 19.11127861 -30.2431189 11.28361383 -25.4375 4.3125 C-18.59385965 -3.49232579 -9.03219966 -4.43398892 0 0 Z " fill="#88898D" transform="translate(678.4375,336.6875)"/>
<path d="M0 0 C2.8125 2.0625 2.8125 2.0625 5 4 C5.61875 3.360625 6.2375 2.72125 6.875 2.0625 C10.06426489 -1.03296298 11.78993291 -1.11807778 16.125 -1.0625 C17.03507812 -1.05347656 17.94515625 -1.04445313 18.8828125 -1.03515625 C19.93082031 -1.01775391 19.93082031 -1.01775391 21 -1 C20.85831863 0.43791516 20.71148957 1.8753237 20.5625 3.3125 C20.48128906 4.11300781 20.40007812 4.91351563 20.31640625 5.73828125 C20 8 20 8 19 11 C17.39125 10.938125 17.39125 10.938125 15.75 10.875 C12.34287835 10.98857072 10.73773233 11.10464685 8 13 C6.60439955 15.79120091 6.78191712 18.20205692 6.68359375 21.3203125 C6.64169922 22.57714844 6.59980469 23.83398438 6.55664062 25.12890625 C6.51732422 26.44761719 6.47800781 27.76632812 6.4375 29.125 C6.39430488 30.46485751 6.35069027 31.80470156 6.30664062 33.14453125 C6.20029019 36.42957815 6.09826192 39.71470281 6 43 C2.37 43 -1.26 43 -5 43 C-5.03758423 41.58521362 -5.03758423 41.58521362 -5.07592773 40.1418457 C-5.17129809 36.62871337 -5.27051725 33.11573292 -5.37231445 29.6027832 C-5.41551548 28.08492245 -5.45720048 26.56701774 -5.49731445 25.04907227 C-5.55537812 22.86200741 -5.61896656 20.67516082 -5.68359375 18.48828125 C-5.72025146 17.17384033 -5.75690918 15.85939941 -5.79467773 14.50512695 C-5.96760636 11.55300302 -6.32160714 8.87049504 -7 6 C-7.66 6 -8.32 6 -9 6 C-8.39816251 3.97954558 -7.72693904 1.97888961 -7 0 C-4.22339666 -1.38830167 -2.95033814 -0.89196269 0 0 Z " fill="#88898D" transform="translate(485,336)"/>
<path d="M0 0 C4.39629018 0.23763731 6.77258856 2.14143559 10 5 C10.78375 4.175 11.5675 3.35 12.375 2.5 C16.05610418 -0.64132688 19.35503149 -0.41677566 24.0234375 -0.17578125 C24.67570313 -0.11777344 25.32796875 -0.05976563 26 0 C25.85831863 1.43791516 25.71148957 2.8753237 25.5625 4.3125 C25.48128906 5.11300781 25.40007813 5.91351563 25.31640625 6.73828125 C25 9 25 9 24 12 C22.9275 11.979375 21.855 11.95875 20.75 11.9375 C16.75025837 11.93723526 16.75025837 11.93723526 13 13 C11.8992924 16.3021228 11.79372928 18.94083279 11.68359375 22.41796875 C11.64169922 23.67158203 11.59980469 24.92519531 11.55664062 26.21679688 C11.51732422 27.52712891 11.47800781 28.83746094 11.4375 30.1875 C11.39429008 31.52279978 11.350675 32.85808652 11.30664062 34.19335938 C11.20043498 37.46213297 11.09839003 40.73098333 11 44 C7.37 44 3.74 44 0 44 C-0.03758423 42.6385083 -0.03758423 42.6385083 -0.07592773 41.24951172 C-0.17143059 37.86121766 -0.27064084 34.47307331 -0.37231445 31.08496094 C-0.41545337 29.62243852 -0.45714195 28.15987253 -0.49731445 26.69726562 C-0.5555307 24.5871064 -0.61907288 22.47716225 -0.68359375 20.3671875 C-0.72025146 19.09987793 -0.75690918 17.83256836 -0.79467773 16.52685547 C-0.98371036 13.27980984 -1.3962073 10.19301052 -2 7 C-2.66 7 -3.32 7 -4 7 C-2.92598892 4.08482708 -2.22189824 2.22189824 0 0 Z " fill="#88898D" transform="translate(622,335)"/>
</svg>
